  0
SECTION
  2
HEADER
  9
$ACADVER
  1
AC1014
  9
$HANDSEED
  5
FFFF
  9
$MEASUREMENT
 70
     1
  0
ENDSEC
  0
SECTION
  2
TABLES
  0
TABLE
  2
VPORT
  5
8
330
0
100
AcDbSymbolTable
 70
     4
  0
VPORT
  5
2E
330
8
100
AcDbSymbolTableRecord
100
AcDbViewportTableRecord
  2
*ACTIVE
 70
     0
 10
0.0
 20
0.0
 11
1.0
 21
1.0
 12
210.0
 22
148.5
 13
0.0
 23
0.0
 14
10.0
 24
10.0
 15
10.0
 25
10.0
 16
0.0
 26
0.0
 36
1.0
 17
0.0
 27
0.0
 37
0.0
 40
341.0
 41
1.24
 42
50.0
 43
0.0
 44
0.0
 50
0.0
 51
0.0
 71
     0
 72
   100
 73
     1
 74
     3
 75
     0
 76
     0
 77
     0
 78
     0
  0
ENDTAB
  0
TABLE
  2
LTYPE
  5
5
330
0
100
AcDbSymbolTable
 70
     1
  0
LTYPE
  5
14
330
5
100
AcDbSymbolTableRecord
100
AcDbLinetypeTableRecord
  2
BYBLOCK
 70
     0
  3

 72
    65
 73
     0
 40
0.0
  0
LTYPE
  5
15
330
5
100
AcDbSymbolTableRecord
100
AcDbLinetypeTableRecord
  2
BYLAYER
 70
     0
  3

 72
    65
 73
     0
 40
0.0
  0
LTYPE
  5
16
330
5
100
AcDbSymbolTableRecord
100
AcDbLinetypeTableRecord
  2
CONTINUOUS
 70
     0
  3
Solid line
 72
    65
 73
     0
 40
0.0
  0
ENDTAB
  0
TABLE
  2
LAYER
  5
2
100
AcDbSymbolTable
 70
1
  0
LAYER
  5
50
100
AcDbSymbolTableRecord
100
AcDbLayerTableRecord
  2
0
 70
0
  6
CONTINUOUS
  0
ENDTAB
  0
TABLE
  2
STYLE
  5
3
330
0
100
AcDbSymbolTable
 70
     1
  0
STYLE
  5
11
330
3
100
AcDbSymbolTableRecord
100
AcDbTextStyleTableRecord
  2
STANDARD
 70
     0
 40
0.0
 41
1.0
 50
0.0
 71
     0
 42
2.5
  3
txt
  4

  0
ENDTAB
  0
TABLE
  2
VIEW
  5
6
330
0
100
AcDbSymbolTable
 70
     0
  0
ENDTAB
  0
TABLE
  2
UCS
  5
7
330
0
100
AcDbSymbolTable
 70
     0
  0
ENDTAB
  0
TABLE
  2
APPID
  5
9
330
0
100
AcDbSymbolTable
 70
     2
  0
APPID
  5
12
330
9
100
AcDbSymbolTableRecord
100
AcDbRegAppTableRecord
  2
ACAD
 70
     0
  0
ENDTAB
  0
TABLE
  2
DIMSTYLE
  5
A
330
0
100
AcDbSymbolTable
 70
     1
  0
DIMSTYLE
105
27
330
A
100
AcDbSymbolTableRecord
100
AcDbDimStyleTableRecord
  2
ISO-25
 70
     0
  3

  4

  5

  6

  7

 40
1.0
 41
2.5
 42
0.625
 43
3.75
 44
1.25
 45
0.0
 46
0.0
 47
0.0
 48
0.0
140
2.5
141
2.5
142
0.0
143
0.03937007874016
144
1.0
145
0.0
146
1.0
147
0.625
 71
     0
 72
     0
 73
     0
 74
     0
 75
     0
 76
     0
 77
     1
 78
     8
170
     0
171
     3
172
     1
173
     0
174
     0
175
     0
176
     0
177
     0
178
     0
270
     2
271
     2
272
     2
273
     2
274
     3
340
11
275
     0
280
     0
281
     0
282
     0
283
     0
284
     8
285
     0
286
     0
287
     3
288
     0
  0
ENDTAB
  0
TABLE
  2
BLOCK_RECORD
  5
1
330
0
100
AcDbSymbolTable
 70
     1
  0
BLOCK_RECORD
  5
1F
330
1
100
AcDbSymbolTableRecord
100
AcDbBlockTableRecord
  2
*MODEL_SPACE
  0
BLOCK_RECORD
  5
1B
330
1
100
AcDbSymbolTableRecord
100
AcDbBlockTableRecord
  2
*PAPER_SPACE
  0
ENDTAB
  0
ENDSEC
  0
SECTION
  2
BLOCKS
  0
BLOCK
  5
20
330
1F
100
AcDbEntity
  8
0
100
AcDbBlockBegin
  2
*MODEL_SPACE
 70
     0
 10
0.0
 20
0.0
 30
0.0
  3
*MODEL_SPACE
  1

  0
ENDBLK
  5
21
330
1F
100
AcDbEntity
  8
0
100
AcDbBlockEnd
  0
BLOCK
  5
1C
330
1B
100
AcDbEntity
 67
     1
  8
0
100
AcDbBlockBegin
  2
*PAPER_SPACE
  1

  0
ENDBLK
  5
1D
330
1B
100
AcDbEntity
 67
     1
  8
0
100
AcDbBlockEnd
  0
ENDSEC
  0
SECTION
  2
ENTITIES
  0
SPLINE
  5
100
100
AcDbEntity
  8
0
 62
7
100
AcDbSpline
 70
0
 71
3
 72
13
 73
9
 74
7
 40
0.000000
 40
0.000000
 40
0.000000
 40
0.000000
 40
0.132399
 40
0.295581
 40
0.485163
 40
0.608140
 40
0.718535
 40
0.815573
 40
0.815573
 40
0.815573
 40
0.815573
 10
1.549233
 20
4.594787
 30
0.0
 10
1.567317
 20
4.554495
 30
0.0
 10
1.607690
 20
4.464543
 30
0.0
 10
1.654825
 20
4.309361
 30
0.0
 10
1.682854
 20
4.152727
 30
0.0
 10
1.689958
 20
4.011758
 30
0.0
 10
1.687585
 20
3.901491
 30
0.0
 10
1.679498
 20
3.832790
 30
0.0
 10
1.675714
 20
3.800651
 30
0.0
 11
1.549233
 21
4.594787
 31
0.0
 11
1.601146
 21
4.472990
 31
0.0
 11
1.649374
 21
4.317097
 31
0.0
 11
1.681935
 21
4.130332
 31
0.0
 11
1.688616
 21
4.007537
 31
0.0
 11
1.685621
 21
3.897183
 31
0.0
 11
1.675714
 21
3.800651
 31
0.0
  0
SPLINE
  5
101
100
AcDbEntity
  8
0
 62
7
100
AcDbSpline
 70
0
 71
3
 72
46
 73
42
 74
40
 40
0.000000
 40
0.000000
 40
0.000000
 40
0.000000
 40
0.079265
 40
0.133667
 40
0.172335
 40
0.284252
 40
0.406148
 40
0.520515
 40
0.554101
 40
0.579876
 40
0.608055
 40
0.671027
 40
0.735215
 40
0.794095
 40
0.819200
 40
0.841603
 40
0.872560
 40
0.915594
 40
0.955835
 40
1.003538
 40
1.060581
 40
1.111581
 40
1.180702
 40
1.275242
 40
1.344975
 40
1.390927
 40
1.426220
 40
1.465804
 40
1.509297
 40
1.569923
 40
1.650141
 40
1.750246
 40
1.821422
 40
1.885903
 40
1.982624
 40
2.045372
 40
2.100913
 40
2.181436
 40
2.250742
 40
2.308914
 40
2.355336
 40
2.355336
 40
2.355336
 40
2.355336
 10
1.675714
 20
3.800651
 30
0.0
 10
1.702134
 20
3.803591
 30
0.0
 10
1.746686
 20
3.808549
 30
0.0
 10
1.799596
 20
3.833848
 30
0.0
 10
1.848646
 20
3.883570
 30
0.0
 10
1.859827
 20
3.982577
 30
0.0
 10
1.832121
 20
4.092233
 30
0.0
 10
1.852534
 20
4.190475
 30
0.0
 10
1.897357
 20
4.228501
 30
0.0
 10
1.923337
 20
4.242498
 30
0.0
 10
1.945508
 20
4.276800
 30
0.0
 10
1.940361
 20
4.332839
 30
0.0
 10
1.912354
 20
4.386540
 30
0.0
 10
1.908726
 20
4.441469
 30
0.0
 10
1.932951
 20
4.469710
 30
0.0
 10
1.957323
 20
4.480261
 30
0.0
 10
1.978264
 20
4.506049
 30
0.0
 10
1.991193
 20
4.543108
 30
0.0
 10
1.986935
 20
4.587024
 30
0.0
 10
1.988395
 20
4.635429
 30
0.0
 10
2.008451
 20
4.685980
 30
0.0
 10
2.055235
 20
4.723591
 30
0.0
 10
2.093876
 20
4.785028
 30
0.0
 10
2.111575
 20
4.864393
 30
0.0
 10
2.101361
 20
4.931254
 30
0.0
 10
2.119512
 20
4.988410
 30
0.0
 10
2.166280
 20
4.988027
 30
0.0
 10
2.199867
 20
4.969159
 30
0.0
 10
2.252972
 20
4.968436
 30
0.0
 10
2.292698
 20
5.025419
 30
0.0
 10
2.301224
 20
5.104364
 30
0.0
 10
2.340408
 20
5.182584
 30
0.0
 10
2.404329
 20
5.232301
 30
0.0
 10
2.480499
 20
5.251239
 30
0.0
 10
2.541859
 20
5.296878
 30
0.0
 10
2.591509
 20
5.348692
 30
0.0
 10
2.628297
 20
5.404054
 30
0.0
 10
2.673906
 20
5.455356
 30
0.0
 10
2.723937
 20
5.503412
 30
0.0
 10
2.768767
 20
5.540273
 30
0.0
 10
2.797254
 20
5.560386
 30
0.0
 10
2.809897
 20
5.569313
 30
0.0
 11
1.675714
 21
3.800651
 31
0.0
 11
1.753738
 21
3.814628
 31
0.0
 11
1.802272
 21
3.839202
 31
0.0
 11
1.829150
 21
3.867002
 31
0.0
 11
1.852957
 21
3.976358
 31
0.0
 11
1.841284
 21
4.097694
 31
0.0
 11
1.874766
 21
4.207050
 31
0.0
 11
1.900109
 21
4.229090
 31
0.0
 11
1.921304
 21
4.243757
 31
0.0
 11
1.936970
 21
4.267180
 31
0.0
 11
1.936740
 21
4.330152
 31
0.0
 11
1.915775
 21
4.390820
 31
0.0
 11
1.918309
 21
4.449644
 31
0.0
 11
1.934666
 21
4.468689
 31
0.0
 11
1.953788
 21
4.480362
 31
0.0
 11
1.974292
 21
4.503554
 31
0.0
 11
1.988269
 21
4.544256
 31
0.0
 11
1.987962
 21
4.584496
 31
0.0
 11
1.990880
 21
4.632109
 31
0.0
 11
2.013304
 21
4.684560
 31
0.0
 11
2.048630
 21
4.721344
 31
0.0
 11
2.086259
 21
4.779324
 31
0.0
 11
2.106687
 21
4.871632
 31
0.0
 11
2.107301
 21
4.941361
 31
0.0
 11
2.127728
 21
4.982523
 31
0.0
 11
2.162900
 21
4.985442
 31
0.0
 11
2.200376
 21
4.972694
 31
0.0
 11
2.243842
 21
4.974230
 31
0.0
 11
2.283775
 21
5.019846
 31
0.0
 11
2.304817
 21
5.097255
 31
0.0
 11
2.351662
 21
5.185723
 31
0.0
 11
2.408260
 21
5.228881
 31
0.0
 11
2.468544
 21
5.251766
 31
0.0
 11
2.548641
 21
5.305983
 31
0.0
 11
2.591646
 21
5.351676
 31
0.0
 11
2.624514
 21
5.396447
 31
0.0
 11
2.677195
 21
5.457346
 31
0.0
 11
2.727265
 21
5.505266
 31
0.0
 11
2.772267
 21
5.542127
 31
0.0
 11
2.809897
 21
5.569313
 31
0.0
  0
SPLINE
  5
102
100
AcDbEntity
  8
0
 62
7
100
AcDbSpline
 70
0
 71
3
 72
25
 73
21
 74
19
 40
0.000000
 40
0.000000
 40
0.000000
 40
0.000000
 40
0.065472
 40
0.115243
 40
0.150227
 40
0.194332
 40
0.245664
 40
0.280582
 40
0.371640
 40
0.439303
 40
0.494141
 40
0.527373
 40
0.557590
 40
0.596190
 40
0.640798
 40
0.686457
 40
0.744894
 40
0.788014
 40
0.825893
 40
0.858234
 40
0.858234
 40
0.858234
 40
0.858234
 10
2.809897
 20
5.569313
 30
0.0
 10
2.799602
 20
5.549944
 30
0.0
 10
2.781483
 20
5.515853
 30
0.0
 10
2.769073
 20
5.467263
 30
0.0
 10
2.781283
 20
5.419876
 30
0.0
 10
2.832384
 20
5.414785
 30
0.0
 10
2.872675
 20
5.427644
 30
0.0
 10
2.926787
 20
5.452125
 30
0.0
 10
2.981259
 20
5.489488
 30
0.0
 10
3.023715
 20
5.546288
 30
0.0
 10
3.074040
 20
5.572795
 30
0.0
 10
3.113990
 20
5.560941
 30
0.0
 10
3.140315
 20
5.538983
 30
0.0
 10
3.179127
 20
5.530633
 30
0.0
 10
3.221985
 20
5.542654
 30
0.0
 10
3.261314
 20
5.573317
 30
0.0
 10
3.306334
 20
5.594169
 30
0.0
 10
3.351692
 20
5.605025
 30
0.0
 10
3.389581
 20
5.608027
 30
0.0
 10
3.412900
 20
5.605654
 30
0.0
 10
3.423641
 20
5.604561
 30
0.0
 11
2.809897
 21
5.569313
 31
0.0
 11
2.781790
 21
5.510181
 31
0.0
 11
2.773035
 21
5.461185
 31
0.0
 11
2.785015
 21
5.428317
 31
0.0
 11
2.827867
 21
5.417873
 31
0.0
 11
2.877630
 21
5.430468
 31
0.0
 11
2.909423
 21
5.444905
 31
0.0
 11
2.983530
 21
5.497817
 31
0.0
 11
3.030912
 21
5.546121
 31
0.0
 11
3.081520
 21
5.567239
 31
0.0
 11
3.113620
 21
5.558638
 31
0.0
 11
3.139270
 21
5.542665
 31
0.0
 11
3.176899
 21
5.534064
 31
0.0
 11
3.220134
 21
5.545045
 31
0.0
 11
3.258762
 21
5.569389
 31
0.0
 11
3.311674
 21
5.594194
 31
0.0
 11
3.353604
 21
5.604254
 31
0.0
 11
3.391387
 21
5.606942
 31
0.0
 11
3.423641
 21
5.604561
 31
0.0
  0
SPLINE
  5
103
100
AcDbEntity
  8
0
 62
7
100
AcDbSpline
 70
0
 71
3
 72
34
 73
30
 74
28
 40
0.000000
 40
0.000000
 40
0.000000
 40
0.000000
 40
0.062719
 40
0.119389
 40
0.172456
 40
0.193197
 40
0.227983
 40
0.267637
 40
0.299434
 40
0.332682
 40
0.368252
 40
0.418416
 40
0.466772
 40
0.509427
 40
0.538762
 40
0.572691
 40
0.620534
 40
0.680640
 40
0.737670
 40
0.809760
 40
0.848520
 40
0.881354
 40
0.906562
 40
0.942461
 40
0.976485
 40
1.009242
 40
1.050200
 40
1.091741
 40
1.134875
 40
1.134875
 40
1.134875
 40
1.134875
 10
3.423641
 20
5.604561
 30
0.0
 10
3.408288
 20
5.590100
 30
0.0
 10
3.379064
 20
5.562572
 30
0.0
 10
3.355639
 20
5.508313
 30
0.0
 10
3.354992
 20
5.463182
 30
0.0
 10
3.367351
 20
5.429030
 30
0.0
 10
3.383656
 20
5.401176
 30
0.0
 10
3.416173
 20
5.381567
 30
0.0
 10
3.452578
 20
5.384400
 30
0.0
 10
3.482469
 20
5.393279
 30
0.0
 10
3.517210
 20
5.445830
 30
0.0
 10
3.498486
 20
5.366820
 30
0.0
 10
3.507922
 20
5.329764
 30
0.0
 10
3.528754
 20
5.289118
 30
0.0
 10
3.566148
 20
5.282052
 30
0.0
 10
3.601876
 20
5.291974
 30
0.0
 10
3.650081
 20
5.291952
 30
0.0
 10
3.702914
 20
5.272022
 30
0.0
 10
3.751523
 20
5.231293
 30
0.0
 10
3.801702
 20
5.205594
 30
0.0
 10
3.850125
 20
5.195526
 30
0.0
 10
3.877945
 20
5.188653
 30
0.0
 10
3.922672
 20
5.195922
 30
0.0
 10
3.887902
 20
5.155482
 30
0.0
 10
3.893346
 20
5.123455
 30
0.0
 10
3.905148
 20
5.087932
 30
0.0
 10
3.937623
 20
5.064033
 30
0.0
 10
3.980236
 20
5.053653
 30
0.0
 10
4.007108
 20
5.064224
 30
0.0
 10
4.020797
 20
5.069609
 30
0.0
 11
3.423641
 21
5.604561
 31
0.0
 11
3.381173
 21
5.558408
 31
0.0
 11
3.358979
 21
5.506264
 31
0.0
 11
3.359363
 21
5.453199
 31
0.0
 11
3.366198
 21
5.433616
 31
0.0
 11
3.385013
 21
5.404357
 31
0.0
 11
3.419494
 21
5.384775
 31
0.0
 11
3.451287
 21
5.385312
 31
0.0
 11
3.481698
 21
5.398751
 31
0.0
 11
3.506579
 21
5.424170
 31
0.0
 11
3.503507
 21
5.374100
 31
0.0
 11
3.511033
 21
5.326334
 31
0.0
 11
3.535608
 21
5.291469
 31
0.0
 11
3.564098
 21
5.284481
 31
0.0
 11
3.597658
 21
5.289472
 31
0.0
 11
3.645501
 21
5.289396
 31
0.0
 11
3.701945
 21
5.268738
 31
0.0
 11
3.748713
 21
5.236100
 31
0.0
 11
3.813451
 21
5.204384
 31
0.0
 11
3.851081
 21
5.195092
 31
0.0
 11
3.883642
 21
5.190868
 31
0.0
 11
3.908830
 21
5.189869
 31
0.0
 11
3.894930
 21
5.156771
 31
0.0
 11
3.894393
 21
5.122751
 31
0.0
 11
3.906757
 21
5.092417
 31
0.0
 11
3.938627
 21
5.066691
 31
0.0
 11
3.979251
 21
5.058013
 31
0.0
 11
4.020797
 21
5.069609
 31
0.0
  0
SPLINE
  5
104
100
AcDbEntity
  8
0
 62
7
100
AcDbSpline
 70
0
 71
3
 72
40
 73
36
 74
34
 40
0.000000
 40
0.000000
 40
0.000000
 40
0.000000
 40
0.039502
 40
0.085602
 40
0.137406
 40
0.211173
 40
0.264699
 40
0.307281
 40
0.336013
 40
0.363087
 40
0.399076
 40
0.443345
 40
0.495942
 40
0.574367
 40
0.651799
 40
0.722200
 40
0.782858
 40
0.814495
 40
0.845819
 40
0.872672
 40
0.898341
 40
0.933670
 40
0.984769
 40
1.024246
 40
1.052027
 40
1.080863
 40
1.097591
 40
1.110581
 40
1.120334
 40
1.182298
 40
1.242278
 40
1.297260
 40
1.337520
 40
1.388348
 40
1.452006
 40
1.452006
 40
1.452006
 40
1.452006
 10
4.020797
 20
5.069609
 30
0.0
 10
4.022755
 20
5.056580
 30
0.0
 10
4.026997
 20
5.028346
 30
0.0
 10
4.028321
 20
4.982430
 30
0.0
 10
4.023138
 20
4.925302
 30
0.0
 10
4.009936
 20
4.866959
 30
0.0
 10
3.991574
 20
4.813057
 30
0.0
 10
3.998323
 20
4.768930
 30
0.0
 10
4.023525
 20
4.745177
 30
0.0
 10
4.053212
 20
4.736772
 30
0.0
 10
4.083275
 20
4.715228
 30
0.0
 10
4.103187
 20
4.673387
 30
0.0
 10
4.103105
 20
4.614412
 30
0.0
 10
4.109109
 20
4.545258
 30
0.0
 10
4.120317
 20
4.470740
 30
0.0
 10
4.137572
 20
4.402645
 30
0.0
 10
4.176109
 20
4.359237
 30
0.0
 10
4.216834
 20
4.347708
 30
0.0
 10
4.246822
 20
4.349210
 30
0.0
 10
4.274561
 20
4.361628
 30
0.0
 10
4.282719
 20
4.392742
 30
0.0
 10
4.272416
 20
4.428872
 30
0.0
 10
4.267282
 20
4.470572
 30
0.0
 10
4.265454
 20
4.510202
 30
0.0
 10
4.270816
 20
4.541879
 30
0.0
 10
4.275774
 20
4.565839
 30
0.0
 10
4.277294
 20
4.585323
 30
0.0
 10
4.277901
 20
4.598467
 30
0.0
 10
4.277816
 20
4.626707
 30
0.0
 10
4.281430
 20
4.670583
 30
0.0
 10
4.289912
 20
4.728835
 30
0.0
 10
4.294512
 20
4.780713
 30
0.0
 10
4.287207
 20
4.829124
 30
0.0
 10
4.270791
 20
4.878497
 30
0.0
 10
4.250046
 20
4.910705
 30
0.0
 10
4.238510
 20
4.928614
 30
0.0
 11
4.020797
 21
5.069609
 31
0.0
 11
4.025942
 21
5.030443
 31
0.0
 11
4.027401
 21
4.984367
 31
0.0
 11
4.022871
 21
4.932760
 31
0.0
 11
4.006974
 21
4.860727
 31
0.0
 11
3.995224
 21
4.808506
 31
0.0
 11
4.004209
 21
4.766884
 31
0.0
 11
4.024944
 21
4.746994
 31
0.0
 11
4.049826
 21
4.736319
 31
0.0
 11
4.078854
 21
4.715047
 31
0.0
 11
4.098897
 21
4.675575
 31
0.0
 11
4.103735
 21
4.623201
 31
0.0
 11
4.109956
 21
4.545023
 31
0.0
 11
4.122013
 21
4.468536
 31
0.0
 11
4.144206
 21
4.401724
 31
0.0
 11
4.186674
 21
4.358412
 31
0.0
 11
4.217008
 21
4.349427
 31
0.0
 11
4.248263
 21
4.351501
 31
0.0
 11
4.271686
 21
4.364633
 31
0.0
 11
4.279826
 21
4.388976
 31
0.0
 11
4.274604
 21
4.423918
 31
0.0
 11
4.267539
 21
4.474526
 31
0.0
 11
4.266924
 21
4.513998
 31
0.0
 11
4.270918
 21
4.541491
 31
0.0
 11
4.275833
 21
4.569905
 31
0.0
 11
4.277292
 21
4.586569
 31
0.0
 11
4.277829
 21
4.599548
 31
0.0
 11
4.277906
 21
4.609301
 31
0.0
 11
4.282130
 21
4.671121
 31
0.0
 11
4.289579
 21
4.730637
 31
0.0
 11
4.292420
 21
4.785545
 31
0.0
 11
4.286737
 21
4.825401
 31
0.0
 11
4.270457
 21
4.873552
 31
0.0
 11
4.238510
 21
4.928614
 31
0.0
  0
SPLINE
  5
105
100
AcDbEntity
  8
0
 62
7
100
AcDbSpline
 70
0
 71
3
 72
43
 73
39
 74
37
 40
0.000000
 40
0.000000
 40
0.000000
 40
0.000000
 40
0.063683
 40
0.114256
 40
0.154292
 40
0.218544
 40
0.282253
 40
0.364449
 40
0.407389
 40
0.444174
 40
0.474559
 40
0.494819
 40
0.525272
 40
0.563777
 40
0.585806
 40
0.616408
 40
0.648096
 40
0.669059
 40
0.699901
 40
0.751692
 40
0.791488
 40
0.838981
 40
0.893713
 40
0.928535
 40
0.975543
 40
1.032933
 40
1.109153
 40
1.170376
 40
1.211674
 40
1.242463
 40
1.281588
 40
1.328176
 40
1.360346
 40
1.397380
 40
1.439591
 40
1.499530
 40
1.548526
 40
1.583310
 40
1.583310
 40
1.583310
 40
1.583310
 10
4.238510
 20
4.928614
 30
0.0
 10
4.248163
 20
4.947592
 30
0.0
 10
4.265481
 20
4.981641
 30
0.0
 10
4.277492
 20
5.032168
 30
0.0
 10
4.279313
 20
5.083982
 30
0.0
 10
4.269024
 20
5.139634
 30
0.0
 10
4.241693
 20
5.204657
 30
0.0
 10
4.226650
 20
5.264609
 30
0.0
 10
4.221389
 20
5.321882
 30
0.0
 10
4.223131
 20
5.350089
 30
0.0
 10
4.220163
 20
5.402258
 30
0.0
 10
4.235992
 20
5.364444
 30
0.0
 10
4.253998
 20
5.346419
 30
0.0
 10
4.278847
 20
5.326098
 30
0.0
 10
4.306637
 20
5.314027
 30
0.0
 10
4.333696
 20
5.305999
 30
0.0
 10
4.363414
 20
5.309746
 30
0.0
 10
4.383363
 20
5.331229
 30
0.0
 10
4.390773
 20
5.365727
 30
0.0
 10
4.397729
 20
5.405573
 30
0.0
 10
4.404474
 20
5.451689
 30
0.0
 10
4.413004
 20
5.497516
 30
0.0
 10
4.405236
 20
5.547620
 30
0.0
 10
4.440963
 20
5.580205
 30
0.0
 10
4.460958
 20
5.622102
 30
0.0
 10
4.484127
 20
5.677952
 30
0.0
 10
4.487938
 20
5.744966
 30
0.0
 10
4.492149
 20
5.800119
 30
0.0
 10
4.456949
 20
5.853138
 30
0.0
 10
4.505442
 20
5.859349
 30
0.0
 10
4.535407
 20
5.879902
 30
0.0
 10
4.569218
 20
5.901579
 30
0.0
 10
4.598160
 20
5.927002
 30
0.0
 10
4.623478
 20
5.954426
 30
0.0
 10
4.647311
 20
5.994708
 30
0.0
 10
4.660707
 20
6.044063
 30
0.0
 10
4.661278
 20
6.092468
 30
0.0
 10
4.655572
 20
6.119851
 30
0.0
 10
4.653202
 20
6.131220
 30
0.0
 11
4.238510
 21
4.928614
 31
0.0
 11
4.264851
 21
4.986594
 31
0.0
 11
4.276447
 21
5.035819
 31
0.0
 11
4.277906
 21
5.075829
 31
0.0
 11
4.266771
 21
5.139108
 31
0.0
 11
4.245499
 21
5.199162
 31
0.0
 11
4.226070
 21
5.279028
 31
0.0
 11
4.222307
 21
5.321803
 31
0.0
 11
4.222230
 21
5.358588
 31
0.0
 11
4.223996
 21
5.388922
 31
0.0
 11
4.234056
 21
5.371336
 31
0.0
 11
4.253332
 21
5.347760
 31
0.0
 11
4.284126
 21
5.324644
 31
0.0
 11
4.304170
 21
5.315506
 31
0.0
 11
4.333890
 21
5.308210
 31
0.0
 11
4.364991
 21
5.314277
 31
0.0
 11
4.379582
 21
5.329329
 31
0.0
 11
4.389105
 21
5.358664
 31
0.0
 11
4.398167
 21
5.409656
 31
0.0
 11
4.404310
 21
5.448975
 31
0.0
 11
4.409993
 21
5.496127
 31
0.0
 11
4.414754
 21
5.550651
 31
0.0
 11
4.436027
 21
5.578221
 31
0.0
 11
4.459142
 21
5.619152
 31
0.0
 11
4.479032
 21
5.672986
 31
0.0
 11
4.488401
 21
5.748628
 31
0.0
 11
4.482103
 21
5.809527
 31
0.0
 11
4.470738
 21
5.849230
 31
0.0
 11
4.499382
 21
5.860518
 31
0.0
 11
4.534017
 21
5.878719
 31
0.0
 11
4.572337
 21
5.905213
 31
0.0
 11
4.596605
 21
5.926332
 31
0.0
 11
4.621332
 21
5.953901
 31
0.0
 11
4.642835
 21
5.990225
 31
0.0
 11
4.658885
 21
6.047975
 31
0.0
 11
4.659269
 21
6.096970
 31
0.0
 11
4.653202
 21
6.131220
 31
0.0
  0
SPLINE
  5
106
100
AcDbEntity
  8
0
 62
7
100
AcDbSpline
 70
0
 71
3
 72
52
 73
48
 74
46
 40
0.000000
 40
0.000000
 40
0.000000
 40
0.000000
 40
0.041706
 40
0.075353
 40
0.102168
 40
0.133101
 40
0.165685
 40
0.196559
 40
0.198097
 40
0.199299
 40
0.201417
 40
0.238863
 40
0.292261
 40
0.351032
 40
0.385823
 40
0.415391
 40
0.439130
 40
0.471047
 40
0.510371
 40
0.556486
 40
0.622300
 40
0.677688
 40
0.719783
 40
0.760753
 40
0.795466
 40
0.823815
 40
0.844086
 40
0.870090
 40
0.901039
 40
0.942727
 40
1.019454
 40
1.103963
 40
1.124130
 40
1.157258
 40
1.204395
 40
1.239759
 40
1.282642
 40
1.331986
 40
1.378769
 40
1.433577
 40
1.496788
 40
1.563335
 40
1.616304
 40
1.650713
 40
1.707694
 40
1.753884
 40
1.785873
 40
1.785873
 40
1.785873
 40
1.785873
 10
4.653202
 20
6.131220
 30
0.0
 10
4.666791
 20
6.128156
 30
0.0
 10
4.691342
 20
6.122619
 30
0.0
 10
4.722645
 20
6.108556
 30
0.0
 10
4.747829
 20
6.091240
 30
0.0
 10
4.771368
 20
6.072704
 30
0.0
 10
4.797833
 20
6.054570
 30
0.0
 10
4.819464
 20
6.050851
 30
0.0
 10
4.830901
 20
6.050280
 30
0.0
 10
4.832367
 20
6.051087
 30
0.0
 10
4.841549
 20
6.061133
 30
0.0
 10
4.863384
 20
6.085156
 30
0.0
 10
4.861949
 20
6.138343
 30
0.0
 10
4.855251
 20
6.186199
 30
0.0
 10
4.836374
 20
6.224349
 30
0.0
 10
4.825106
 20
6.248128
 30
0.0
 10
4.791949
 20
6.273196
 30
0.0
 10
4.843492
 20
6.275597
 30
0.0
 10
4.870901
 20
6.295832
 30
0.0
 10
4.913184
 20
6.326863
 30
0.0
 10
4.946638
 20
6.372025
 30
0.0
 10
4.966942
 20
6.423351
 30
0.0
 10
4.975051
 20
6.468405
 30
0.0
 10
4.979031
 20
6.509066
 30
0.0
 10
4.982689
 20
6.538739
 30
0.0
 10
4.968072
 20
6.580180
 30
0.0
 10
5.000160
 20
6.566140
 30
0.0
 10
5.023421
 20
6.566673
 30
0.0
 10
5.057291
 20
6.565507
 30
0.0
 10
5.106048
 20
6.575217
 30
0.0
 10
5.170285
 20
6.599093
 30
0.0
 10
5.213889
 20
6.648450
 30
0.0
 10
5.222429
 20
6.694757
 30
0.0
 10
5.224763
 20
6.723950
 30
0.0
 10
5.189483
 20
6.785274
 30
0.0
 10
5.238994
 20
6.741222
 30
0.0
 10
5.271387
 20
6.726025
 30
0.0
 10
5.316067
 20
6.707113
 30
0.0
 10
5.363502
 20
6.691805
 30
0.0
 10
5.418539
 20
6.684268
 30
0.0
 10
5.480480
 20
6.692177
 30
0.0
 10
5.536338
 20
6.718799
 30
0.0
 10
5.576057
 20
6.752057
 30
0.0
 10
5.605878
 20
6.789954
 30
0.0
 10
5.629605
 20
6.829591
 30
0.0
 10
5.643787
 20
6.872663
 30
0.0
 10
5.648577
 20
6.898284
 30
0.0
 10
5.650536
 20
6.908768
 30
0.0
 11
4.653202
 21
6.131220
 31
0.0
 11
4.693520
 21
6.120546
 31
0.0
 11
4.724161
 21
6.106646
 31
0.0
 11
4.746508
 21
6.091824
 31
0.0
 11
4.771236
 21
6.073240
 31
0.0
 11
4.799189
 21
6.056499
 31
0.0
 11
4.829446
 21
6.050355
 31
0.0
 11
4.830982
 21
6.050432
 31
0.0
 11
4.832057
 21
6.050970
 31
0.0
 11
4.833593
 21
6.052429
 31
0.0
 11
4.855864
 21
6.082532
 31
0.0
 11
4.861086
 21
6.135674
 31
0.0
 11
4.850181
 21
6.193424
 31
0.0
 11
4.836051
 21
6.225217
 31
0.0
 11
4.820077
 21
6.250099
 31
0.0
 11
4.804565
 21
6.268068
 31
0.0
 11
4.835052
 21
6.277514
 31
0.0
 11
4.870148
 21
6.295254
 31
0.0
 11
4.906164
 21
6.324052
 31
0.0
 11
4.946021
 21
6.376426
 31
0.0
 11
4.966525
 21
6.427878
 31
0.0
 11
4.974589
 21
6.469194
 31
0.0
 11
4.979273
 21
6.509895
 31
0.0
 11
4.978889
 21
6.544607
 31
0.0
 11
4.976662
 21
6.572867
 31
0.0
 11
4.996552
 21
6.568951
 31
0.0
 11
5.022432
 21
6.566416
 31
0.0
 11
5.053380
 21
6.566647
 31
0.0
 11
5.094465
 21
6.573712
 31
0.0
 11
5.165040
 21
6.603815
 31
0.0
 11
5.217183
 21
6.670320
 31
0.0
 11
5.221330
 21
6.690056
 31
0.0
 11
5.219948
 21
6.723154
 31
0.0
 11
5.204743
 21
6.767772
 31
0.0
 11
5.233771
 21
6.747575
 31
0.0
 11
5.271093
 21
6.726457
 31
0.0
 11
5.316709
 21
6.707642
 31
0.0
 11
5.361404
 21
6.693819
 31
0.0
 11
5.415775
 21
6.686907
 31
0.0
 11
5.478439
 21
6.695201
 31
0.0
 11
5.538723
 21
6.723385
 31
0.0
 11
5.579194
 21
6.757559
 31
0.0
 11
5.600773
 21
6.784360
 31
0.0
 11
5.629341
 21
6.833662
 31
0.0
 11
5.644086
 21
6.877435
 31
0.0
 11
5.650536
 21
6.908768
 31
0.0
  0
SPLINE
  5
107
100
AcDbEntity
  8
0
 62
7
100
AcDbSpline
 70
0
 71
3
 72
31
 73
27
 74
25
 40
0.000000
 40
0.000000
 40
0.000000
 40
0.000000
 40
0.054847
 40
0.127729
 40
0.215119
 40
0.293027
 40
0.358694
 40
0.409087
 40
0.438366
 40
0.497662
 40
0.573275
 40
0.625390
 40
0.666568
 40
0.691807
 40
0.747082
 40
0.798391
 40
0.847543
 40
0.888913
 40
0.922365
 40
0.941878
 40
0.961793
 40
1.000434
 40
1.048980
 40
1.096006
 40
1.143542
 40
1.193255
 40
1.193255
 40
1.193255
 40
1.193255
 10
5.650536
 20
6.908768
 30
0.0
 10
5.668641
 20
6.906118
 30
0.0
 10
5.710803
 20
6.899949
 30
0.0
 10
5.783039
 20
6.901828
 30
0.0
 10
5.860825
 20
6.912746
 30
0.0
 10
5.937158
 20
6.942733
 30
0.0
 10
5.985767
 20
6.958409
 30
0.0
 10
6.048590
 20
7.018673
 30
0.0
 10
6.023888
 20
6.956712
 30
0.0
 10
6.028371
 20
6.908790
 30
0.0
 10
6.049320
 20
6.845212
 30
0.0
 10
6.094864
 20
6.807389
 30
0.0
 10
6.124539
 20
6.789293
 30
0.0
 10
6.181620
 20
6.779298
 30
0.0
 10
6.093540
 20
6.777160
 30
0.0
 10
6.062007
 20
6.746511
 30
0.0
 10
6.032722
 20
6.705045
 30
0.0
 10
6.030743
 20
6.662536
 30
0.0
 10
6.035161
 20
6.631998
 30
0.0
 10
6.054211
 20
6.609669
 30
0.0
 10
6.030438
 20
6.588961
 30
0.0
 10
6.023059
 20
6.554176
 30
0.0
 10
6.023579
 20
6.507877
 30
0.0
 10
6.049210
 20
6.465688
 30
0.0
 10
6.088682
 20
6.435330
 30
0.0
 10
6.121184
 20
6.430297
 30
0.0
 10
6.137799
 20
6.427725
 30
0.0
 11
5.650536
 21
6.908768
 31
0.0
 11
5.704984
 21
6.902163
 31
0.0
 11
5.777862
 21
6.902931
 31
0.0
 11
5.864103
 21
6.917061
 31
0.0
 11
5.937826
 21
6.942250
 31
0.0
 11
5.996343
 21
6.972046
 31
0.0
 11
6.038273
 21
7.000000
 31
0.0
 11
6.031208
 21
6.971586
 31
0.0
 11
6.030133
 21
6.912300
 31
0.0
 11
6.059008
 21
6.842417
 31
0.0
 11
6.097252
 21
6.807014
 31
0.0
 11
6.134113
 21
6.788660
 31
0.0
 11
6.158534
 21
6.782286
 31
0.0
 11
6.104240
 21
6.771919
 31
0.0
 11
6.061465
 21
6.743582
 31
0.0
 11
6.036200
 21
6.701422
 31
0.0
 11
6.032053
 21
6.660260
 31
0.0
 11
6.040347
 21
6.627852
 31
0.0
 11
6.048641
 21
6.610189
 31
0.0
 11
6.037736
 21
6.593525
 31
0.0
 11
6.024988
 21
6.557047
 31
0.0
 11
6.027906
 21
6.508590
 31
0.0
 11
6.051328
 21
6.467812
 31
0.0
 11
6.089495
 21
6.439474
 31
0.0
 11
6.137799
 21
6.427725
 31
0.0
  0
SPLINE
  5
108
100
AcDbEntity
  8
0
 62
7
100
AcDbSpline
 70
0
 71
3
 72
16
 73
12
 74
10
 40
0.000000
 40
0.000000
 40
0.000000
 40
0.000000
 40
0.049565
 40
0.109804
 40
0.179967
 40
0.232620
 40
0.292709
 40
0.359661
 40
0.398711
 40
0.432554
 40
0.458831
 40
0.458831
 40
0.458831
 40
0.458831
 10
6.137799
 20
6.427725
 30
0.0
 10
6.123119
 20
6.420109
 30
0.0
 10
6.090598
 20
6.403238
 30
0.0
 10
6.042534
 20
6.366634
 30
0.0
 10
6.001731
 20
6.320927
 30
0.0
 10
5.965750
 20
6.271623
 30
0.0
 10
5.939003
 20
6.217358
 30
0.0
 10
5.931497
 20
6.161074
 30
0.0
 10
5.939609
 20
6.114796
 30
0.0
 10
5.951858
 20
6.083911
 30
0.0
 10
5.961492
 20
6.066332
 30
0.0
 10
5.965702
 20
6.058649
 30
0.0
 11
6.137799
 21
6.427725
 31
0.0
 11
6.094410
 21
6.403765
 31
0.0
 11
6.046414
 21
6.367364
 31
0.0
 11
5.998878
 21
6.315758
 31
0.0
 11
5.968390
 21
6.272830
 31
0.0
 11
5.942971
 21
6.218382
 31
0.0
 11
5.934600
 21
6.151955
 31
0.0
 11
5.941282
 21
6.113481
 31
0.0
 11
5.953492
 21
6.081918
 31
0.0
 11
5.965702
 21
6.058649
 31
0.0
  0
SPLINE
  5
109
100
AcDbEntity
  8
0
 62
7
100
AcDbSpline
 70
0
 71
3
 72
28
 73
24
 74
22
 40
0.000000
 40
0.000000
 40
0.000000
 40
0.000000
 40
0.100556
 40
0.184818
 40
0.254996
 40
0.311833
 40
0.361882
 40
0.389510
 40
0.431569
 40
0.489694
 40
0.551438
 40
0.570790
 40
0.606583
 40
0.673132
 40
0.732605
 40
0.784013
 40
0.827053
 40
0.861553
 40
0.914060
 40
0.980036
 40
1.059908
 40
1.121486
 40
1.158425
 40
1.158425
 40
1.158425
 40
1.158425
 10
5.965702
 20
6.058649
 30
0.0
 10
5.931851
 20
6.062884
 30
0.0
 10
5.869634
 20
6.070667
 30
0.0
 10
5.788590
 20
6.034006
 30
0.0
 10
5.744238
 20
5.971606
 30
0.0
 10
5.755921
 20
5.908703
 30
0.0
 10
5.772615
 20
5.872180
 30
0.0
 10
5.817441
 20
5.838079
 30
0.0
 10
5.746976
 20
5.835440
 30
0.0
 10
5.710419
 20
5.807620
 30
0.0
 10
5.673901
 20
5.772221
 30
0.0
 10
5.664349
 20
5.733934
 30
0.0
 10
5.667667
 20
5.693001
 30
0.0
 10
5.675897
 20
5.640213
 30
0.0
 10
5.691153
 20
5.581484
 30
0.0
 10
5.697374
 20
5.534712
 30
0.0
 10
5.728309
 20
5.485150
 30
0.0
 10
5.674890
 20
5.470984
 30
0.0
 10
5.640867
 20
5.436172
 30
0.0
 10
5.596693
 20
5.385016
 30
0.0
 10
5.571758
 20
5.319342
 30
0.0
 10
5.564123
 20
5.259663
 30
0.0
 10
5.568158
 20
5.226999
 30
0.0
 10
5.569671
 20
5.214751
 30
0.0
 11
5.965702
 21
6.058649
 31
0.0
 11
5.865178
 21
6.061183
 31
0.0
 11
5.789074
 21
6.025013
 31
0.0
 11
5.752136
 21
5.965343
 31
0.0
 11
5.758126
 21
5.908822
 31
0.0
 11
5.783468
 21
5.865664
 31
0.0
 11
5.801899
 21
5.845083
 31
0.0
 11
5.761582
 21
5.833103
 31
0.0
 11
5.710206
 21
5.805917
 31
0.0
 11
5.671271
 21
5.757997
 31
0.0
 11
5.666433
 21
5.739259
 31
0.0
 11
5.667124
 21
5.703473
 31
0.0
 11
5.677491
 21
5.637737
 31
0.0
 11
5.690393
 21
5.579680
 31
0.0
 11
5.703294
 21
5.529917
 31
0.0
 11
5.714814
 21
5.488448
 31
0.0
 11
5.684864
 21
5.471322
 31
0.0
 11
5.643855
 21
5.438531
 31
0.0
 11
5.602847
 21
5.386848
 31
0.0
 11
5.573050
 21
5.312741
 31
0.0
 11
5.566293
 21
5.251536
 31
0.0
 11
5.569671
 21
5.214751
 31
0.0
  0
SPLINE
  5
10a
100
AcDbEntity
  8
0
 62
7
100
AcDbSpline
 70
0
 71
3
 72
106
 73
102
 74
100
 40
0.000000
 40
0.000000
 40
0.000000
 40
0.000000
 40
0.071692
 40
0.136217
 40
0.196331
 40
0.250891
 40
0.295649
 40
0.319424
 40
0.397306
 40
0.455761
 40
0.499143
 40
0.535182
 40
0.586423
 40
0.675792
 40
0.714672
 40
0.747585
 40
0.774103
 40
0.813852
 40
0.851827
 40
0.889539
 40
0.930798
 40
0.970909
 40
1.008481
 40
1.052707
 40
1.088451
 40
1.106619
 40
1.171635
 40
1.228677
 40
1.277446
 40
1.332814
 40
1.369017
 40
1.396690
 40
1.426404
 40
1.451214
 40
1.471999
 40
1.488718
 40
1.508704
 40
1.533054
 40
1.570077
 40
1.613498
 40
1.666002
 40
1.734261
 40
1.773750
 40
1.806435
 40
1.835672
 40
1.864268
 40
1.906560
 40
1.934440
 40
1.952661
 40
1.976346
 40
2.036145
 40
2.081199
 40
2.124539
 40
2.166008
 40
2.198594
 40
2.224635
 40
2.251341
 40
2.290568
 40
2.349683
 40
2.373456
 40
2.394898
 40
2.416923
 40
2.447605
 40
2.475360
 40
2.507732
 40
2.560196
 40
2.614722
 40
2.667034
 40
2.704807
 40
2.743604
 40
2.798020
 40
2.821068
 40
2.839860
 40
2.854776
 40
2.874504
 40
2.898728
 40
2.926737
 40
2.958316
 40
2.981464
 40
3.005802
 40
3.034681
 40
3.056468
 40
3.083501
 40
3.122156
 40
3.154322
 40
3.192555
 40
3.242820
 40
3.285623
 40
3.309453
 40
3.327847
 40
3.338524
 40
3.349598
 40
3.382930
 40
3.425427
 40
3.485561
 40
3.519793
 40
3.560228
 40
3.603895
 40
3.639791
 40
3.683873
 40
3.737896
 40
3.737896
 40
3.737896
 40
3.737896
 10
5.569671
 20
5.214751
 30
0.0
 10
5.545581
 20
5.217862
 30
0.0
 10
5.499807
 20
5.223774
 30
0.0
 10
5.437074
 20
5.196514
 30
0.0
 10
5.396707
 20
5.148339
 30
0.0
 10
5.392490
 20
5.092361
 30
0.0
 10
5.400456
 20
5.054045
 30
0.0
 10
5.436394
 20
5.006054
 30
0.0
 10
5.337351
 20
5.019149
 30
0.0
 10
5.294641
 20
4.987123
 30
0.0
 10
5.256515
 20
4.958792
 30
0.0
 10
5.231932
 20
4.922487
 30
0.0
 10
5.207543
 20
4.868646
 30
0.0
 10
5.181275
 20
4.815827
 30
0.0
 10
5.157054
 20
4.766046
 30
0.0
 10
5.140723
 20
4.741743
 30
0.0
 10
5.127789
 20
4.697154
 30
0.0
 10
5.099557
 20
4.747261
 30
0.0
 10
5.061730
 20
4.750602
 30
0.0
 10
5.021706
 20
4.745465
 30
0.0
 10
4.990420
 20
4.716307
 30
0.0
 10
4.980467
 20
4.676819
 30
0.0
 10
4.982116
 20
4.635337
 30
0.0
 10
5.003660
 20
4.600298
 30
0.0
 10
5.027870
 20
4.579411
 30
0.0
 10
5.071360
 20
4.565632
 30
0.0
 10
5.019381
 20
4.508570
 30
0.0
 10
5.006144
 20
4.461004
 30
0.0
 10
4.979341
 20
4.412130
 30
0.0
 10
4.958277
 20
4.371199
 30
0.0
 10
4.935965
 20
4.337318
 30
0.0
 10
4.908200
 20
4.320971
 30
0.0
 10
4.880316
 20
4.317922
 30
0.0
 10
4.855573
 20
4.320706
 30
0.0
 10
4.834039
 20
4.311688
 30
0.0
 10
4.829305
 20
4.291135
 30
0.0
 10
4.835564
 20
4.271681
 30
0.0
 10
4.835000
 20
4.243873
 30
0.0
 10
4.818060
 20
4.211462
 30
0.0
 10
4.781469
 20
4.185190
 30
0.0
 10
4.733840
 20
4.158700
 30
0.0
 10
4.685972
 20
4.134190
 30
0.0
 10
4.639581
 20
4.124197
 30
0.0
 10
4.612439
 20
4.101549
 30
0.0
 10
4.600230
 20
4.073205
 30
0.0
 10
4.595523
 20
4.040031
 30
0.0
 10
4.581474
 20
4.009793
 30
0.0
 10
4.565896
 20
3.984614
 30
0.0
 10
4.549479
 20
3.968016
 30
0.0
 10
4.529410
 20
3.940576
 30
0.0
 10
4.514614
 20
3.898645
 30
0.0
 10
4.515829
 20
3.849164
 30
0.0
 10
4.499807
 20
3.806556
 30
0.0
 10
4.464352
 20
3.783956
 30
0.0
 10
4.431836
 20
3.780467
 30
0.0
 10
4.404931
 20
3.760781
 30
0.0
 10
4.415040
 20
3.727029
 30
0.0
 10
4.438727
 20
3.694330
 30
0.0
 10
4.451607
 20
3.654464
 30
0.0
 10
4.459680
 20
3.620757
 30
0.0
 10
4.462256
 20
3.598346
 30
0.0
 10
4.459034
 20
3.573544
 30
0.0
 10
4.445808
 20
3.549064
 30
0.0
 10
4.422178
 20
3.529961
 30
0.0
 10
4.396044
 20
3.502365
 30
0.0
 10
4.381817
 20
3.456146
 30
0.0
 10
4.382750
 20
3.402910
 30
0.0
 10
4.396600
 20
3.354949
 30
0.0
 10
4.427278
 20
3.323479
 30
0.0
 10
4.464446
 20
3.300321
 30
0.0
 10
4.490052
 20
3.270479
 30
0.0
 10
4.507875
 20
3.243567
 30
0.0
 10
4.516033
 20
3.226904
 30
0.0
 10
4.525642
 20
3.210429
 30
0.0
 10
4.516037
 20
3.191148
 30
0.0
 10
4.509645
 20
3.168583
 30
0.0
 10
4.495313
 20
3.144110
 30
0.0
 10
4.479254
 20
3.121746
 30
0.0
 10
4.460715
 20
3.102769
 30
0.0
 10
4.448465
 20
3.080231
 30
0.0
 10
4.441892
 20
3.055331
 30
0.0
 10
4.446581
 20
3.029539
 30
0.0
 10
4.442662
 20
3.000180
 30
0.0
 10
4.425321
 20
2.970528
 30
0.0
 10
4.393444
 20
2.951866
 30
0.0
 10
4.370413
 20
2.916798
 30
0.0
 10
4.366409
 20
2.871771
 30
0.0
 10
4.374254
 20
2.833316
 30
0.0
 10
4.384663
 20
2.806922
 30
0.0
 10
4.392702
 20
2.791115
 30
0.0
 10
4.401688
 20
2.780954
 30
0.0
 10
4.407004
 20
2.762897
 30
0.0
 10
4.400652
 20
2.732790
 30
0.0
 10
4.372126
 20
2.697125
 30
0.0
 10
4.346942
 20
2.659172
 30
0.0
 10
4.322164
 20
2.621670
 30
0.0
 10
4.303217
 20
2.586948
 30
0.0
 10
4.290009
 20
2.548962
 30
0.0
 10
4.282554
 20
2.508306
 30
0.0
 10
4.282168
 20
2.463292
 30
0.0
 10
4.288780
 20
2.431186
 30
0.0
 10
4.292420
 20
2.413507
 30
0.0
 11
5.569671
 21
5.214751
 31
0.0
 11
5.498022
 21
5.217208
 31
0.0
 11
5.438813
 21
5.191559
 31
0.0
 11
5.401721
 21
5.144253
 31
0.0
 11
5.394963
 21
5.090113
 31
0.0
 11
5.407097
 21
5.047031
 31
0.0
 11
5.418309
 21
5.026066
 31
0.0
 11
5.342282
 21
5.009171
 31
0.0
 11
5.289754
 21
4.983522
 31
0.0
 11
5.256579
 21
4.955569
 31
0.0
 11
5.235537
 21
4.926310
 31
0.0
 11
5.212652
 21
4.880463
 31
0.0
 11
5.173641
 21
4.800059
 31
0.0
 11
5.155824
 21
4.765501
 31
0.0
 11
5.140312
 21
4.736473
 31
0.0
 11
5.128025
 21
4.712974
 31
0.0
 11
5.097921
 21
4.738930
 31
0.0
 11
5.061367
 21
4.749221
 31
0.0
 11
5.024352
 21
4.742002
 31
0.0
 11
4.993864
 21
4.714202
 31
0.0
 11
4.982268
 21
4.675805
 31
0.0
 11
4.984956
 21
4.638329
 31
0.0
 11
5.006766
 21
4.599855
 31
0.0
 11
5.035026
 21
4.577968
 31
0.0
 11
5.051307
 21
4.569905
 31
0.0
 11
5.026579
 21
4.509775
 31
0.0
 11
5.002772
 21
4.457938
 31
0.0
 11
4.980809
 21
4.414396
 31
0.0
 11
4.954161
 21
4.365861
 31
0.0
 11
4.932121
 21
4.337140
 31
0.0
 11
4.908238
 21
4.323163
 31
0.0
 11
4.878825
 21
4.318940
 31
0.0
 11
4.854021
 21
4.318402
 31
0.0
 11
4.835667
 21
4.308649
 31
0.0
 11
4.830982
 21
4.292599
 31
0.0
 11
4.834131
 21
4.272863
 31
0.0
 11
4.833593
 21
4.248519
 31
0.0
 11
4.817159
 21
4.215343
 31
0.0
 11
4.783677
 21
4.187697
 31
0.0
 11
4.738214
 21
4.161433
 31
0.0
 11
4.676010
 21
4.133327
 31
0.0
 11
4.638688
 21
4.120425
 31
0.0
 11
4.613807
 21
4.099230
 31
0.0
 11
4.601443
 21
4.072735
 31
0.0
 11
4.595069
 21
4.044859
 31
0.0
 11
4.578558
 21
4.005924
 31
0.0
 11
4.563199
 21
3.982655
 31
0.0
 11
4.551065
 21
3.969062
 31
0.0
 11
4.537089
 21
3.949941
 31
0.0
 11
4.517122
 21
3.893573
 31
0.0
 11
4.512821
 21
3.848725
 31
0.0
 11
4.495619
 21
3.808945
 31
0.0
 11
4.461138
 21
3.785907
 31
0.0
 11
4.429883
 21
3.776691
 31
0.0
 11
4.410608
 21
3.759182
 31
0.0
 11
4.414524
 21
3.732765
 31
0.0
 11
4.433646
 21
3.698514
 31
0.0
 11
4.454150
 21
3.643069
 31
0.0
 11
4.459372
 21
3.619877
 31
0.0
 11
4.461369
 21
3.598528
 31
0.0
 11
4.458297
 21
3.576718
 31
0.0
 11
4.443783
 21
3.549686
 31
0.0
 11
4.423739
 21
3.530487
 31
0.0
 11
4.402314
 21
3.506220
 31
0.0
 11
4.384804
 21
3.456764
 31
0.0
 11
4.385265
 21
3.402240
 31
0.0
 11
4.402314
 21
3.352784
 31
0.0
 11
4.427886
 21
3.324984
 31
0.0
 11
4.458988
 21
3.301792
 31
0.0
 11
4.495619
 21
3.261552
 31
0.0
 11
4.508137
 21
3.242200
 31
0.0
 11
4.516968
 21
3.225612
 31
0.0
 11
4.522574
 21
3.211789
 31
0.0
 11
4.517429
 21
3.192744
 31
0.0
 11
4.509058
 21
3.170013
 31
0.0
 11
4.495619
 21
3.145438
 31
0.0
 11
4.476881
 21
3.120019
 31
0.0
 11
4.461830
 21
3.102433
 31
0.0
 11
4.450003
 21
3.081161
 31
0.0
 11
4.443706
 21
3.052977
 31
0.0
 11
4.445242
 21
3.031244
 31
0.0
 11
4.441709
 21
3.004443
 31
0.0
 11
4.421743
 21
2.971344
 31
0.0
 11
4.396708
 21
2.951147
 31
0.0
 11
4.375359
 21
2.919431
 31
0.0
 11
4.368831
 21
2.869591
 31
0.0
 11
4.377048
 21
2.827585
 31
0.0
 11
4.385726
 21
2.805391
 31
0.0
 11
4.394711
 21
2.789341
 31
0.0
 11
4.400931
 21
2.780663
 31
0.0
 11
4.404387
 21
2.770142
 31
0.0
 11
4.399319
 21
2.737197
 31
0.0
 11
4.376280
 21
2.701487
 31
0.0
 11
4.342183
 21
2.651955
 31
0.0
 11
4.323676
 21
2.623157
 31
0.0
 11
4.304707
 21
2.587447
 31
0.0
 11
4.290347
 21
2.546208
 31
0.0
 11
4.283973
 21
2.510883
 31
0.0
 11
4.283589
 21
2.466803
 31
0.0
 11
4.292420
 21
2.413507
 31
0.0
  0
SPLINE
  5
10b
100
AcDbEntity
  8
0
 62
7
100
AcDbSpline
 70
0
 71
3
 72
91
 73
87
 74
85
 40
0.000000
 40
0.000000
 40
0.000000
 40
0.000000
 40
0.041569
 40
0.075606
 40
0.103288
 40
0.133643
 40
0.165552
 40
0.187214
 40
0.205975
 40
0.231348
 40
0.277877
 40
0.299909
 40
0.318343
 40
0.332637
 40
0.356846
 40
0.388691
 40
0.425715
 40
0.508016
 40
0.585524
 40
0.645270
 40
0.657898
 40
0.678174
 40
0.709293
 40
0.729352
 40
0.754879
 40
0.784466
 40
0.835577
 40
0.878563
 40
0.912810
 40
0.962535
 40
1.009996
 40
1.060290
 40
1.117888
 40
1.148624
 40
1.170627
 40
1.207276
 40
1.253570
 40
1.321930
 40
1.360034
 40
1.392476
 40
1.424348
 40
1.634856
 40
1.844306
 40
1.990908
 40
2.014153
 40
2.027777
 40
2.032221
 40
2.079114
 40
2.105468
 40
2.124860
 40
2.150137
 40
2.174721
 40
2.207635
 40
2.233264
 40
2.274199
 40
2.355898
 40
2.438642
 40
2.484389
 40
2.511283
 40
2.535861
 40
2.557530
 40
2.574876
 40
2.595535
 40
2.626070
 40
2.666936
 40
2.703620
 40
2.735741
 40
2.763396
 40
2.774216
 40
2.794045
 40
2.820624
 40
2.831216
 40
2.849663
 40
2.872313
 40
2.900270
 40
2.932629
 40
2.969229
 40
2.989066
 40
3.023608
 40
3.064416
 40
3.075371
 40
3.090665
 40
3.107534
 40
3.132969
 40
3.163399
 40
3.199680
 40
3.199680
 40
3.199680
 40
3.199680
 10
4.292420
 20
2.413507
 30
0.0
 10
4.279811
 20
2.419588
 30
0.0
 10
4.256877
 20
2.430647
 30
0.0
 10
4.221932
 20
2.432728
 30
0.0
 10
4.190734
 20
2.420286
 30
0.0
 10
4.182925
 20
2.387738
 30
0.0
 10
4.188732
 20
2.360520
 30
0.0
 10
4.196066
 20
2.337427
 30
0.0
 10
4.206595
 20
2.318053
 30
0.0
 10
4.225789
 20
2.294518
 30
0.0
 10
4.245654
 20
2.270887
 30
0.0
 10
4.264374
 20
2.247606
 30
0.0
 10
4.273751
 20
2.234302
 30
0.0
 10
4.291871
 20
2.215692
 30
0.0
 10
4.253426
 20
2.215795
 30
0.0
 10
4.231568
 20
2.199998
 30
0.0
 10
4.188629
 20
2.169458
 30
0.0
 10
4.163078
 20
2.104465
 30
0.0
 10
4.162169
 20
2.031915
 30
0.0
 10
4.187334
 20
1.980128
 30
0.0
 10
4.217948
 20
1.970957
 30
0.0
 10
4.236730
 20
1.968579
 30
0.0
 10
4.275255
 20
1.990265
 30
0.0
 10
4.252754
 20
1.958950
 30
0.0
 10
4.246814
 20
1.938093
 30
0.0
 10
4.237518
 20
1.902437
 30
0.0
 10
4.240172
 20
1.860856
 30
0.0
 10
4.253610
 20
1.819848
 30
0.0
 10
4.273611
 20
1.782469
 30
0.0
 10
4.299147
 20
1.746560
 30
0.0
 10
4.334780
 20
1.712431
 30
0.0
 10
4.375069
 20
1.679934
 30
0.0
 10
4.411673
 20
1.651608
 30
0.0
 10
4.445039
 20
1.635088
 30
0.0
 10
4.463352
 20
1.609586
 30
0.0
 10
4.458734
 20
1.571852
 30
0.0
 10
4.433267
 20
1.528670
 30
0.0
 10
4.416071
 20
1.480112
 30
0.0
 10
4.407045
 20
1.434654
 30
0.0
 10
4.404279
 20
1.400551
 30
0.0
 10
4.405379
 20
1.308902
 30
0.0
 10
4.377340
 20
1.159161
 30
0.0
 10
4.344264
 20
0.976058
 30
0.0
 10
4.328428
 20
0.845565
 30
0.0
 10
4.348180
 20
0.787446
 30
0.0
 10
4.352288
 20
0.774312
 30
0.0
 10
4.359008
 20
0.753726
 30
0.0
 10
4.368547
 20
0.729596
 30
0.0
 10
4.381073
 20
0.701410
 30
0.0
 10
4.387563
 20
0.678370
 30
0.0
 10
4.383202
 20
0.654386
 30
0.0
 10
4.365801
 20
0.632610
 30
0.0
 10
4.352367
 20
0.608187
 30
0.0
 10
4.343607
 20
0.575750
 30
0.0
 10
4.347760
 20
0.525973
 30
0.0
 10
4.352652
 20
0.457835
 30
0.0
 10
4.357264
 20
0.388372
 30
0.0
 10
4.360910
 20
0.335665
 30
0.0
 10
4.344892
 20
0.305109
 30
0.0
 10
4.320728
 20
0.295086
 30
0.0
 10
4.299679
 20
0.296714
 30
0.0
 10
4.279972
 20
0.284852
 30
0.0
 10
4.283834
 20
0.258700
 30
0.0
 10
4.300940
 20
0.233929
 30
0.0
 10
4.315976
 20
0.201442
 30
0.0
 10
4.324461
 20
0.162710
 30
0.0
 10
4.324415
 20
0.139333
 30
0.0
 10
4.324507
 20
0.093246
 30
0.0
 10
4.315549
 20
0.118003
 30
0.0
 10
4.304227
 20
0.131042
 30
0.0
 10
4.287201
 20
0.141772
 30
0.0
 10
4.269496
 20
0.147229
 30
0.0
 10
4.251963
 20
0.148050
 30
0.0
 10
4.229347
 20
0.140184
 30
0.0
 10
4.212039
 20
0.115455
 30
0.0
 10
4.204884
 20
0.089720
 30
0.0
 10
4.221140
 20
0.033819
 30
0.0
 10
4.213138
 20
0.078107
 30
0.0
 10
4.201284
 20
0.102347
 30
0.0
 10
4.179064
 20
0.124340
 30
0.0
 10
4.159106
 20
0.134356
 30
0.0
 10
4.144948
 20
0.137820
 30
0.0
 10
4.125190
 20
0.135751
 30
0.0
 10
4.105528
 20
0.119258
 30
0.0
 10
4.092275
 20
0.090608
 30
0.0
 10
4.091640
 20
0.068181
 30
0.0
 10
4.091295
 20
0.055983
 30
0.0
 11
4.292420
 21
2.413507
 31
0.0
 11
4.253793
 21
2.428866
 31
0.0
 11
4.219772
 21
2.429941
 31
0.0
 11
4.194968
 21
2.417654
 31
0.0
 11
4.185368
 21
2.388856
 31
0.0
 11
4.190053
 21
2.357293
 31
0.0
 11
4.197041
 21
2.336789
 31
0.0
 11
4.205949
 21
2.320278
 31
0.0
 11
4.221308
 21
2.300081
 31
0.0
 11
4.250951
 21
2.264218
 31
0.0
 11
4.264621
 21
2.246939
 31
0.0
 11
4.275986
 21
2.232425
 31
0.0
 11
4.284126
 21
2.220675
 31
0.0
 11
4.260858
 21
2.213994
 31
0.0
 11
4.232060
 21
2.200401
 31
0.0
 11
4.203262
 21
2.177133
 31
0.0
 11
4.167782
 21
2.102872
 31
0.0
 11
4.169625
 21
2.025386
 31
0.0
 11
4.203262
 21
1.976007
 31
0.0
 11
4.215242
 21
1.972014
 31
0.0
 11
4.235515
 21
1.971706
 31
0.0
 11
4.265465
 21
1.980154
 31
0.0
 11
4.256250
 21
1.962337
 31
0.0
 11
4.247035
 21
1.938531
 31
0.0
 11
4.240584
 21
1.909656
 31
0.0
 11
4.242657
 21
1.858588
 31
0.0
 11
4.255789
 21
1.817656
 31
0.0
 11
4.271686
 21
1.787322
 31
0.0
 11
4.300791
 21
1.747005
 31
0.0
 11
4.334504
 21
1.713599
 31
0.0
 11
4.373285
 21
1.681576
 31
0.0
 11
4.420207
 21
1.648170
 31
0.0
 11
4.445933
 21
1.631352
 31
0.0
 11
4.458297
 21
1.613152
 31
0.0
 11
4.457145
 21
1.576520
 31
0.0
 11
4.438023
 21
1.534360
 31
0.0
 11
4.414754
 21
1.470083
 31
0.0
 11
4.407459
 21
1.432684
 31
0.0
 11
4.404771
 21
1.400353
 31
0.0
 11
4.404387
 21
1.368483
 31
0.0
 11
4.377663
 21
1.159678
 31
0.0
 11
4.342644
 21
0.953177
 31
0.0
 11
4.342183
 21
0.806576
 31
0.0
 11
4.349095
 21
0.784382
 31
0.0
 11
4.353242
 21
0.771404
 31
0.0
 11
4.354624
 21
0.767180
 31
0.0
 11
4.371442
 21
0.723407
 31
0.0
 11
4.381349
 21
0.698986
 31
0.0
 11
4.385726
 21
0.680095
 31
0.0
 11
4.381272
 21
0.655213
 31
0.0
 11
4.368063
 21
0.634479
 31
0.0
 11
4.352551
 21
0.605450
 31
0.0
 11
4.346100
 21
0.580645
 31
0.0
 11
4.346561
 21
0.539714
 31
0.0
 11
4.352551
 21
0.458234
 31
0.0
 11
4.358157
 21
0.375680
 31
0.0
 11
4.355930
 21
0.329987
 31
0.0
 11
4.342183
 21
0.306872
 31
0.0
 11
4.319759
 21
0.296812
 31
0.0
 11
4.298257
 21
0.294124
 31
0.0
 11
4.284126
 21
0.284064
 31
0.0
 11
4.284357
 21
0.263406
 31
0.0
 11
4.298410
 21
0.236297
 31
0.0
 11
4.315228
 21
0.199052
 31
0.0
 11
4.323292
 21
0.163266
 31
0.0
 11
4.324444
 21
0.131165
 31
0.0
 11
4.321449
 21
0.103673
 31
0.0
 11
4.316764
 21
0.113426
 31
0.0
 11
4.304707
 21
0.129169
 31
0.0
 11
4.282053
 21
0.143069
 31
0.0
 11
4.271916
 21
0.146140
 31
0.0
 11
4.253485
 21
0.146908
 31
0.0
 11
4.232290
 21
0.138922
 31
0.0
 11
4.214704
 21
0.117189
 31
0.0
 11
4.209098
 21
0.085319
 31
0.0
 11
4.217776
 21
0.049763
 31
0.0
 11
4.214166
 21
0.069269
 31
0.0
 11
4.199959
 21
0.100755
 31
0.0
 11
4.170086
 21
0.128554
 31
0.0
 11
4.160256
 21
0.133392
 31
0.0
 11
4.145358
 21
0.136848
 31
0.0
 11
4.128617
 21
0.134775
 31
0.0
 11
4.108343
 21
0.119416
 31
0.0
 11
4.094981
 21
0.092077
 31
0.0
 11
4.091295
 21
0.055983
 31
0.0
  0
SPLINE
  5
10c
100
AcDbEntity
  8
0
 62
7
100
AcDbSpline
 70
0
 71
3
 72
22
 73
18
 74
16
 40
0.000000
 40
0.000000
 40
0.000000
 40
0.000000
 40
0.045622
 40
0.082400
 40
0.111365
 40
0.139276
 40
0.160284
 40
0.176983
 40
0.197233
 40
0.219975
 40
0.242723
 40
0.263158
 40
0.286591
 40
0.317579
 40
0.350953
 40
0.395926
 40
0.451587
 40
0.451587
 40
0.451587
 40
0.451587
 10
4.091295
 20
0.055983
 30
0.0
 10
4.083065
 20
0.068806
 30
0.0
 10
4.068200
 20
0.091965
 30
0.0
 10
4.054377
 20
0.126679
 30
0.0
 10
4.047422
 20
0.157167
 30
0.0
 10
4.043794
 20
0.182905
 30
0.0
 10
4.042549
 20
0.204764
 30
0.0
 10
4.031873
 20
0.222901
 30
0.0
 10
4.010102
 20
0.225737
 30
0.0
 10
3.989002
 20
0.219892
 30
0.0
 10
3.970069
 20
0.207182
 30
0.0
 10
3.959997
 20
0.186201
 30
0.0
 10
3.961254
 20
0.160842
 30
0.0
 10
3.964735
 20
0.131922
 30
0.0
 10
3.970340
 20
0.095859
 30
0.0
 10
3.976329
 20
0.051610
 30
0.0
 10
3.980930
 20
0.018380
 30
0.0
 10
3.983475
 20
-0.000000
 30
0.0
 11
4.091295
 21
0.055983
 31
0.0
 11
4.068026
 21
0.095225
 31
0.0
 11
4.054433
 21
0.129399
 31
0.0
 11
4.047752
 21
0.157583
 31
0.0
 11
4.043912
 21
0.185229
 31
0.0
 11
4.040533
 21
0.205964
 31
0.0
 11
4.031164
 21
0.219787
 31
0.0
 11
4.011428
 21
0.224318
 31
0.0
 11
3.989388
 21
0.218711
 31
0.0
 11
3.971034
 21
0.205272
 31
0.0
 11
3.962049
 21
0.186918
 31
0.0
 11
3.961358
 21
0.163496
 31
0.0
 11
3.964814
 21
0.132701
 31
0.0
 11
3.969652
 21
0.099680
 31
0.0
 11
3.975872
 21
0.055139
 31
0.0
 11
3.983475
 21
-0.000000
 31
0.0
  0
SPLINE
  5
10d
100
AcDbEntity
  8
0
 62
7
100
AcDbSpline
 70
0
 71
3
 72
148
 73
144
 74
142
 40
0.000000
 40
0.000000
 40
0.000000
 40
0.000000
 40
0.091352
 40
0.160428
 40
0.201954
 40
0.236270
 40
0.261263
 40
0.270957
 40
0.318881
 40
0.405989
 40
0.501401
 40
0.624859
 40
0.750747
 40
0.854993
 40
0.886712
 40
0.915080
 40
0.933132
 40
0.975580
 40
1.012796
 40
1.056849
 40
1.096166
 40
1.137330
 40
1.223396
 40
1.296865
 40
1.343820
 40
1.366417
 40
1.405866
 40
1.427987
 40
1.455656
 40
1.522983
 40
1.571409
 40
1.626343
 40
1.670157
 40
1.704614
 40
1.757025
 40
1.813949
 40
1.856368
 40
1.905987
 40
1.940109
 40
1.968619
 40
2.017052
 40
2.088435
 40
2.150236
 40
2.188828
 40
2.227981
 40
2.260140
 40
2.286267
 40
2.292534
 40
2.304285
 40
2.318253
 40
2.337522
 40
2.361480
 40
2.391830
 40
2.467379
 40
2.540939
 40
2.619300
 40
2.646690
 40
2.661601
 40
2.681169
 40
2.751059
 40
2.821084
 40
2.888947
 40
2.922545
 40
2.950472
 40
2.980868
 40
3.067466
 40
3.148177
 40
3.260420
 40
3.400948
 40
3.518641
 40
3.589039
 40
3.597077
 40
3.608435
 40
3.622214
 40
3.649252
 40
3.675751
 40
3.697908
 40
3.739630
 40
3.782271
 40
3.829927
 40
3.863598
 40
3.883275
 40
3.899238
 40
3.920912
 40
3.946413
 40
3.987135
 40
4.018699
 40
4.057372
 40
4.085043
 40
4.099041
 40
4.114152
 40
4.128150
 40
4.143585
 40
4.161184
 40
4.180173
 40
4.203615
 40
4.247309
 40
4.299969
 40
4.312563
 40
4.331808
 40
4.356090
 40
4.383024
 40
4.404392
 40
4.417020
 40
4.434159
 40
4.461762
 40
4.495312
 40
4.504443
 40
4.516955
 40
4.531414
 40
4.553355
 40
4.578102
 40
4.605865
 40
4.633244
 40
4.666714
 40
4.706036
 40
4.778846
 40
4.845401
 40
4.907595
 40
4.970792
 40
5.016605
 40
5.055706
 40
5.099135
 40
5.153120
 40
5.228682
 40
5.284844
 40
5.325397
 40
5.355963
 40
5.371721
 40
5.387394
 40
5.404864
 40
5.425677
 40
5.447395
 40
5.556685
 40
5.698528
 40
5.809558
 40
5.915747
 40
6.023400
 40
6.115305
 40
6.182176
 40
6.461969
 40
6.724163
 40
6.940696
 40
6.940696
 40
6.940696
 40
6.940696
 10
3.983475
 20
-0.000000
 30
0.0
 10
3.965534
 20
0.024621
 30
0.0
 10
3.934028
 20
0.067858
 30
0.0
 10
3.897601
 20
0.124431
 30
0.0
 10
3.871703
 20
0.165336
 30
0.0
 10
3.858532
 20
0.196365
 30
0.0
 10
3.850807
 20
0.218034
 30
0.0
 10
3.842921
 20
0.244423
 30
0.0
 10
3.834114
 20
0.292072
 30
0.0
 10
3.830376
 20
0.368683
 30
0.0
 10
3.860376
 20
0.473264
 30
0.0
 10
3.974872
 20
0.528792
 30
0.0
 10
4.088543
 20
0.533467
 30
0.0
 10
4.176586
 20
0.582371
 30
0.0
 10
4.189653
 20
0.636928
 30
0.0
 10
4.192546
 20
0.662732
 30
0.0
 10
4.193302
 20
0.692369
 30
0.0
 10
4.190500
 20
0.725110
 30
0.0
 10
4.177765
 20
0.764462
 30
0.0
 10
4.165267
 20
0.802665
 30
0.0
 10
4.158582
 20
0.843922
 30
0.0
 10
4.160639
 20
0.899534
 30
0.0
 10
4.154143
 20
0.966268
 30
0.0
 10
4.146408
 20
1.034584
 30
0.0
 10
4.139156
 20
1.081832
 30
0.0
 10
4.129100
 20
1.116760
 30
0.0
 10
4.121700
 20
1.143874
 30
0.0
 10
4.110034
 20
1.171295
 30
0.0
 10
4.099792
 20
1.209052
 30
0.0
 10
4.095714
 20
1.257415
 30
0.0
 10
4.105070
 20
1.313734
 30
0.0
 10
4.100818
 20
1.363239
 30
0.0
 10
4.083974
 20
1.405564
 30
0.0
 10
4.052611
 20
1.436626
 30
0.0
 10
4.033150
 20
1.481497
 30
0.0
 10
4.021977
 20
1.531036
 30
0.0
 10
4.021021
 20
1.580933
 30
0.0
 10
4.008061
 20
1.621682
 30
0.0
 10
3.987904
 20
1.653759
 30
0.0
 10
3.959910
 20
1.678311
 30
0.0
 10
3.930566
 20
1.718506
 30
0.0
 10
3.900935
 20
1.771344
 30
0.0
 10
3.876759
 20
1.823307
 30
0.0
 10
3.858572
 20
1.866082
 30
0.0
 10
3.846672
 20
1.900938
 30
0.0
 10
3.833082
 20
1.929977
 30
0.0
 10
3.816068
 20
1.946696
 30
0.0
 10
3.801229
 20
1.947946
 30
0.0
 10
3.790654
 20
1.948201
 30
0.0
 10
3.775340
 20
1.943612
 30
0.0
 10
3.766183
 20
1.924907
 30
0.0
 10
3.764757
 20
1.900476
 30
0.0
 10
3.769285
 20
1.857260
 30
0.0
 10
3.778141
 20
1.798202
 30
0.0
 10
3.799646
 20
1.724645
 30
0.0
 10
3.834259
 20
1.674762
 30
0.0
 10
3.862805
 20
1.646042
 30
0.0
 10
3.880893
 20
1.635706
 30
0.0
 10
3.903349
 20
1.608539
 30
0.0
 10
3.927252
 20
1.559868
 30
0.0
 10
3.934343
 20
1.489746
 30
0.0
 10
3.924204
 20
1.432778
 30
0.0
 10
3.908058
 20
1.392642
 30
0.0
 10
3.893229
 20
1.365791
 30
0.0
 10
3.870655
 20
1.323180
 30
0.0
 10
3.849681
 20
1.258783
 30
0.0
 10
3.858032
 20
1.165068
 30
0.0
 10
3.851111
 20
1.054161
 30
0.0
 10
3.821136
 20
0.931822
 30
0.0
 10
3.790913
 20
0.832630
 30
0.0
 10
3.787013
 20
0.755969
 30
0.0
 10
3.809829
 20
0.736084
 30
0.0
 10
3.816848
 20
0.727474
 30
0.0
 10
3.824325
 20
0.711477
 30
0.0
 10
3.824132
 20
0.687960
 30
0.0
 10
3.814099
 20
0.664512
 30
0.0
 10
3.797818
 20
0.639123
 30
0.0
 10
3.774028
 20
0.612343
 30
0.0
 10
3.738490
 20
0.586146
 30
0.0
 10
3.703488
 20
0.564109
 30
0.0
 10
3.674503
 20
0.547183
 30
0.0
 10
3.653520
 20
0.536890
 30
0.0
 10
3.641118
 20
0.521469
 30
0.0
 10
3.637470
 20
0.499872
 30
0.0
 10
3.643030
 20
0.471002
 30
0.0
 10
3.645938
 20
0.438615
 30
0.0
 10
3.645807
 20
0.401114
 30
0.0
 10
3.645110
 20
0.370417
 30
0.0
 10
3.633073
 20
0.339604
 30
0.0
 10
3.611636
 20
0.341809
 30
0.0
 10
3.600527
 20
0.350677
 30
0.0
 10
3.583979
 20
0.352691
 30
0.0
 10
3.572565
 20
0.339193
 30
0.0
 10
3.566540
 20
0.325391
 30
0.0
 10
3.566726
 20
0.293699
 30
0.0
 10
3.545945
 20
0.336893
 30
0.0
 10
3.519018
 20
0.354632
 30
0.0
 10
3.482614
 20
0.371766
 30
0.0
 10
3.454440
 20
0.371299
 30
0.0
 10
3.435788
 20
0.368883
 30
0.0
 10
3.413654
 20
0.359926
 30
0.0
 10
3.396271
 20
0.340896
 30
0.0
 10
3.386590
 20
0.326465
 30
0.0
 10
3.382133
 20
0.301143
 30
0.0
 10
3.373333
 20
0.332368
 30
0.0
 10
3.358753
 20
0.347658
 30
0.0
 10
3.338097
 20
0.362691
 30
0.0
 10
3.320650
 20
0.368249
 30
0.0
 10
3.308658
 20
0.370587
 30
0.0
 10
3.292315
 20
0.367260
 30
0.0
 10
3.274777
 20
0.354940
 30
0.0
 10
3.261175
 20
0.337006
 30
0.0
 10
3.260469
 20
0.292065
 30
0.0
 10
3.242557
 20
0.337451
 30
0.0
 10
3.231671
 20
0.362173
 30
0.0
 10
3.218389
 20
0.411688
 30
0.0
 10
3.215975
 20
0.470869
 30
0.0
 10
3.229637
 20
0.537419
 30
0.0
 10
3.251821
 20
0.597423
 30
0.0
 10
3.270711
 20
0.651202
 30
0.0
 10
3.292775
 20
0.695904
 30
0.0
 10
3.323888
 20
0.726566
 30
0.0
 10
3.366385
 20
0.745216
 30
0.0
 10
3.423909
 20
0.752233
 30
0.0
 10
3.485630
 20
0.756615
 30
0.0
 10
3.542837
 20
0.759646
 30
0.0
 10
3.585512
 20
0.762944
 30
0.0
 10
3.611626
 20
0.780427
 30
0.0
 10
3.618729
 20
0.800386
 30
0.0
 10
3.620285
 20
0.816717
 30
0.0
 10
3.618145
 20
0.834600
 30
0.0
 10
3.617785
 20
0.854777
 30
0.0
 10
3.631569
 20
0.903889
 30
0.0
 10
3.621141
 20
0.996230
 30
0.0
 10
3.625431
 20
1.116357
 30
0.0
 10
3.620878
 20
1.236157
 30
0.0
 10
3.612991
 20
1.344146
 30
0.0
 10
3.601504
 20
1.445441
 30
0.0
 10
3.588541
 20
1.533337
 30
0.0
 10
3.559339
 20
1.676615
 30
0.0
 10
3.491116
 20
1.869723
 30
0.0
 10
3.359759
 20
2.087438
 30
0.0
 10
3.258120
 20
2.210589
 30
0.0
 10
3.212148
 20
2.266291
 30
0.0
 11
3.983475
 21
-0.000000
 31
0.0
 11
3.930486
 21
0.074414
 31
0.0
 11
3.892703
 21
0.132241
 31
0.0
 11
3.871508
 21
0.167950
 31
0.0
 11
3.857685
 21
0.199359
 31
0.0
 11
3.849391
 21
0.222935
 31
0.0
 11
3.846626
 21
0.232227
 31
0.0
 11
3.837258
 21
0.279226
 31
0.0
 11
3.835261
 21
0.366311
 31
0.0
 11
3.867361
 21
0.456161
 31
0.0
 11
3.973415
 21
0.519363
 31
0.0
 11
4.096517
 21
0.545704
 31
0.0
 11
4.180453
 21
0.607524
 31
0.0
 11
4.189208
 21
0.638011
 31
0.0
 11
4.192433
 21
0.666195
 31
0.0
 11
4.192894
 21
0.684242
 31
0.0
 11
4.188671
 21
0.726479
 31
0.0
 11
4.178457
 21
0.762265
 31
0.0
 11
4.165939
 21
0.804502
 31
0.0
 11
4.159949
 21
0.843360
 31
0.0
 11
4.159489
 21
0.884522
 31
0.0
 11
4.153499
 21
0.970379
 31
0.0
 11
4.144821
 21
1.043334
 31
0.0
 11
4.136604
 21
1.089565
 31
0.0
 11
4.130690
 21
1.111374
 31
0.0
 11
4.119094
 21
1.149081
 31
0.0
 11
4.111185
 21
1.169738
 31
0.0
 11
4.103735
 21
1.196386
 31
0.0
 11
4.098437
 21
1.263505
 31
0.0
 11
4.102814
 21
1.311732
 31
0.0
 11
4.097515
 21
1.366410
 31
0.0
 11
4.080006
 21
1.406573
 31
0.0
 11
4.058350
 21
1.433375
 31
0.0
 11
4.035311
 21
1.480450
 31
0.0
 11
4.023101
 21
1.536050
 31
0.0
 11
4.019184
 21
1.578287
 31
0.0
 11
4.004209
 21
1.625592
 31
0.0
 11
3.985548
 21
1.654160
 31
0.0
 11
3.965505
 21
1.674434
 31
0.0
 11
3.935785
 21
1.712678
 31
0.0
 11
3.900229
 21
1.774574
 31
0.0
 11
3.873889
 21
1.830481
 31
0.0
 11
3.859067
 21
1.866114
 31
0.0
 11
3.845244
 21
1.902745
 31
0.0
 11
3.830039
 21
1.931082
 31
0.0
 11
3.809304
 21
1.946979
 31
0.0
 11
3.803084
 21
1.947746
 31
0.0
 11
3.791334
 21
1.947593
 31
0.0
 11
3.778202
 21
1.942832
 31
0.0
 11
3.768142
 21
1.926398
 31
0.0
 11
3.765454
 21
1.902591
 31
0.0
 11
3.767835
 21
1.872334
 31
0.0
 11
3.779969
 21
1.797766
 31
0.0
 11
3.802700
 21
1.727806
 31
0.0
 11
3.846626
 21
1.662915
 31
0.0
 11
3.866747
 21
1.644330
 31
0.0
 11
3.879034
 21
1.635883
 31
0.0
 11
3.892243
 21
1.621445
 31
0.0
 11
3.923191
 21
1.558781
 31
0.0
 11
3.931101
 21
1.489205
 31
0.0
 11
3.919198
 21
1.422393
 31
0.0
 11
3.906680
 21
1.391215
 31
0.0
 11
3.893702
 21
1.366487
 31
0.0
 11
3.879802
 21
1.339455
 31
0.0
 11
3.855151
 21
1.256440
 31
0.0
 11
3.855381
 21
1.175728
 31
0.0
 11
3.848700
 21
1.063685
 31
0.0
 11
3.818443
 21
0.926452
 31
0.0
 11
3.791872
 21
0.811798
 31
0.0
 11
3.803084
 21
0.742298
 31
0.0
 11
3.808843
 21
0.736692
 31
0.0
 11
3.815985
 21
0.727861
 31
0.0
 11
3.821745
 21
0.715343
 31
0.0
 11
3.822359
 21
0.688312
 31
0.0
 11
3.812837
 21
0.663584
 31
0.0
 11
3.801010
 21
0.644846
 31
0.0
 11
3.773287
 21
0.613667
 31
0.0
 11
3.739575
 21
0.587557
 31
0.0
 11
3.699411
 21
0.561907
 31
0.0
 11
3.670152
 21
0.545243
 31
0.0
 11
3.653334
 21
0.535029
 31
0.0
 11
3.643427
 21
0.522512
 31
0.0
 11
3.638897
 21
0.501316
 31
0.0
 11
3.641738
 21
0.475974
 31
0.0
 11
3.645501
 21
0.435426
 31
0.0
 11
3.645731
 21
0.403864
 31
0.0
 11
3.641815
 21
0.365390
 31
0.0
 11
3.626840
 21
0.342121
 31
0.0
 11
3.612863
 21
0.342889
 31
0.0
 11
3.599347
 21
0.349647
 31
0.0
 11
3.585371
 21
0.350415
 31
0.0
 11
3.574005
 21
0.339970
 31
0.0
 11
3.567708
 21
0.323536
 31
0.0
 11
3.564636
 21
0.304798
 31
0.0
 11
3.550966
 21
0.323844
 31
0.0
 11
3.518866
 21
0.353486
 31
0.0
 11
3.469257
 21
0.371149
 31
0.0
 11
3.456662
 21
0.371149
 31
0.0
 11
3.437617
 21
0.368385
 31
0.0
 11
3.415347
 21
0.358708
 31
0.0
 11
3.396148
 21
0.339817
 31
0.0
 11
3.386165
 21
0.320925
 31
0.0
 11
3.382172
 21
0.308945
 31
0.0
 11
3.374722
 21
0.324381
 31
0.0
 11
3.358519
 21
0.346728
 31
0.0
 11
3.330335
 21
0.364929
 31
0.0
 11
3.321657
 21
0.367770
 31
0.0
 11
3.309293
 21
0.369690
 31
0.0
 11
3.295086
 21
0.367002
 31
0.0
 11
3.276655
 21
0.355099
 31
0.0
 11
3.263754
 21
0.333980
 31
0.0
 11
3.257764
 21
0.306872
 31
0.0
 11
3.244939
 21
0.331062
 31
0.0
 11
3.232575
 21
0.362164
 31
0.0
 11
3.222515
 21
0.400178
 31
0.0
 11
3.218983
 21
0.472902
 31
0.0
 11
3.231577
 21
0.538255
 31
0.0
 11
3.251544
 21
0.597156
 31
0.0
 11
3.274044
 21
0.656211
 31
0.0
 11
3.296085
 21
0.696375
 31
0.0
 11
3.324115
 21
0.723637
 31
0.0
 11
3.363510
 21
0.741914
 31
0.0
 11
3.416729
 21
0.750976
 31
0.0
 11
3.492065
 21
0.756813
 31
0.0
 11
3.548125
 21
0.760192
 31
0.0
 11
3.588058
 21
0.767257
 31
0.0
 11
3.612326
 21
0.785841
 31
0.0
 11
3.618085
 21
0.800509
 31
0.0
 11
3.619698
 21
0.816098
 31
0.0
 11
3.618546
 21
0.833531
 31
0.0
 11
3.618776
 21
0.854342
 31
0.0
 11
3.623154
 21
0.875614
 31
0.0
 11
3.624766
 21
0.984893
 31
0.0
 11
3.623845
 21
1.126733
 31
0.0
 11
3.620159
 21
1.237702
 31
0.0
 11
3.612326
 21
1.343602
 31
0.0
 11
3.600269
 21
1.450577
 31
0.0
 11
3.586369
 21
1.541425
 31
0.0
 11
3.572930
 21
1.606931
 31
0.0
 11
3.480315
 21
1.870952
 31
0.0
 11
3.346232
 21
2.096268
 31
0.0
 11
3.212148
 21
2.266291
 31
0.0
  0
SPLINE
  5
10e
100
AcDbEntity
  8
0
 62
7
100
AcDbSpline
 70
0
 71
3
 72
13
 73
9
 74
7
 40
0.000000
 40
0.000000
 40
0.000000
 40
0.000000
 40
0.027144
 40
0.055174
 40
0.085079
 40
0.226854
 40
0.346119
 40
0.433586
 40
0.433586
 40
0.433586
 40
0.433586
 10
3.212148
 20
2.266291
 30
0.0
 10
3.212712
 20
2.275325
 30
0.0
 10
3.213858
 20
2.293686
 30
0.0
 10
3.213654
 20
2.322056
 30
0.0
 10
3.211281
 20
2.388636
 30
0.0
 10
3.181992
 20
2.483535
 30
0.0
 10
3.120907
 20
2.583481
 30
0.0
 10
3.072832
 20
2.633054
 30
0.0
 10
3.052491
 20
2.654028
 30
0.0
 11
3.212148
 21
2.266291
 31
0.0
 11
3.213530
 21
2.293400
 31
0.0
 11
3.213530
 21
2.321430
 31
0.0
 11
3.212148
 21
2.351303
 31
0.0
 11
3.173981
 21
2.487844
 31
0.0
 11
3.111393
 21
2.589367
 31
0.0
 11
3.052491
 21
2.654028
 31
0.0
  0
SPLINE
  5
10f
100
AcDbEntity
  8
0
 62
7
100
AcDbSpline
 70
0
 71
3
 72
55
 73
51
 74
49
 40
0.000000
 40
0.000000
 40
0.000000
 40
0.000000
 40
0.055383
 40
0.102109
 40
0.139980
 40
0.175539
 40
0.198832
 40
0.216010
 40
0.234365
 40
0.253472
 40
0.272250
 40
0.297573
 40
0.326628
 40
0.359211
 40
0.444649
 40
0.510260
 40
0.550141
 40
0.601594
 40
0.663545
 40
0.746314
 40
0.931493
 40
1.051404
 40
1.156615
 40
1.216843
 40
1.269595
 40
1.313386
 40
1.337985
 40
1.367059
 40
1.399546
 40
1.449604
 40
1.494493
 40
1.531907
 40
1.643966
 40
1.756357
 40
1.868708
 40
1.967314
 40
2.040543
 40
2.115572
 40
2.220661
 40
2.275392
 40
2.298993
 40
2.339571
 40
2.381547
 40
2.431448
 40
2.458909
 40
2.482488
 40
2.508382
 40
2.558073
 40
2.620390
 40
2.696648
 40
2.696648
 40
2.696648
 40
2.696648
 10
3.052491
 20
2.654028
 30
0.0
 10
3.056354
 20
2.672103
 30
0.0
 10
3.063475
 20
2.705426
 30
0.0
 10
3.066477
 20
2.752154
 30
0.0
 10
3.065266
 20
2.792174
 30
0.0
 10
3.062752
 20
2.824421
 30
0.0
 10
3.055217
 20
2.848938
 30
0.0
 10
3.042783
 20
2.864964
 30
0.0
 10
3.025259
 20
2.871985
 30
0.0
 10
3.006486
 20
2.873493
 30
0.0
 10
2.985134
 20
2.868680
 30
0.0
 10
2.968375
 20
2.848619
 30
0.0
 10
2.961596
 20
2.820115
 30
0.0
 10
2.957580
 20
2.771256
 30
0.0
 10
2.955880
 20
2.710022
 30
0.0
 10
2.957279
 20
2.646342
 30
0.0
 10
2.962084
 20
2.594243
 30
0.0
 10
2.962636
 20
2.543008
 30
0.0
 10
2.954025
 20
2.478070
 30
0.0
 10
2.937925
 20
2.369378
 30
0.0
 10
2.914070
 20
2.241895
 30
0.0
 10
2.868862
 20
2.112371
 30
0.0
 10
2.865301
 20
2.014994
 30
0.0
 10
2.893344
 20
1.944596
 30
0.0
 10
2.905942
 20
1.900926
 30
0.0
 10
2.956650
 20
1.858849
 30
0.0
 10
2.913473
 20
1.851795
 30
0.0
 10
2.892586
 20
1.834544
 30
0.0
 10
2.866442
 20
1.806693
 30
0.0
 10
2.851973
 20
1.765459
 30
0.0
 10
2.850322
 20
1.720887
 30
0.0
 10
2.863022
 20
1.657190
 30
0.0
 10
2.864527
 20
1.569228
 30
0.0
 10
2.851969
 20
1.457715
 30
0.0
 10
2.842196
 20
1.350310
 30
0.0
 10
2.839740
 20
1.255587
 30
0.0
 10
2.836013
 20
1.173386
 30
0.0
 10
2.836256
 20
1.088865
 30
0.0
 10
2.841171
 20
1.010816
 30
0.0
 10
2.850519
 20
0.949935
 30
0.0
 10
2.865502
 20
0.913037
 30
0.0
 10
2.884307
 20
0.883003
 30
0.0
 10
2.905873
 20
0.844323
 30
0.0
 10
2.917193
 20
0.805808
 30
0.0
 10
2.921735
 20
0.772339
 30
0.0
 10
2.920556
 20
0.746661
 30
0.0
 10
2.919415
 20
0.713650
 30
0.0
 10
2.919397
 20
0.667612
 30
0.0
 10
2.928615
 20
0.605189
 30
0.0
 10
2.942984
 20
0.561221
 30
0.0
 10
2.950892
 20
0.537026
 30
0.0
 11
3.052491
 21
2.654028
 31
0.0
 11
3.062628
 21
2.708476
 31
0.0
 11
3.065854
 21
2.755090
 31
0.0
 11
3.064932
 21
2.792950
 31
0.0
 11
3.060862
 21
2.828276
 31
0.0
 11
3.053106
 21
2.850239
 31
0.0
 11
3.042124
 21
2.863448
 31
0.0
 11
3.025383
 21
2.870974
 31
0.0
 11
3.006338
 21
2.872509
 31
0.0
 11
2.988214
 21
2.867595
 31
0.0
 11
2.971012
 21
2.849010
 31
0.0
 11
2.962565
 21
2.821211
 31
0.0
 11
2.959186
 21
2.788803
 31
0.0
 11
2.956498
 21
2.703407
 31
0.0
 11
2.958418
 21
2.637825
 31
0.0
 11
2.961259
 21
2.598045
 31
0.0
 11
2.961490
 21
2.546592
 31
0.0
 11
2.954808
 21
2.485003
 31
0.0
 11
2.942598
 21
2.403140
 31
0.0
 11
2.904585
 21
2.221904
 31
0.0
 11
2.873483
 21
2.106097
 31
0.0
 11
2.874174
 21
2.000888
 31
0.0
 11
2.892758
 21
1.943600
 31
0.0
 11
2.916411
 21
1.896448
 31
0.0
 11
2.940525
 21
1.859893
 31
0.0
 11
2.917717
 21
1.850678
 31
0.0
 11
2.893526
 21
1.834551
 31
0.0
 11
2.872100
 21
1.810130
 31
0.0
 11
2.854054
 21
1.763439
 31
0.0
 11
2.852134
 21
1.718591
 31
0.0
 11
2.857586
 21
1.681576
 31
0.0
 11
2.862117
 21
1.569609
 31
0.0
 11
2.852364
 21
1.457642
 31
0.0
 11
2.843072
 21
1.345675
 31
0.0
 11
2.839155
 21
1.247147
 31
0.0
 11
2.836621
 21
1.173962
 31
0.0
 11
2.836852
 21
1.098934
 31
0.0
 11
2.844301
 21
0.994109
 31
0.0
 11
2.854975
 21
0.940429
 31
0.0
 11
2.863807
 21
0.918543
 31
0.0
 11
2.883773
 21
0.883217
 31
0.0
 11
2.903279
 21
0.846048
 31
0.0
 11
2.917717
 21
0.798282
 31
0.0
 11
2.921019
 21
0.771020
 31
0.0
 11
2.920635
 21
0.747444
 31
0.0
 11
2.919790
 21
0.721564
 31
0.0
 11
2.920481
 21
0.671878
 31
0.0
 11
2.929466
 21
0.610211
 31
0.0
 11
2.950892
 21
0.537026
 31
0.0
  0
SPLINE
  5
110
100
AcDbEntity
  8
0
 62
7
100
AcDbSpline
 70
0
 71
3
 72
76
 73
72
 74
70
 40
0.000000
 40
0.000000
 40
0.000000
 40
0.000000
 40
0.051992
 40
0.093638
 40
0.123734
 40
0.148953
 40
0.171223
 40
0.190475
 40
0.208929
 40
0.231145
 40
0.258162
 40
0.278223
 40
0.312223
 40
0.355155
 40
0.373420
 40
0.399772
 40
0.431569
 40
0.474194
 40
0.508405
 40
0.525717
 40
0.575759
 40
0.629825
 40
0.685876
 40
0.753461
 40
0.812865
 40
0.860449
 40
0.900694
 40
0.944405
 40
0.985356
 40
1.005102
 40
1.029232
 40
1.067039
 40
1.095993
 40
1.120418
 40
1.139850
 40
1.174470
 40
1.205671
 40
1.233563
 40
1.249217
 40
1.262362
 40
1.271192
 40
1.310884
 40
1.344302
 40
1.362679
 40
1.387499
 40
1.420977
 40
1.460301
 40
1.475709
 40
1.496283
 40
1.517105
 40
1.532301
 40
1.546525
 40
1.556637
 40
1.600369
 40
1.639625
 40
1.664059
 40
1.692921
 40
1.732849
 40
1.779738
 40
1.836976
 40
1.892647
 40
1.946080
 40
2.051467
 40
2.134197
 40
2.185387
 40
2.233418
 40
2.302106
 40
2.387332
 40
2.430023
 40
2.466582
 40
2.496858
 40
2.496858
 40
2.496858
 40
2.496858
 10
2.950892
 20
0.537026
 30
0.0
 10
2.937704
 20
0.548342
 30
0.0
 10
2.913951
 20
0.568722
 30
0.0
 10
2.877365
 20
0.588392
 30
0.0
 10
2.846821
 20
0.599254
 30
0.0
 10
2.821720
 20
0.605244
 30
0.0
 10
2.799539
 20
0.609142
 30
0.0
 10
2.779195
 20
0.601319
 30
0.0
 10
2.770717
 20
0.581402
 30
0.0
 10
2.767508
 20
0.561923
 30
0.0
 10
2.787055
 20
0.524892
 30
0.0
 10
2.756470
 20
0.553614
 30
0.0
 10
2.731117
 20
0.563260
 30
0.0
 10
2.697691
 20
0.569300
 30
0.0
 10
2.668712
 20
0.566898
 30
0.0
 10
2.643900
 20
0.559407
 30
0.0
 10
2.616708
 20
0.538255
 30
0.0
 10
2.600048
 20
0.504031
 30
0.0
 10
2.597043
 20
0.473808
 30
0.0
 10
2.609508
 20
0.435316
 30
0.0
 10
2.544181
 20
0.449883
 30
0.0
 10
2.499877
 20
0.449173
 30
0.0
 10
2.441384
 20
0.477111
 30
0.0
 10
2.409471
 20
0.532336
 30
0.0
 10
2.399087
 20
0.588708
 30
0.0
 10
2.365169
 20
0.632587
 30
0.0
 10
2.316892
 20
0.627963
 30
0.0
 10
2.281092
 20
0.607292
 30
0.0
 10
2.255872
 20
0.580051
 30
0.0
 10
2.252369
 20
0.551030
 30
0.0
 10
2.260014
 20
0.524578
 30
0.0
 10
2.262646
 20
0.494714
 30
0.0
 10
2.263588
 20
0.463071
 30
0.0
 10
2.260519
 20
0.442249
 30
0.0
 10
2.260127
 20
0.404192
 30
0.0
 10
2.237170
 20
0.451707
 30
0.0
 10
2.211490
 20
0.461719
 30
0.0
 10
2.185460
 20
0.466576
 30
0.0
 10
2.167115
 20
0.461006
 30
0.0
 10
2.156193
 20
0.454632
 30
0.0
 10
2.140491
 20
0.441431
 30
0.0
 10
2.125399
 20
0.415187
 30
0.0
 10
2.121387
 20
0.390685
 30
0.0
 10
2.124895
 20
0.350808
 30
0.0
 10
2.118416
 20
0.396162
 30
0.0
 10
2.106434
 20
0.418414
 30
0.0
 10
2.086782
 20
0.443750
 30
0.0
 10
2.066232
 20
0.458045
 30
0.0
 10
2.049693
 20
0.466999
 30
0.0
 10
2.029053
 20
0.469706
 30
0.0
 10
2.015743
 20
0.457723
 30
0.0
 10
2.009367
 20
0.446235
 30
0.0
 10
2.000843
 20
0.425079
 30
0.0
 10
2.005903
 20
0.391148
 30
0.0
 10
2.016469
 20
0.362314
 30
0.0
 10
2.052832
 20
0.331555
 30
0.0
 10
2.002497
 20
0.341743
 30
0.0
 10
1.972261
 20
0.348272
 30
0.0
 10
1.929042
 20
0.377497
 30
0.0
 10
1.901911
 20
0.424839
 30
0.0
 10
1.896118
 20
0.481086
 30
0.0
 10
1.902554
 20
0.552214
 30
0.0
 10
1.919559
 20
0.631872
 30
0.0
 10
1.957870
 20
0.702900
 30
0.0
 10
1.996046
 20
0.750105
 30
0.0
 10
2.033765
 20
0.791557
 30
0.0
 10
2.086967
 20
0.833551
 30
0.0
 10
2.146898
 20
0.861882
 30
0.0
 10
2.200048
 20
0.875796
 30
0.0
 10
2.236344
 20
0.880628
 30
0.0
 10
2.258629
 20
0.881036
 30
0.0
 10
2.268724
 20
0.881220
 30
0.0
 11
2.950892
 21
0.537026
 31
0.0
 11
2.910114
 21
0.569280
 31
0.0
 11
2.873483
 21
0.589093
 31
0.0
 11
2.845145
 21
0.599230
 31
0.0
 11
2.820648
 21
0.605220
 31
0.0
 11
2.798454
 21
0.607063
 31
0.0
 11
2.780868
 21
0.599230
 31
0.0
 11
2.772037
 21
0.583026
 31
0.0
 11
2.771038
 21
0.560832
 31
0.0
 11
2.778795
 21
0.534952
 31
0.0
 11
2.762591
 21
0.546779
 31
0.0
 11
2.732104
 21
0.561831
 31
0.0
 11
2.689636
 21
0.568128
 31
0.0
 11
2.671436
 21
0.566592
 31
0.0
 11
2.646324
 21
0.558605
 31
0.0
 11
2.621212
 21
0.539099
 31
0.0
 11
2.601629
 21
0.501240
 31
0.0
 11
2.600016
 21
0.467066
 31
0.0
 11
2.602551
 21
0.449941
 31
0.0
 11
2.552634
 21
0.446408
 31
0.0
 11
2.499031
 21
0.453473
 31
0.0
 11
2.449115
 21
0.478969
 31
0.0
 11
2.412176
 21
0.535567
 31
0.0
 11
2.392747
 21
0.591704
 31
0.0
 11
2.359956
 21
0.626185
 31
0.0
 11
2.319715
 21
0.625570
 31
0.0
 11
2.281318
 21
0.604682
 31
0.0
 11
2.256283
 21
0.572275
 31
0.0
 11
2.253749
 21
0.552692
 31
0.0
 11
2.258126
 21
0.528962
 31
0.0
 11
2.262503
 21
0.491410
 31
0.0
 11
2.262810
 21
0.462458
 31
0.0
 11
2.260814
 21
0.438114
 31
0.0
 11
2.258356
 21
0.418839
 31
0.0
 11
2.236163
 21
0.445410
 31
0.0
 11
2.209361
 21
0.461383
 31
0.0
 11
2.181638
 21
0.464455
 31
0.0
 11
2.166587
 21
0.460154
 31
0.0
 11
2.155221
 21
0.453550
 31
0.0
 11
2.148463
 21
0.447867
 31
0.0
 11
2.127268
 21
0.414308
 31
0.0
 11
2.122660
 21
0.381209
 31
0.0
 11
2.123581
 21
0.362855
 31
0.0
 11
2.118743
 21
0.387199
 31
0.0
 11
2.105612
 21
0.417994
 31
0.0
 11
2.080039
 21
0.447867
 31
0.0
 11
2.067521
 21
0.456852
 31
0.0
 11
2.049014
 21
0.465837
 31
0.0
 11
2.028202
 21
0.466528
 31
0.0
 11
2.016299
 21
0.457083
 31
0.0
 11
2.009004
 21
0.444872
 31
0.0
 11
2.005394
 21
0.435426
 31
0.0
 11
2.007161
 21
0.391730
 31
0.0
 11
2.025054
 21
0.356789
 31
0.0
 11
2.040643
 21
0.337974
 31
0.0
 11
2.011845
 21
0.339894
 31
0.0
 11
1.973371
 21
0.350568
 31
0.0
 11
1.934897
 21
0.377370
 31
0.0
 11
1.905561
 21
0.426518
 31
0.0
 11
1.897882
 21
0.481657
 31
0.0
 11
1.901721
 21
0.534952
 31
0.0
 11
1.926449
 21
0.637397
 31
0.0
 11
1.965461
 21
0.710352
 31
0.0
 11
1.997100
 21
0.750592
 31
0.0
 11
2.029892
 21
0.785688
 31
0.0
 11
2.083879
 21
0.828155
 31
0.0
 11
2.160904
 21
0.864633
 31
0.0
 11
2.202219
 21
0.875384
 31
0.0
 11
2.238467
 21
0.880145
 31
0.0
 11
2.268724
 21
0.881220
 31
0.0
  0
SPLINE
  5
111
100
AcDbEntity
  8
0
 62
7
100
AcDbSpline
 70
0
 71
3
 72
16
 73
12
 74
10
 40
0.000000
 40
0.000000
 40
0.000000
 40
0.000000
 40
0.084803
 40
0.164062
 40
0.236407
 40
0.290010
 40
0.358360
 40
0.439622
 40
0.481580
 40
0.519378
 40
0.551668
 40
0.551668
 40
0.551668
 40
0.551668
 10
2.268724
 20
0.881220
 30
0.0
 10
2.269381
 20
0.909479
 30
0.0
 10
2.270653
 20
0.964150
 30
0.0
 10
2.272204
 20
1.042951
 30
0.0
 10
2.270542
 20
1.111346
 30
0.0
 10
2.270872
 20
1.176114
 30
0.0
 10
2.270123
 20
1.243847
 30
0.0
 10
2.269490
 20
1.307710
 30
0.0
 10
2.267046
 20
1.361332
 30
0.0
 10
2.266385
 20
1.398680
 30
0.0
 10
2.265147
 20
1.422011
 30
0.0
 10
2.264577
 20
1.432761
 30
0.0
 11
2.268724
 21
0.881220
 31
0.0
 11
2.270644
 21
0.966002
 31
0.0
 11
2.271642
 21
1.045254
 31
0.0
 11
2.270797
 21
1.117595
 31
0.0
 11
2.270720
 21
1.171197
 31
0.0
 11
2.270183
 21
1.239545
 31
0.0
 11
2.268724
 21
1.320794
 31
0.0
 11
2.267188
 21
1.362724
 31
0.0
 11
2.266113
 21
1.400507
 31
0.0
 11
2.264577
 21
1.432761
 31
0.0
  0
SPLINE
  5
112
100
AcDbEntity
  8
0
 62
7
100
AcDbSpline
 70
0
 71
3
 72
148
 73
144
 74
142
 40
0.000000
 40
0.000000
 40
0.000000
 40
0.000000
 40
0.073536
 40
0.132948
 40
0.180334
 40
0.218271
 40
0.252983
 40
0.296829
 40
0.328770
 40
0.359431
 40
0.411017
 40
0.453989
 40
0.491205
 40
0.528813
 40
0.573672
 40
0.600226
 40
0.632851
 40
0.682324
 40
0.722956
 40
0.769239
 40
0.789695
 40
0.802681
 40
0.821661
 40
0.872177
 40
0.916234
 40
0.966202
 40
1.011284
 40
1.053826
 40
1.114280
 40
1.146083
 40
1.186390
 40
1.230612
 40
1.254790
 40
1.290713
 40
1.343292
 40
1.398471
 40
1.421993
 40
1.435564
 40
1.486114
 40
1.528953
 40
1.570104
 40
1.603698
 40
1.637736
 40
1.670067
 40
1.703996
 40
1.737988
 40
1.773404
 40
1.808411
 40
1.895576
 40
2.008461
 40
2.075624
 40
2.178528
 40
2.271284
 40
2.326949
 40
2.394991
 40
2.489813
 40
2.522608
 40
2.547634
 40
2.569141
 40
2.593767
 40
2.635252
 40
2.708740
 40
2.748517
 40
2.778538
 40
2.796061
 40
2.817816
 40
2.855753
 40
2.899859
 40
2.916505
 40
2.931786
 40
2.948760
 40
2.983186
 40
3.023135
 40
3.064712
 40
3.108432
 40
3.155894
 40
3.209210
 40
3.233742
 40
3.263552
 40
3.293123
 40
3.315894
 40
3.350037
 40
3.410079
 40
3.494861
 40
3.534288
 40
3.557277
 40
3.588438
 40
3.638050
 40
3.686397
 40
3.721721
 40
3.757102
 40
3.788345
 40
3.809200
 40
3.830357
 40
3.859559
 40
3.914123
 40
3.956248
 40
3.992958
 40
4.022313
 40
4.069268
 40
4.139176
 40
4.169590
 40
4.193310
 40
4.215817
 40
4.242974
 40
4.266453
 40
4.295485
 40
4.346675
 40
4.398193
 40
4.448262
 40
4.477818
 40
4.508075
 40
4.544768
 40
4.591740
 40
4.624101
 40
4.659290
 40
4.695782
 40
4.740176
 40
4.800336
 40
4.884836
 40
4.933568
 40
4.972726
 40
5.024020
 40
5.066157
 40
5.093543
 40
5.131116
 40
5.183401
 40
5.273459
 40
5.391962
 40
5.448941
 40
5.482795
 40
5.505705
 40
5.555179
 40
5.633155
 40
5.706948
 40
5.739477
 40
5.753848
 40
5.812142
 40
5.873449
 40
5.947326
 40
6.035870
 40
6.139838
 40
6.259465
 40
6.259465
 40
6.259465
 40
6.259465
 10
2.264577
 20
1.432761
 30
0.0
 10
2.252993
 20
1.454455
 30
0.0
 10
2.232050
 20
1.493677
 30
0.0
 10
2.215739
 20
1.551816
 30
0.0
 10
2.207396
 20
1.599557
 30
0.0
 10
2.208422
 20
1.639656
 30
0.0
 10
2.208907
 20
1.678497
 30
0.0
 10
2.204059
 20
1.715196
 30
0.0
 10
2.194504
 20
1.749492
 30
0.0
 10
2.178853
 20
1.784257
 30
0.0
 10
2.165832
 20
1.823960
 30
0.0
 10
2.152665
 20
1.865865
 30
0.0
 10
2.142771
 20
1.903874
 30
0.0
 10
2.134551
 20
1.942960
 30
0.0
 10
2.133248
 20
1.979619
 30
0.0
 10
2.139369
 20
2.013981
 30
0.0
 10
2.133907
 20
2.050303
 30
0.0
 10
2.120117
 20
2.089063
 30
0.0
 10
2.097102
 20
2.128454
 30
0.0
 10
2.089137
 20
2.164296
 30
0.0
 10
2.091134
 20
2.191079
 30
0.0
 10
2.097301
 20
2.207634
 30
0.0
 10
2.096684
 20
2.235453
 30
0.0
 10
2.089413
 20
2.273865
 30
0.0
 10
2.058487
 20
2.311621
 30
0.0
 10
2.039160
 20
2.355120
 30
0.0
 10
2.042229
 20
2.402731
 30
0.0
 10
2.065441
 20
2.447047
 30
0.0
 10
2.066922
 20
2.493315
 30
0.0
 10
2.062648
 20
2.537200
 30
0.0
 10
2.053731
 20
2.575051
 30
0.0
 10
2.034830
 20
2.607818
 30
0.0
 10
2.005225
 20
2.626951
 30
0.0
 10
1.970407
 20
2.641070
 30
0.0
 10
1.925685
 20
2.658252
 30
0.0
 10
1.885376
 20
2.675150
 30
0.0
 10
1.855656
 20
2.683894
 30
0.0
 10
1.830852
 20
2.699787
 30
0.0
 10
1.810750
 20
2.731951
 30
0.0
 10
1.802636
 20
2.775850
 30
0.0
 10
1.777603
 20
2.809879
 30
0.0
 10
1.740869
 20
2.819265
 30
0.0
 10
1.707399
 20
2.816773
 30
0.0
 10
1.675515
 20
2.803390
 30
0.0
 10
1.654863
 20
2.775022
 30
0.0
 10
1.648252
 20
2.740734
 30
0.0
 10
1.647071
 20
2.705986
 30
0.0
 10
1.641923
 20
2.653674
 30
0.0
 10
1.632149
 20
2.575911
 30
0.0
 10
1.616375
 20
2.488278
 30
0.0
 10
1.590721
 20
2.396899
 30
0.0
 10
1.557423
 20
2.318076
 30
0.0
 10
1.489240
 20
2.248873
 30
0.0
 10
1.413380
 20
2.269223
 30
0.0
 10
1.356597
 20
2.314544
 30
0.0
 10
1.289814
 20
2.329217
 30
0.0
 10
1.239173
 20
2.329022
 30
0.0
 10
1.212553
 20
2.328680
 30
0.0
 10
1.189702
 20
2.339656
 30
0.0
 10
1.178121
 20
2.368558
 30
0.0
 10
1.181288
 20
2.415463
 30
0.0
 10
1.185378
 20
2.465514
 30
0.0
 10
1.189491
 20
2.515965
 30
0.0
 10
1.192237
 20
2.539047
 30
0.0
 10
1.191772
 20
2.575678
 30
0.0
 10
1.199133
 20
2.531830
 30
0.0
 10
1.212035
 20
2.508647
 30
0.0
 10
1.237644
 20
2.482358
 30
0.0
 10
1.261502
 20
2.473537
 30
0.0
 10
1.277789
 20
2.471487
 30
0.0
 10
1.300011
 20
2.471578
 30
0.0
 10
1.330496
 20
2.471858
 30
0.0
 10
1.368816
 20
2.479134
 30
0.0
 10
1.405956
 20
2.502104
 30
0.0
 10
1.423688
 20
2.546290
 30
0.0
 10
1.430985
 20
2.586526
 30
0.0
 10
1.388512
 20
2.657678
 30
0.0
 10
1.426719
 20
2.623180
 30
0.0
 10
1.449942
 20
2.614142
 30
0.0
 10
1.479458
 20
2.611079
 30
0.0
 10
1.504878
 20
2.627563
 30
0.0
 10
1.523583
 20
2.662522
 30
0.0
 10
1.551038
 20
2.715137
 30
0.0
 10
1.578689
 20
2.769858
 30
0.0
 10
1.604061
 20
2.812460
 30
0.0
 10
1.610423
 20
2.843294
 30
0.0
 10
1.612116
 20
2.877889
 30
0.0
 10
1.608510
 20
2.920980
 30
0.0
 10
1.580985
 20
2.962339
 30
0.0
 10
1.538580
 20
2.967093
 30
0.0
 10
1.506020
 20
2.956252
 30
0.0
 10
1.480914
 20
2.940964
 30
0.0
 10
1.463029
 20
2.924032
 30
0.0
 10
1.450168
 20
2.903967
 30
0.0
 10
1.430391
 20
2.875178
 30
0.0
 10
1.406924
 20
2.840287
 30
0.0
 10
1.378498
 20
2.806140
 30
0.0
 10
1.349276
 20
2.783354
 30
0.0
 10
1.311794
 20
2.775350
 30
0.0
 10
1.263159
 20
2.773897
 30
0.0
 10
1.214030
 20
2.771913
 30
0.0
 10
1.172744
 20
2.772367
 30
0.0
 10
1.147080
 20
2.769790
 30
0.0
 10
1.124364
 20
2.759966
 30
0.0
 10
1.104905
 20
2.744336
 30
0.0
 10
1.091548
 20
2.721126
 30
0.0
 10
1.067881
 20
2.695625
 30
0.0
 10
1.030284
 20
2.671303
 30
0.0
 10
0.979963
 20
2.659313
 30
0.0
 10
0.935643
 20
2.661226
 30
0.0
 10
0.900457
 20
2.672846
 30
0.0
 10
0.873741
 20
2.691135
 30
0.0
 10
0.843398
 20
2.713804
 30
0.0
 10
0.813896
 20
2.739247
 30
0.0
 10
0.790384
 20
2.769288
 30
0.0
 10
0.766423
 20
2.794922
 30
0.0
 10
0.731240
 20
2.812426
 30
0.0
 10
0.686174
 20
2.825737
 30
0.0
 10
0.624933
 20
2.840827
 30
0.0
 10
0.561876
 20
2.853801
 30
0.0
 10
0.503924
 20
2.858046
 30
0.0
 10
0.461736
 20
2.880172
 30
0.0
 10
0.433065
 20
2.915272
 30
0.0
 10
0.416891
 20
2.952396
 30
0.0
 10
0.407305
 20
2.986824
 30
0.0
 10
0.403040
 20
3.026131
 30
0.0
 10
0.415344
 20
3.085402
 30
0.0
 10
0.438212
 20
3.169053
 30
0.0
 10
0.461951
 20
3.254357
 30
0.0
 10
0.482807
 20
3.321069
 30
0.0
 10
0.482335
 20
3.360253
 30
0.0
 10
0.466311
 20
3.392265
 30
0.0
 10
0.442563
 20
3.436176
 30
0.0
 10
0.409267
 20
3.494537
 30
0.0
 10
0.379951
 20
3.548458
 30
0.0
 10
0.358858
 20
3.582826
 30
0.0
 10
0.344787
 20
3.614976
 30
0.0
 10
0.332091
 20
3.658163
 30
0.0
 10
0.326600
 20
3.722674
 30
0.0
 10
0.327752
 20
3.797257
 30
0.0
 10
0.331417
 20
3.885985
 30
0.0
 10
0.339136
 20
3.989781
 30
0.0
 10
0.348068
 20
4.063784
 30
0.0
 10
0.352847
 20
4.103377
 30
0.0
 11
2.264577
 21
1.432761
 31
0.0
 11
2.232553
 21
1.498958
 31
0.0
 11
2.215735
 21
1.555939
 31
0.0
 11
2.208593
 21
1.602784
 31
0.0
 11
2.208363
 21
1.640721
 31
0.0
 11
2.208133
 21
1.675432
 31
0.0
 11
2.202373
 21
1.718898
 31
0.0
 11
2.193618
 21
1.749616
 31
0.0
 11
2.182099
 21
1.778030
 31
0.0
 11
2.165051
 21
1.826718
 31
0.0
 11
2.152456
 21
1.867803
 31
0.0
 11
2.143087
 21
1.903820
 31
0.0
 11
2.136022
 21
1.940758
 31
0.0
 11
2.135024
 21
1.985606
 31
0.0
 11
2.137712
 21
2.012024
 31
0.0
 11
2.133949
 21
2.044431
 31
0.0
 11
2.117591
 21
2.091122
 31
0.0
 11
2.099852
 21
2.127677
 31
0.0
 11
2.090406
 21
2.172986
 31
0.0
 11
2.092480
 21
2.193336
 31
0.0
 11
2.095935
 21
2.205854
 31
0.0
 11
2.096627
 21
2.224822
 31
0.0
 11
2.084954
 21
2.273971
 31
0.0
 11
2.061301
 21
2.311139
 31
0.0
 11
2.042717
 21
2.357524
 31
0.0
 11
2.045404
 21
2.402525
 31
0.0
 11
2.060072
 21
2.442459
 31
0.0
 11
2.065525
 21
2.502666
 31
0.0
 11
2.062299
 21
2.534305
 31
0.0
 11
2.052162
 21
2.573317
 31
0.0
 11
2.028202
 21
2.610486
 31
0.0
 11
2.008312
 21
2.624232
 31
0.0
 11
1.975521
 21
2.638900
 31
0.0
 11
1.926603
 21
2.658175
 31
0.0
 11
1.875074
 21
2.677911
 31
0.0
 11
1.853033
 21
2.686128
 31
0.0
 11
1.841591
 21
2.693424
 31
0.0
 11
1.812793
 21
2.734970
 31
0.0
 11
1.799200
 21
2.775594
 31
0.0
 11
1.773167
 21
2.807464
 31
0.0
 11
1.741067
 21
2.817371
 31
0.0
 11
1.707123
 21
2.814837
 31
0.0
 11
1.677788
 21
2.801244
 31
0.0
 11
1.657283
 21
2.774212
 31
0.0
 11
1.649220
 21
2.741190
 31
0.0
 11
1.646686
 21
2.705865
 31
0.0
 11
1.643537
 21
2.671000
 31
0.0
 11
1.632556
 21
2.584529
 31
0.0
 11
1.611437
 21
2.473637
 31
0.0
 11
1.593006
 21
2.409053
 31
0.0
 11
1.548312
 21
2.316362
 31
0.0
 11
1.474589
 21
2.260071
 31
0.0
 11
1.419988
 21
2.270899
 31
0.0
 11
1.361239
 21
2.305226
 31
0.0
 11
1.269316
 21
2.328495
 31
0.0
 11
1.236525
 21
2.328956
 31
0.0
 11
1.211566
 21
2.330799
 31
0.0
 11
1.192598
 21
2.340936
 31
0.0
 11
1.181770
 21
2.363053
 31
0.0
 11
1.180618
 21
2.404522
 31
0.0
 11
1.186378
 21
2.477784
 31
0.0
 11
1.189833
 21
2.517410
 31
0.0
 11
1.191907
 21
2.547360
 31
0.0
 11
1.192598
 21
2.564870
 31
0.0
 11
1.197820
 21
2.543751
 31
0.0
 11
1.213640
 21
2.509270
 31
0.0
 11
1.246508
 21
2.479858
 31
0.0
 11
1.262097
 21
2.474021
 31
0.0
 11
1.277226
 21
2.471871
 31
0.0
 11
1.294198
 21
2.471564
 31
0.0
 11
1.328602
 21
2.472793
 31
0.0
 11
1.367613
 21
2.481394
 31
0.0
 11
1.402018
 21
2.504739
 31
0.0
 11
1.421447
 21
2.543905
 31
0.0
 11
1.421984
 21
2.591364
 31
0.0
 11
1.404091
 21
2.641588
 31
0.0
 11
1.423981
 21
2.627227
 31
0.0
 11
1.451243
 21
2.615170
 31
0.0
 11
1.480809
 21
2.614633
 31
0.0
 11
1.500315
 21
2.626382
 31
0.0
 11
1.519360
 21
2.654719
 31
0.0
 11
1.547160
 21
2.707938
 31
0.0
 11
1.586786
 21
2.782890
 31
0.0
 11
1.604295
 21
2.818216
 31
0.0
 11
1.609363
 21
2.840640
 31
0.0
 11
1.611283
 21
2.871742
 31
0.0
 11
1.603988
 21
2.920813
 31
0.0
 11
1.574115
 21
2.958827
 31
0.0
 11
1.539250
 21
2.964510
 31
0.0
 11
1.505307
 21
2.954526
 31
0.0
 11
1.478736
 21
2.938092
 31
0.0
 11
1.463761
 21
2.923578
 31
0.0
 11
1.451550
 21
2.906299
 31
0.0
 11
1.435193
 21
2.882109
 31
0.0
 11
1.403784
 21
2.837491
 31
0.0
 11
1.376061
 21
2.805775
 31
0.0
 11
1.346034
 21
2.784656
 31
0.0
 11
1.317620
 21
2.777284
 31
0.0
 11
1.270775
 21
2.774059
 31
0.0
 11
1.200892
 21
2.772215
 31
0.0
 11
1.170481
 21
2.771755
 31
0.0
 11
1.146982
 21
2.768529
 31
0.0
 11
1.126247
 21
2.759775
 31
0.0
 11
1.105359
 21
2.742419
 31
0.0
 11
1.091843
 21
2.723220
 31
0.0
 11
1.072337
 21
2.701718
 31
0.0
 11
1.029256
 21
2.674072
 31
0.0
 11
0.979262
 21
2.661631
 31
0.0
 11
0.929269
 21
2.664396
 31
0.0
 11
0.901315
 21
2.673995
 31
0.0
 11
0.875666
 21
2.690045
 31
0.0
 11
0.846330
 21
2.712085
 31
0.0
 11
0.811542
 21
2.743648
 31
0.0
 11
0.790577
 21
2.768299
 31
0.0
 11
0.765465
 21
2.792950
 31
0.0
 11
0.733365
 21
2.810306
 31
0.0
 11
0.691128
 21
2.823975
 31
0.0
 11
0.632764
 21
2.838566
 31
0.0
 11
0.549672
 21
2.853925
 31
0.0
 11
0.501598
 21
2.861912
 31
0.0
 11
0.466887
 21
2.880035
 31
0.0
 11
0.433405
 21
2.918894
 31
0.0
 11
0.416049
 21
2.957291
 31
0.0
 11
0.408830
 21
2.983708
 31
0.0
 11
0.405221
 21
3.021107
 31
0.0
 11
0.413131
 21
3.072790
 31
0.0
 11
0.435785
 21
3.159952
 31
0.0
 11
0.468270
 21
3.273916
 31
0.0
 11
0.481401
 21
3.329362
 31
0.0
 11
0.479328
 21
3.363151
 31
0.0
 11
0.470266
 21
3.384193
 31
0.0
 11
0.446921
 21
3.427813
 31
0.0
 11
0.408830
 21
3.495853
 31
0.0
 11
0.372583
 21
3.560130
 31
0.0
 11
0.356610
 21
3.588467
 31
0.0
 11
0.350773
 21
3.601599
 31
0.0
 11
0.334263
 21
3.657506
 31
0.0
 11
0.327889
 21
3.718481
 31
0.0
 11
0.327965
 21
3.792358
 31
0.0
 11
0.331652
 21
3.880825
 31
0.0
 11
0.339485
 21
3.984498
 31
0.0
 11
0.352847
 21
4.103377
 31
0.0
  0
SPLINE
  5
113
100
AcDbEntity
  8
0
 62
7
100
AcDbSpline
 70
0
 71
3
 72
58
 73
54
 74
52
 40
0.000000
 40
0.000000
 40
0.000000
 40
0.000000
 40
0.033399
 40
0.073304
 40
0.118267
 40
0.142067
 40
0.162282
 40
0.188052
 40
0.244823
 40
0.315368
 40
0.393487
 40
0.425658
 40
0.463791
 40
0.500715
 40
0.524007
 40
0.552983
 40
0.599679
 40
0.634136
 40
0.673624
 40
0.716891
 40
0.751376
 40
0.782155
 40
0.808037
 40
0.834439
 40
0.860868
 40
0.887270
 40
0.902008
 40
0.925570
 40
0.955371
 40
0.997482
 40
1.029601
 40
1.046326
 40
1.065793
 40
1.092304
 40
1.123734
 40
1.141778
 40
1.167667
 40
1.198091
 40
1.223744
 40
1.262284
 40
1.336870
 40
1.391346
 40
1.429331
 40
1.461501
 40
1.482814
 40
1.497150
 40
1.514423
 40
1.573255
 40
1.625630
 40
1.675325
 40
1.728352
 40
1.791581
 40
1.867623
 40
1.867623
 40
1.867623
 40
1.867623
 10
0.352847
 20
4.103377
 30
0.0
 10
0.361309
 20
4.096135
 30
0.0
 10
0.379882
 20
4.080240
 30
0.0
 10
0.406519
 20
4.050956
 30
0.0
 10
0.426514
 20
4.020623
 30
0.0
 10
0.440334
 20
3.994278
 30
0.0
 10
0.447640
 20
3.972147
 30
0.0
 10
0.460359
 20
3.940349
 30
0.0
 10
0.479271
 20
3.892940
 30
0.0
 10
0.514555
 20
3.833494
 30
0.0
 10
0.559396
 20
3.791866
 30
0.0
 10
0.601146
 20
3.765144
 30
0.0
 10
0.633856
 20
3.750534
 30
0.0
 10
0.669305
 20
3.749907
 30
0.0
 10
0.693341
 20
3.769884
 30
0.0
 10
0.706925
 20
3.800273
 30
0.0
 10
0.727350
 20
3.830871
 30
0.0
 10
0.752404
 20
3.862393
 30
0.0
 10
0.780496
 20
3.889733
 30
0.0
 10
0.813882
 20
3.911100
 30
0.0
 10
0.848932
 20
3.921164
 30
0.0
 10
0.878190
 20
3.928175
 30
0.0
 10
0.908925
 20
3.919122
 30
0.0
 10
0.924093
 20
3.946669
 30
0.0
 10
0.942343
 20
3.959975
 30
0.0
 10
0.957383
 20
3.991447
 30
0.0
 10
0.973279
 20
3.969025
 30
0.0
 10
0.992902
 20
3.959876
 30
0.0
 10
1.024498
 20
3.951072
 30
0.0
 10
1.059571
 20
3.957319
 30
0.0
 10
1.087713
 20
3.968368
 30
0.0
 10
1.103079
 20
3.990004
 30
0.0
 10
1.125110
 20
3.977849
 30
0.0
 10
1.150168
 20
3.977847
 30
0.0
 10
1.175847
 20
3.977656
 30
0.0
 10
1.200510
 20
3.982549
 30
0.0
 10
1.224380
 20
3.989702
 30
0.0
 10
1.248098
 20
4.003892
 30
0.0
 10
1.270335
 20
4.027189
 30
0.0
 10
1.284414
 20
4.072185
 30
0.0
 10
1.304371
 20
4.123931
 30
0.0
 10
1.323767
 20
4.176247
 30
0.0
 10
1.341822
 20
4.213743
 30
0.0
 10
1.358105
 20
4.239574
 30
0.0
 10
1.371966
 20
4.257526
 30
0.0
 10
1.384618
 20
4.269831
 30
0.0
 10
1.405939
 20
4.291251
 30
0.0
 10
1.424927
 20
4.331039
 30
0.0
 10
1.438486
 20
4.382618
 30
0.0
 10
1.440554
 20
4.436151
 30
0.0
 10
1.477626
 20
4.480007
 30
0.0
 10
1.504783
 20
4.537991
 30
0.0
 10
1.533535
 20
4.574728
 30
0.0
 10
1.549233
 20
4.594787
 30
0.0
 11
0.352847
 21
4.103377
 31
0.0
 11
0.377805
 21
4.081183
 31
0.0
 11
0.404607
 21
4.051617
 31
0.0
 11
0.429565
 21
4.014218
 31
0.0
 11
0.440239
 21
3.992946
 31
0.0
 11
0.447228
 21
3.973977
 31
0.0
 11
0.456520
 21
3.949941
 31
0.0
 11
0.478790
 21
3.897720
 31
0.0
 11
0.515805
 21
3.837667
 31
0.0
 11
0.572634
 21
3.784064
 31
0.0
 11
0.599819
 21
3.766862
 31
0.0
 11
0.635298
 21
3.752885
 31
0.0
 11
0.672160
 21
3.755035
 31
0.0
 11
0.690437
 21
3.769473
 31
0.0
 11
0.705028
 21
3.794508
 31
0.0
 11
0.730217
 21
3.833827
 31
0.0
 11
0.751873
 21
3.860628
 31
0.0
 11
0.780440
 21
3.887890
 31
0.0
 11
0.817302
 21
3.910545
 31
0.0
 11
0.850093
 21
3.921219
 31
0.0
 11
0.880581
 21
3.925443
 31
0.0
 11
0.906461
 21
3.925059
 31
0.0
 11
0.924584
 21
3.944258
 31
0.0
 11
0.942247
 21
3.963917
 31
0.0
 11
0.960371
 21
3.983116
 31
0.0
 11
0.971352
 21
3.973286
 31
0.0
 11
0.991549
 21
3.961153
 31
0.0
 11
1.020501
 21
3.954087
 31
0.0
 11
1.062277
 21
3.959386
 31
0.0
 11
1.090691
 21
3.974361
 31
0.0
 11
1.103439
 21
3.985189
 31
0.0
 11
1.122408
 21
3.980812
 31
0.0
 11
1.148748
 21
3.977817
 31
0.0
 11
1.180157
 21
3.978969
 31
0.0
 11
1.197897
 21
3.982271
 31
0.0
 11
1.222548
 21
3.990181
 31
0.0
 11
1.248582
 21
4.005924
 31
0.0
 11
1.265937
 21
4.024816
 31
0.0
 11
1.280989
 21
4.060295
 31
0.0
 11
1.306638
 21
4.130332
 31
0.0
 11
1.326605
 21
4.181016
 31
0.0
 11
1.343346
 21
4.215113
 31
0.0
 11
1.360548
 21
4.242298
 31
0.0
 11
1.373834
 21
4.258963
 31
0.0
 11
1.383894
 21
4.269177
 31
0.0
 11
1.395797
 21
4.281694
 31
0.0
 11
1.423904
 21
4.333377
 31
0.0
 11
1.436806
 21
4.384138
 31
0.0
 11
1.445560
 21
4.433057
 31
0.0
 11
1.473360
 21
4.478212
 31
0.0
 11
1.504846
 21
4.533044
 31
0.0
 11
1.549233
 21
4.594787
 31
0.0
  0
LWPOLYLINE
  5
114
100
AcDbEntity
  8
0
 62
7
100
AcDbPolyline
 90
1
 70
1
 10
1.549233
 20
4.594787
 30
0.0
  0
SPLINE
  5
115
100
AcDbEntity
  8
0
 62
7
100
AcDbSpline
 70
0
 71
3
 72
67
 73
63
 74
61
 40
0.000000
 40
0.000000
 40
0.000000
 40
0.000000
 40
0.023116
 40
0.044686
 40
0.056359
 40
0.089336
 40
0.117895
 40
0.137282
 40
0.273186
 40
0.355864
 40
0.384895
 40
0.548624
 40
0.627913
 40
0.713093
 40
0.826098
 40
0.903453
 40
0.992216
 40
1.062189
 40
1.120282
 40
1.198173
 40
1.246661
 40
1.307206
 40
1.425495
 40
1.539722
 40
1.619796
 40
1.677045
 40
1.739326
 40
1.802067
 40
1.865730
 40
1.913346
 40
1.954112
 40
1.988670
 40
2.006804
 40
2.025110
 40
2.042937
 40
2.078432
 40
2.119213
 40
2.153395
 40
2.219578
 40
2.273350
 40
2.312070
 40
2.363459
 40
2.466985
 40
2.692475
 40
2.864724
 40
2.949016
 40
2.998735
 40
3.059007
 40
3.116837
 40
3.190114
 40
3.235087
 40
3.289727
 40
3.370831
 40
3.585893
 40
3.687794
 40
3.751401
 40
3.815090
 40
3.871391
 40
3.941652
 40
3.967840
 40
3.994918
 40
4.018269
 40
4.018269
 40
4.018269
 40
4.018269
 10
2.498878
 20
2.720379
 30
0.0
 10
2.491020
 20
2.721147
 30
0.0
 10
2.475831
 20
2.722632
 30
0.0
 10
2.458828
 20
2.712921
 30
0.0
 10
2.441175
 20
2.699811
 30
0.0
 10
2.426141
 20
2.679622
 30
0.0
 10
2.417599
 20
2.653646
 30
0.0
 10
2.413125
 20
2.592400
 30
0.0
 10
2.405227
 20
2.513556
 30
0.0
 10
2.398921
 20
2.431254
 30
0.0
 10
2.391007
 20
2.339735
 30
0.0
 10
2.403570
 20
2.248578
 30
0.0
 10
2.384978
 20
2.139999
 30
0.0
 10
2.394246
 20
2.047176
 30
0.0
 10
2.417658
 20
1.957915
 30
0.0
 10
2.458685
 20
1.873557
 30
0.0
 10
2.464803
 20
1.793236
 30
0.0
 10
2.454107
 20
1.721558
 30
0.0
 10
2.433862
 20
1.655752
 30
0.0
 10
2.429012
 20
1.593899
 30
0.0
 10
2.432719
 20
1.531547
 30
0.0
 10
2.449865
 20
1.457551
 30
0.0
 10
2.467515
 20
1.361528
 30
0.0
 10
2.486424
 20
1.259066
 30
0.0
 10
2.499702
 20
1.176203
 30
0.0
 10
2.503860
 20
1.109705
 30
0.0
 10
2.502798
 20
1.048936
 30
0.0
 10
2.503061
 20
0.986055
 30
0.0
 10
2.503108
 20
0.928007
 30
0.0
 10
2.502782
 20
0.877437
 30
0.0
 10
2.506328
 20
0.836152
 30
0.0
 10
2.524201
 20
0.808024
 30
0.0
 10
2.546042
 20
0.797604
 30
0.0
 10
2.563908
 20
0.794487
 30
0.0
 10
2.588761
 20
0.797354
 30
0.0
 10
2.608562
 20
0.826938
 30
0.0
 10
2.612397
 20
0.863452
 30
0.0
 10
2.610849
 20
0.910584
 30
0.0
 10
2.604452
 20
0.961832
 30
0.0
 10
2.586838
 20
1.012105
 30
0.0
 10
2.563926
 20
1.054353
 30
0.0
 10
2.548900
 20
1.118322
 30
0.0
 10
2.567259
 20
1.245391
 30
0.0
 10
2.583424
 20
1.410913
 30
0.0
 10
2.602068
 20
1.570536
 30
0.0
 10
2.613097
 20
1.672289
 30
0.0
 10
2.607840
 20
1.737218
 30
0.0
 10
2.592638
 20
1.791221
 30
0.0
 10
2.574330
 20
1.852325
 30
0.0
 10
2.565035
 20
1.910542
 30
0.0
 10
2.562333
 20
1.968174
 30
0.0
 10
2.565480
 20
2.028387
 30
0.0
 10
2.574925
 20
2.144946
 30
0.0
 10
2.587978
 20
2.276803
 30
0.0
 10
2.615367
 20
2.401867
 30
0.0
 10
2.603869
 20
2.479066
 30
0.0
 10
2.575039
 20
2.533662
 30
0.0
 10
2.541859
 20
2.587541
 30
0.0
 10
2.526275
 20
2.637480
 30
0.0
 10
2.523457
 20
2.678025
 30
0.0
 10
2.518817
 20
2.704695
 30
0.0
 10
2.505188
 20
2.715415
 30
0.0
 10
2.498878
 20
2.720379
 30
0.0
 11
2.498878
 21
2.720379
 31
0.0
 11
2.475762
 21
2.720225
 31
0.0
 11
2.456333
 21
2.710856
 31
0.0
 11
2.447041
 21
2.703791
 31
0.0
 11
2.426998
 21
2.677604
 31
0.0
 11
2.418013
 21
2.650496
 31
0.0
 11
2.415939
 21
2.631220
 31
0.0
 11
2.404113
 21
2.495831
 31
0.0
 11
2.397355
 21
2.413430
 31
0.0
 11
2.395205
 21
2.384479
 31
0.0
 11
2.396126
 21
2.220752
 31
0.0
 11
2.388754
 21
2.141807
 31
0.0
 11
2.395205
 21
2.056872
 31
0.0
 11
2.424847
 21
1.947823
 31
0.0
 11
2.452647
 21
1.875636
 31
0.0
 11
2.461555
 21
1.787322
 31
0.0
 11
2.451649
 21
1.718053
 31
0.0
 11
2.437595
 21
1.661686
 31
0.0
 11
2.430454
 21
1.584123
 31
0.0
 11
2.433679
 21
1.535742
 31
0.0
 11
2.445198
 21
1.476303
 31
0.0
 11
2.467776
 21
1.360189
 31
0.0
 11
2.487973
 21
1.247762
 31
0.0
 11
2.499415
 21
1.168510
 31
0.0
 11
2.503025
 21
1.111374
 31
0.0
 11
2.503025
 21
1.049094
 31
0.0
 11
2.503025
 21
0.986352
 31
0.0
 11
2.503025
 21
0.922689
 31
0.0
 11
2.503562
 21
0.875077
 31
0.0
 11
2.510090
 21
0.834836
 31
0.0
 11
2.529980
 21
0.806576
 31
0.0
 11
2.546183
 21
0.798435
 31
0.0
 11
2.564230
 21
0.795364
 31
0.0
 11
2.581816
 21
0.798282
 31
0.0
 11
2.604547
 21
0.825544
 31
0.0
 11
2.611612
 21
0.865708
 31
0.0
 11
2.610845
 21
0.899881
 31
0.0
 11
2.601399
 21
0.965387
 31
0.0
 11
2.583659
 21
1.016149
 31
0.0
 11
2.567302
 21
1.051244
 31
0.0
 11
2.555091
 21
1.101161
 31
0.0
 11
2.560851
 21
1.204526
 31
0.0
 11
2.585963
 21
1.428614
 31
0.0
 11
2.605162
 21
1.599789
 31
0.0
 11
2.610998
 21
1.683880
 31
0.0
 11
2.606698
 21
1.733412
 31
0.0
 11
2.592260
 21
1.791930
 31
0.0
 11
2.576901
 21
1.847683
 31
0.0
 11
2.565228
 21
1.920024
 31
0.0
 11
2.563155
 21
1.964949
 31
0.0
 11
2.565228
 21
2.019550
 31
0.0
 11
2.571449
 21
2.100415
 31
0.0
 11
2.597405
 21
2.313904
 31
0.0
 11
2.610461
 21
2.414966
 31
0.0
 11
2.600477
 21
2.477784
 31
0.0
 11
2.573292
 21
2.535380
 31
0.0
 11
2.546106
 21
2.584683
 31
0.0
 11
2.525833
 21
2.651955
 31
0.0
 11
2.522991
 21
2.677988
 31
0.0
 11
2.515542
 21
2.704022
 31
0.0
 11
2.498878
 21
2.720379
 31
0.0
  0
LWPOLYLINE
  5
116
100
AcDbEntity
  8
0
 62
7
100
AcDbPolyline
 90
1
 70
1
 10
2.498878
 20
2.720379
 30
0.0
  0
SPLINE
  5
117
100
AcDbEntity
  8
0
 62
7
100
AcDbSpline
 70
0
 71
3
 72
31
 73
27
 74
25
 40
0.000000
 40
0.000000
 40
0.000000
 40
0.000000
 40
0.020604
 40
0.053312
 40
0.093759
 40
0.141231
 40
0.178192
 40
0.197948
 40
0.236410
 40
0.272814
 40
0.309437
 40
0.345571
 40
0.377957
 40
0.411112
 40
0.465811
 40
0.510322
 40
0.533321
 40
0.590689
 40
0.635096
 40
0.658048
 40
0.713724
 40
0.757838
 40
0.784724
 40
0.800921
 40
0.826458
 40
0.859272
 40
0.859272
 40
0.859272
 40
0.859272
 10
0.651425
 20
3.338270
 30
0.0
 10
0.645694
 20
3.334468
 30
0.0
 10
0.630866
 20
3.324629
 30
0.0
 10
0.609197
 20
3.301485
 30
0.0
 10
0.591831
 20
3.264189
 30
0.0
 10
0.591299
 20
3.221134
 30
0.0
 10
0.603005
 20
3.188059
 30
0.0
 10
0.618658
 20
3.160311
 30
0.0
 10
0.642612
 20
3.138496
 30
0.0
 10
0.676462
 20
3.122576
 30
0.0
 10
0.711382
 20
3.112209
 30
0.0
 10
0.745112
 20
3.102796
 30
0.0
 10
0.779115
 20
3.098466
 30
0.0
 10
0.819101
 20
3.107905
 30
0.0
 10
0.854071
 20
3.138417
 30
0.0
 10
0.871781
 20
3.175878
 30
0.0
 10
0.880400
 20
3.216690
 30
0.0
 10
0.877724
 20
3.259561
 30
0.0
 10
0.858705
 20
3.297656
 30
0.0
 10
0.831055
 20
3.327983
 30
0.0
 10
0.796648
 20
3.352587
 30
0.0
 10
0.754609
 20
3.360562
 30
0.0
 10
0.725383
 20
3.362287
 30
0.0
 10
0.702881
 20
3.357834
 30
0.0
 10
0.678508
 20
3.352405
 30
0.0
 10
0.661174
 20
3.343358
 30
0.0
 10
0.651425
 20
3.338270
 30
0.0
 11
0.651425
 21
3.338270
 31
0.0
 11
0.634607
 21
3.326367
 31
0.0
 11
0.612260
 21
3.302484
 31
0.0
 11
0.595442
 21
3.265699
 31
0.0
 11
0.594367
 21
3.218240
 31
0.0
 11
0.606193
 21
3.183221
 31
0.0
 11
0.616176
 21
3.166173
 31
0.0
 11
0.644130
 21
3.139755
 31
0.0
 11
0.676691
 21
3.123475
 31
0.0
 11
0.711555
 21
3.112263
 31
0.0
 11
0.746574
 21
3.103355
 31
0.0
 11
0.778828
 21
3.100436
 31
0.0
 11
0.811082
 21
3.108116
 31
0.0
 11
0.853165
 21
3.143058
 31
0.0
 11
0.872671
 21
3.183068
 31
0.0
 11
0.877432
 21
3.205569
 31
0.0
 11
0.873209
 21
3.262781
 31
0.0
 11
0.853319
 21
3.302484
 31
0.0
 11
0.838036
 21
3.319609
 31
0.0
 11
0.791806
 21
3.350634
 31
0.0
 11
0.748801
 21
3.360464
 31
0.0
 11
0.721923
 21
3.361078
 31
0.0
 11
0.705949
 21
3.358390
 31
0.0
 11
0.681221
 21
3.352016
 31
0.0
 11
0.651425
 21
3.338270
 31
0.0
  0
LWPOLYLINE
  5
118
100
AcDbEntity
  8
0
 62
7
100
AcDbPolyline
 90
1
 70
1
 10
0.651425
 20
3.338270
 30
0.0
  0
SPLINE
  5
119
100
AcDbEntity
  8
0
 62
7
100
AcDbSpline
 70
0
 71
3
 72
49
 73
45
 74
43
 40
0.000000
 40
0.000000
 40
0.000000
 40
0.000000
 40
0.018768
 40
0.044080
 40
0.071098
 40
0.092149
 40
0.121210
 40
0.164414
 40
0.182567
 40
0.197127
 40
0.214374
 40
0.233723
 40
0.249917
 40
0.267368
 40
0.291830
 40
0.320086
 40
0.375702
 40
0.414779
 40
0.434269
 40
0.443135
 40
0.473289
 40
0.494178
 40
0.511441
 40
0.541364
 40
0.577692
 40
0.615670
 40
0.669151
 40
0.723194
 40
0.768510
 40
0.800261
 40
0.844472
 40
0.896811
 40
0.917552
 40
0.937042
 40
0.972959
 40
1.009942
 40
1.047144
 40
1.106621
 40
1.133786
 40
1.157324
 40
1.180412
 40
1.196580
 40
1.208825
 40
1.218383
 40
1.218383
 40
1.218383
 40
1.218383
 10
1.138688
 20
3.354858
 30
0.0
 10
1.141057
 20
3.349032
 30
0.0
 10
1.146619
 20
3.335351
 30
0.0
 10
1.160701
 20
3.316401
 30
0.0
 10
1.181566
 20
3.299996
 30
0.0
 10
1.208789
 20
3.304892
 30
0.0
 10
1.233611
 20
3.323990
 30
0.0
 10
1.257030
 20
3.342876
 30
0.0
 10
1.275638
 20
3.360052
 30
0.0
 10
1.287582
 20
3.371648
 30
0.0
 10
1.300704
 20
3.382626
 30
0.0
 10
1.315891
 20
3.391603
 30
0.0
 10
1.331403
 20
3.400045
 30
0.0
 10
1.348019
 20
3.409985
 30
0.0
 10
1.368272
 20
3.421815
 30
0.0
 10
1.395644
 20
3.445526
 30
0.0
 10
1.428705
 20
3.469775
 30
0.0
 10
1.459292
 20
3.492322
 30
0.0
 10
1.477726
 20
3.505363
 30
0.0
 10
1.495507
 20
3.513462
 30
0.0
 10
1.515643
 20
3.517350
 30
0.0
 10
1.538557
 20
3.513903
 30
0.0
 10
1.560566
 20
3.523421
 30
0.0
 10
1.574089
 20
3.550397
 30
0.0
 10
1.573106
 20
3.585652
 30
0.0
 10
1.558602
 20
3.627177
 30
0.0
 10
1.515932
 20
3.657125
 30
0.0
 10
1.464710
 20
3.663638
 30
0.0
 10
1.421019
 20
3.662478
 30
0.0
 10
1.380754
 20
3.658543
 30
0.0
 10
1.338917
 20
3.647866
 30
0.0
 10
1.305193
 20
3.626412
 30
0.0
 10
1.284100
 20
3.603441
 30
0.0
 10
1.273420
 20
3.580203
 30
0.0
 10
1.254833
 20
3.555468
 30
0.0
 10
1.231154
 20
3.527422
 30
0.0
 10
1.199248
 20
3.496263
 30
0.0
 10
1.172452
 20
3.464759
 30
0.0
 10
1.149106
 20
3.436510
 30
0.0
 10
1.135556
 20
3.415590
 30
0.0
 10
1.131681
 20
3.394469
 30
0.0
 10
1.133107
 20
3.377293
 30
0.0
 10
1.135826
 20
3.364912
 30
0.0
 10
1.137816
 20
3.357922
 30
0.0
 10
1.138688
 20
3.354858
 30
0.0
 11
1.138688
 21
3.354858
 31
0.0
 11
1.146368
 21
3.337732
 31
0.0
 11
1.161419
 21
3.317382
 31
0.0
 11
1.184304
 21
3.303021
 31
0.0
 11
1.205192
 21
3.305632
 31
0.0
 11
1.229767
 21
3.321145
 31
0.0
 11
1.263096
 21
3.348637
 31
0.0
 11
1.276458
 21
3.360924
 31
0.0
 11
1.287056
 21
3.370908
 31
0.0
 11
1.300418
 21
3.381813
 31
0.0
 11
1.316852
 21
3.392026
 31
0.0
 11
1.330982
 21
3.399936
 31
0.0
 11
1.346034
 21
3.408768
 31
0.0
 11
1.366769
 21
3.421746
 31
0.0
 11
1.388886
 21
3.439332
 31
0.0
 11
1.433119
 21
3.473045
 31
0.0
 11
1.464682
 21
3.496083
 31
0.0
 11
1.481039
 21
3.506681
 31
0.0
 11
1.489103
 21
3.510367
 31
0.0
 11
1.518746
 21
3.515896
 31
0.0
 11
1.539634
 21
3.515896
 31
0.0
 11
1.555454
 21
3.522808
 31
0.0
 11
1.570736
 21
3.548534
 31
0.0
 11
1.571273
 21
3.584858
 31
0.0
 11
1.557527
 21
3.620260
 31
0.0
 11
1.514983
 21
3.652668
 31
0.0
 11
1.461841
 21
3.662498
 31
0.0
 11
1.416532
 21
3.661730
 31
0.0
 11
1.384969
 21
3.658274
 31
0.0
 11
1.342348
 21
3.646524
 31
0.0
 11
1.298345
 21
3.618187
 31
0.0
 11
1.284752
 21
3.602521
 31
0.0
 11
1.275306
 21
3.585472
 31
0.0
 11
1.254802
 21
3.555983
 31
0.0
 11
1.230765
 21
3.527876
 31
0.0
 11
1.204885
 21
3.501152
 31
0.0
 11
1.165643
 21
3.456457
 31
0.0
 11
1.148748
 21
3.435185
 31
0.0
 11
1.136922
 21
3.414834
 31
0.0
 11
1.132468
 21
3.392180
 31
0.0
 11
1.133620
 21
3.376053
 31
0.0
 11
1.136154
 21
3.364073
 31
0.0
 11
1.138688
 21
3.354858
 31
0.0
  0
LWPOLYLINE
  5
11a
100
AcDbEntity
  8
0
 62
7
100
AcDbPolyline
 90
1
 70
1
 10
1.138688
 20
3.354858
 30
0.0
  0
SPLINE
  5
11b
100
AcDbEntity
  8
0
 62
7
100
AcDbSpline
 70
0
 71
3
 72
31
 73
27
 74
25
 40
0.000000
 40
0.000000
 40
0.000000
 40
0.000000
 40
0.029339
 40
0.063578
 40
0.099570
 40
0.137986
 40
0.170344
 40
0.186186
 40
0.200078
 40
0.213671
 40
0.235561
 40
0.280668
 40
0.308548
 40
0.331231
 40
0.366532
 40
0.405077
 40
0.443682
 40
0.475649
 40
0.507598
 40
0.536620
 40
0.560569
 40
0.581725
 40
0.603719
 40
0.630180
 40
0.655884
 40
0.679604
 40
0.679604
 40
0.679604
 40
0.679604
 10
0.989399
 20
3.103969
 30
0.0
 10
0.982537
 20
3.096696
 30
0.0
 10
0.967667
 20
3.080935
 30
0.0
 10
0.963619
 20
3.046157
 30
0.0
 10
0.973585
 20
3.009628
 30
0.0
 10
1.005431
 20
2.987798
 30
0.0
 10
1.034364
 20
2.984722
 30
0.0
 10
1.055245
 20
2.984809
 30
0.0
 10
1.069037
 20
2.989851
 30
0.0
 10
1.082990
 20
2.998601
 30
0.0
 10
1.105541
 20
3.013146
 30
0.0
 10
1.135378
 20
3.025416
 30
0.0
 10
1.167192
 20
3.028798
 30
0.0
 10
1.193741
 20
3.042327
 30
0.0
 10
1.208486
 20
3.073052
 30
0.0
 10
1.213161
 20
3.110913
 30
0.0
 10
1.196929
 20
3.146711
 30
0.0
 10
1.165446
 20
3.163595
 30
0.0
 10
1.134068
 20
3.166639
 30
0.0
 10
1.105797
 20
3.158780
 30
0.0
 10
1.087669
 20
3.140244
 30
0.0
 10
1.080683
 20
3.118900
 30
0.0
 10
1.064258
 20
3.100418
 30
0.0
 10
1.037339
 20
3.098298
 30
0.0
 10
1.013840
 20
3.110078
 30
0.0
 10
0.997325
 20
3.105950
 30
0.0
 10
0.989399
 20
3.103969
 30
0.0
 11
0.989399
 21
3.103969
 31
0.0
 11
0.971429
 21
3.080777
 31
0.0
 11
0.965900
 21
3.046987
 31
0.0
 11
0.976958
 21
3.012737
 31
0.0
 11
1.007983
 21
2.990082
 31
0.0
 11
1.039930
 21
2.984937
 31
0.0
 11
1.055750
 21
2.985782
 31
0.0
 11
1.068882
 21
2.990313
 31
0.0
 11
1.080631
 21
2.997147
 31
0.0
 11
1.099292
 21
3.008590
 31
0.0
 11
1.141299
 21
3.025024
 31
0.0
 11
1.168561
 21
3.030860
 31
0.0
 11
1.188451
 21
3.041765
 31
0.0
 11
1.206114
 21
3.072330
 31
0.0
 11
1.209493
 21
3.110727
 31
0.0
 11
1.192598
 21
3.145438
 31
0.0
 11
1.164952
 21
3.161488
 31
0.0
 11
1.133159
 21
3.164637
 31
0.0
 11
1.105513
 21
3.155806
 31
0.0
 11
1.088772
 21
3.138680
 31
0.0
 11
1.079403
 21
3.119712
 31
0.0
 11
1.064044
 21
3.103969
 31
0.0
 11
1.037780
 21
3.100744
 31
0.0
 11
1.012898
 21
3.107194
 31
0.0
 11
0.989399
 21
3.103969
 31
0.0
  0
LWPOLYLINE
  5
11c
100
AcDbEntity
  8
0
 62
7
100
AcDbPolyline
 90
1
 70
1
 10
0.989399
 20
3.103969
 30
0.0
  0
SPLINE
  5
11d
100
AcDbEntity
  8
0
 62
7
100
AcDbSpline
 70
0
 71
3
 72
70
 73
66
 74
64
 40
0.000000
 40
0.000000
 40
0.000000
 40
0.000000
 40
0.054824
 40
0.092585
 40
0.124304
 40
0.153318
 40
0.182994
 40
0.211285
 40
0.240573
 40
0.273328
 40
0.314310
 40
0.345889
 40
0.378913
 40
0.415530
 40
0.437401
 40
0.463753
 40
0.494087
 40
0.527507
 40
0.554260
 40
0.569123
 40
0.592004
 40
0.606959
 40
0.620272
 40
0.639053
 40
0.660188
 40
0.682148
 40
0.708303
 40
0.726369
 40
0.747353
 40
0.791646
 40
0.828663
 40
0.853242
 40
0.873198
 40
0.903952
 40
0.942051
 40
0.977531
 40
1.005315
 40
1.040795
 40
1.072185
 40
1.094746
 40
1.122168
 40
1.156791
 40
1.194391
 40
1.234926
 40
1.295364
 40
1.344608
 40
1.373649
 40
1.414128
 40
1.458153
 40
1.502363
 40
1.524978
 40
1.547796
 40
1.567975
 40
1.582079
 40
1.595874
 40
1.613902
 40
1.642413
 40
1.669333
 40
1.691377
 40
1.740472
 40
1.790605
 40
1.840423
 40
1.903871
 40
1.952915
 40
1.979640
 40
1.979640
 40
1.979640
 40
1.979640
 10
0.983179
 20
2.929798
 30
0.0
 10
0.965000
 20
2.931690
 30
0.0
 10
0.934302
 20
2.934885
 30
0.0
 10
0.894007
 20
2.946553
 30
0.0
 10
0.860117
 20
2.939006
 30
0.0
 10
0.838061
 20
2.916908
 30
0.0
 10
0.825492
 20
2.890410
 30
0.0
 10
0.821244
 20
2.860918
 30
0.0
 10
0.831338
 20
2.831165
 30
0.0
 10
0.856168
 20
2.806679
 30
0.0
 10
0.883060
 20
2.784296
 30
0.0
 10
0.911228
 20
2.763157
 30
0.0
 10
0.940216
 20
2.745505
 30
0.0
 10
0.969946
 20
2.737021
 30
0.0
 10
0.998059
 20
2.734013
 30
0.0
 10
1.024434
 20
2.733898
 30
0.0
 10
1.053667
 20
2.743869
 30
0.0
 10
1.076364
 20
2.764753
 30
0.0
 10
1.090152
 20
2.785838
 30
0.0
 10
1.098424
 20
2.805719
 30
0.0
 10
1.103588
 20
2.822590
 30
0.0
 10
1.104895
 20
2.839817
 30
0.0
 10
1.114087
 20
2.853613
 30
0.0
 10
1.132078
 20
2.859556
 30
0.0
 10
1.152690
 20
2.857378
 30
0.0
 10
1.175374
 20
2.853228
 30
0.0
 10
1.196638
 20
2.846629
 30
0.0
 10
1.215501
 20
2.835761
 30
0.0
 10
1.240953
 20
2.824314
 30
0.0
 10
1.275714
 20
2.820625
 30
0.0
 10
1.310852
 20
2.826256
 30
0.0
 10
1.336334
 20
2.835854
 30
0.0
 10
1.359648
 20
2.845241
 30
0.0
 10
1.384778
 20
2.861194
 30
0.0
 10
1.411120
 20
2.884327
 30
0.0
 10
1.429161
 20
2.913731
 30
0.0
 10
1.437096
 20
2.945864
 30
0.0
 10
1.453803
 20
2.973342
 30
0.0
 10
1.476252
 20
2.993659
 30
0.0
 10
1.500948
 20
3.005407
 30
0.0
 10
1.520862
 20
3.026289
 30
0.0
 10
1.535798
 20
3.056354
 30
0.0
 10
1.544225
 20
3.093361
 30
0.0
 10
1.541097
 20
3.140418
 30
0.0
 10
1.512962
 20
3.185323
 30
0.0
 10
1.473101
 20
3.210175
 30
0.0
 10
1.436020
 20
3.224353
 30
0.0
 10
1.398216
 20
3.230132
 30
0.0
 10
1.354918
 20
3.225722
 30
0.0
 10
1.320927
 20
3.207775
 30
0.0
 10
1.301714
 20
3.184504
 30
0.0
 10
1.291480
 20
3.165061
 30
0.0
 10
1.284654
 20
3.147292
 30
0.0
 10
1.278511
 20
3.132479
 30
0.0
 10
1.274017
 20
3.117831
 30
0.0
 10
1.268417
 20
3.098520
 30
0.0
 10
1.260826
 20
3.075224
 30
0.0
 10
1.251887
 20
3.051010
 30
0.0
 10
1.239699
 20
3.020597
 30
0.0
 10
1.212195
 20
2.988971
 30
0.0
 10
1.167436
 20
2.966100
 30
0.0
 10
1.115811
 20
2.948969
 30
0.0
 10
1.063862
 20
2.932950
 30
0.0
 10
1.017330
 20
2.929209
 30
0.0
 10
0.992084
 20
2.929645
 30
0.0
 10
0.983179
 20
2.929798
 30
0.0
 11
0.983179
 21
2.929798
 31
0.0
 11
0.928885
 21
2.937401
 31
0.0
 11
0.891639
 21
2.943621
 31
0.0
 11
0.860845
 21
2.936019
 31
0.0
 11
0.839649
 21
2.916206
 31
0.0
 11
0.826748
 21
2.889481
 31
0.0
 11
0.823522
 21
2.861374
 31
0.0
 11
0.832738
 21
2.833575
 31
0.0
 11
0.854394
 21
2.809000
 31
0.0
 11
0.885726
 21
2.782583
 31
0.0
 11
0.911145
 21
2.763845
 31
0.0
 11
0.939790
 21
2.747411
 31
0.0
 11
0.974885
 21
2.736967
 31
0.0
 11
0.996618
 21
2.734509
 31
0.0
 11
1.022958
 21
2.735277
 31
0.0
 11
1.051603
 21
2.745260
 31
0.0
 11
1.076792
 21
2.767224
 31
0.0
 11
1.091383
 21
2.789648
 31
0.0
 11
1.097219
 21
2.803317
 31
0.0
 11
1.103363
 21
2.825357
 31
0.0
 11
1.106281
 21
2.840025
 31
0.0
 11
1.113807
 21
2.851007
 31
0.0
 11
1.131239
 21
2.857995
 31
0.0
 11
1.152358
 21
2.857151
 31
0.0
 11
1.173937
 21
2.853080
 31
0.0
 11
1.198742
 21
2.844787
 31
0.0
 11
1.214792
 21
2.836493
 31
0.0
 11
1.234067
 21
2.828199
 31
0.0
 11
1.277994
 21
2.822516
 31
0.0
 11
1.314548
 21
2.828352
 31
0.0
 11
1.337740
 21
2.836493
 31
0.0
 11
1.356094
 21
2.844326
 31
0.0
 11
1.382281
 21
2.860453
 31
0.0
 11
1.410311
 21
2.886256
 31
0.0
 11
1.428589
 21
2.916666
 31
0.0
 11
1.437650
 21
2.942930
 31
0.0
 11
1.455927
 21
2.973341
 31
0.0
 11
1.479427
 21
2.994152
 31
0.0
 11
1.498779
 21
3.005748
 31
0.0
 11
1.518131
 21
3.025178
 31
0.0
 11
1.534105
 21
3.055895
 31
0.0
 11
1.542245
 21
3.092603
 31
0.0
 11
1.538866
 21
3.132997
 31
0.0
 11
1.507534
 21
3.184680
 31
0.0
 11
1.466525
 21
3.211943
 31
0.0
 11
1.439340
 21
3.222156
 31
0.0
 11
1.399330
 21
3.228300
 31
0.0
 11
1.355633
 21
3.222924
 31
0.0
 11
1.317006
 21
3.201422
 31
0.0
 11
1.302415
 21
3.184143
 31
0.0
 11
1.291510
 21
3.164099
 31
0.0
 11
1.283830
 21
3.145438
 31
0.0
 11
1.278685
 21
3.132306
 31
0.0
 11
1.274461
 21
3.119174
 31
0.0
 11
1.269316
 21
3.101896
 31
0.0
 11
1.260485
 21
3.074787
 31
0.0
 11
1.251193
 21
3.049522
 31
0.0
 11
1.242361
 21
3.029324
 31
0.0
 11
1.210645
 21
2.991849
 31
0.0
 11
1.166949
 21
2.967274
 31
0.0
 11
1.120027
 21
2.950533
 31
0.0
 11
1.058745
 21
2.934099
 31
0.0
 11
1.009903
 21
2.929645
 31
0.0
 11
0.983179
 21
2.929798
 31
0.0
  0
LWPOLYLINE
  5
11e
100
AcDbEntity
  8
0
 62
7
100
AcDbPolyline
 90
1
 70
1
 10
0.983179
 20
2.929798
 30
0.0
  0
SPLINE
  5
11f
100
AcDbEntity
  8
0
 62
7
100
AcDbSpline
 70
0
 71
3
 72
37
 73
33
 74
31
 40
0.000000
 40
0.000000
 40
0.000000
 40
0.000000
 40
0.014899
 40
0.030775
 40
0.046391
 40
0.057836
 40
0.081013
 40
0.126555
 40
0.162224
 40
0.187746
 40
0.206630
 40
0.224673
 40
0.244290
 40
0.271356
 40
0.303984
 40
0.332345
 40
0.381225
 40
0.396193
 40
0.409769
 40
0.422058
 40
0.432570
 40
0.443476
 40
0.454227
 40
0.465836
 40
0.475406
 40
0.481966
 40
0.535778
 40
0.613508
 40
0.687103
 40
0.696532
 40
0.707359
 40
0.718358
 40
0.718358
 40
0.718358
 40
0.718358
 10
1.337740
 20
2.413507
 30
0.0
 10
1.337325
 20
2.408455
 30
0.0
 10
1.336469
 20
2.398020
 30
0.0
 10
1.344169
 20
2.383947
 30
0.0
 10
1.352830
 20
2.372549
 30
0.0
 10
1.366623
 20
2.362536
 30
0.0
 10
1.393263
 20
2.356780
 30
0.0
 10
1.427727
 20
2.353152
 30
0.0
 10
1.463214
 20
2.351815
 30
0.0
 10
1.490188
 20
2.351104
 30
0.0
 10
1.510163
 20
2.358514
 30
0.0
 10
1.524768
 20
2.370982
 30
0.0
 10
1.536240
 20
2.389435
 30
0.0
 10
1.548366
 20
2.412864
 30
0.0
 10
1.559276
 20
2.440404
 30
0.0
 10
1.563870
 20
2.476883
 30
0.0
 10
1.572875
 20
2.506440
 30
0.0
 10
1.580439
 20
2.530989
 30
0.0
 10
1.583580
 20
2.544506
 30
0.0
 10
1.579501
 20
2.556792
 30
0.0
 10
1.570430
 20
2.564019
 30
0.0
 10
1.560147
 20
2.567646
 30
0.0
 10
1.548825
 20
2.567499
 30
0.0
 10
1.538678
 20
2.563902
 30
0.0
 10
1.530827
 20
2.558632
 30
0.0
 10
1.517436
 20
2.539354
 30
0.0
 10
1.479842
 20
2.511159
 30
0.0
 10
1.427444
 20
2.469864
 30
0.0
 10
1.384112
 20
2.432548
 30
0.0
 10
1.352780
 20
2.428661
 30
0.0
 10
1.343481
 20
2.422946
 30
0.0
 10
1.339664
 20
2.416670
 30
0.0
 10
1.337740
 20
2.413507
 30
0.0
 11
1.337740
 21
2.413507
 31
0.0
 11
1.337894
 21
2.398609
 31
0.0
 11
1.344498
 21
2.384171
 31
0.0
 11
1.354328
 21
2.372038
 31
0.0
 11
1.363620
 21
2.365357
 31
0.0
 11
1.385814
 21
2.358675
 31
0.0
 11
1.431046
 21
2.353377
 31
0.0
 11
1.466679
 21
2.351764
 31
0.0
 11
1.492175
 21
2.352916
 31
0.0
 11
1.509837
 21
2.359597
 31
0.0
 11
1.523660
 21
2.371193
 31
0.0
 11
1.534719
 21
2.387397
 31
0.0
 11
1.547160
 21
2.411433
 31
0.0
 11
1.558372
 21
2.442075
 31
0.0
 11
1.563594
 21
2.469951
 31
0.0
 11
1.576188
 21
2.517180
 31
0.0
 11
1.580412
 21
2.531541
 31
0.0
 11
1.582332
 21
2.544980
 31
0.0
 11
1.578262
 21
2.556576
 31
0.0
 11
1.570275
 21
2.563410
 31
0.0
 11
1.559984
 21
2.567020
 31
0.0
 11
1.549233
 21
2.566943
 31
0.0
 11
1.538251
 21
2.563180
 31
0.0
 11
1.530495
 21
2.557574
 31
0.0
 11
1.526425
 21
2.552429
 31
0.0
 11
1.486722
 21
2.516105
 31
0.0
 11
1.425824
 21
2.467801
 31
0.0
 11
1.362622
 21
2.430095
 31
0.0
 11
1.353406
 21
2.428098
 31
0.0
 11
1.344191
 21
2.422415
 31
0.0
 11
1.337740
 21
2.413507
 31
0.0
  0
SPLINE
  5
120
100
AcDbEntity
  8
0
 62
7
100
AcDbSpline
 70
0
 71
3
 72
13
 73
9
 74
7
 40
0.000000
 40
0.000000
 40
0.000000
 40
0.000000
 40
0.034509
 40
0.072573
 40
0.114300
 40
0.161535
 40
0.203694
 40
0.241695
 40
0.241695
 40
0.241695
 40
0.241695
 10
0.692894
 20
2.633294
 30
0.0
 10
0.683295
 20
2.626948
 30
0.0
 10
0.663107
 20
2.613603
 30
0.0
 10
0.629712
 20
2.595204
 30
0.0
 10
0.591954
 20
2.575999
 30
0.0
 10
0.551485
 20
2.559380
 30
0.0
 10
0.511299
 20
2.545531
 30
0.0
 10
0.485390
 20
2.538957
 30
0.0
 10
0.473108
 20
2.535841
 30
0.0
 11
0.692894
 21
2.633294
 31
0.0
 11
0.663866
 21
2.614633
 31
0.0
 11
0.630691
 21
2.595971
 31
0.0
 11
0.593368
 21
2.577310
 31
0.0
 11
0.549749
 21
2.559187
 31
0.0
 11
0.509815
 21
2.545671
 31
0.0
 11
0.473108
 21
2.535841
 31
0.0
  0
SPLINE
  5
121
100
AcDbEntity
  8
0
 62
7
100
AcDbSpline
 70
0
 71
3
 72
13
 73
9
 74
7
 40
0.000000
 40
0.000000
 40
0.000000
 40
0.000000
 40
0.049223
 40
0.098854
 40
0.149306
 40
0.212018
 40
0.273906
 40
0.334763
 40
0.334763
 40
0.334763
 40
0.334763
 10
0.763392
 20
2.558649
 30
0.0
 10
0.748856
 20
2.551039
 30
0.0
 10
0.719663
 20
2.535756
 30
0.0
 10
0.675502
 20
2.512804
 30
0.0
 10
0.627004
 20
2.488458
 30
0.0
 10
0.575117
 20
2.461760
 30
0.0
 10
0.519625
 20
2.434512
 30
0.0
 10
0.482982
 20
2.416311
 30
0.0
 10
0.464814
 20
2.407287
 30
0.0
 11
0.763392
 21
2.558649
 31
0.0
 11
0.719772
 21
2.535841
 31
0.0
 11
0.675692
 21
2.513033
 31
0.0
 11
0.630691
 21
2.490225
 31
0.0
 11
0.574784
 21
2.461811
 31
0.0
 11
0.519338
 21
2.434318
 31
0.0
 11
0.464814
 21
2.407287
 31
0.0
  0
SPLINE
  5
122
100
AcDbEntity
  8
0
 62
7
100
AcDbSpline
 70
0
 71
3
 72
22
 73
18
 74
16
 40
0.000000
 40
0.000000
 40
0.000000
 40
0.000000
 40
0.054140
 40
0.099662
 40
0.137063
 40
0.177435
 40
0.222251
 40
0.254283
 40
0.264605
 40
0.278184
 40
0.297248
 40
0.312370
 40
0.322389
 40
0.330659
 40
0.345891
 40
0.379288
 40
0.442401
 40
0.442401
 40
0.442401
 40
0.442401
 10
0.779980
 20
2.272512
 30
0.0
 10
0.782875
 20
2.290325
 30
0.0
 10
0.788204
 20
2.323117
 30
0.0
 10
0.799435
 20
2.367538
 30
0.0
 10
0.813325
 20
2.406104
 30
0.0
 10
0.828256
 20
2.444710
 30
0.0
 10
0.844137
 20
2.478288
 30
0.0
 10
0.870292
 20
2.502427
 30
0.0
 10
0.888520
 20
2.495013
 30
0.0
 10
0.899886
 20
2.486383
 30
0.0
 10
0.915451
 20
2.481780
 30
0.0
 10
0.930241
 20
2.479729
 30
0.0
 10
0.941168
 20
2.481778
 30
0.0
 10
0.952883
 20
2.480360
 30
0.0
 10
0.964035
 20
2.462374
 30
0.0
 10
0.965512
 20
2.425071
 30
0.0
 10
0.962404
 20
2.393006
 30
0.0
 10
0.960371
 20
2.372038
 30
0.0
 11
0.779980
 21
2.272512
 31
0.0
 11
0.789502
 21
2.325807
 31
0.0
 11
0.800868
 21
2.369887
 31
0.0
 11
0.813155
 21
2.405213
 31
0.0
 11
0.827976
 21
2.442766
 31
0.0
 11
0.850170
 21
2.481701
 31
0.0
 11
0.877432
 21
2.498519
 31
0.0
 11
0.887185
 21
2.495140
 31
0.0
 11
0.898781
 21
2.488075
 31
0.0
 11
0.916828
 21
2.481931
 31
0.0
 11
0.931880
 21
2.480472
 31
0.0
 11
0.941863
 21
2.481317
 31
0.0
 11
0.950003
 21
2.479858
 31
0.0
 11
0.959603
 21
2.468031
 31
0.0
 11
0.964594
 21
2.435009
 31
0.0
 11
0.960371
 21
2.372038
 31
0.0
  0
LWPOLYLINE
  5
123
100
AcDbEntity
  8
0
 62
7
100
AcDbPolyline
 90
1
 70
1
 10
1.337740
 20
2.413507
 30
0.0
  0
LWPOLYLINE
  5
124
100
AcDbEntity
  8
0
 62
7
100
AcDbPolyline
 90
1
 70
1
 10
6.025833
 20
3.278140
 30
0.0
  0
SPLINE
  5
125
100
AcDbEntity
  8
0
 62
7
100
AcDbSpline
 70
0
 71
3
 72
25
 73
21
 74
19
 40
0.000000
 40
0.000000
 40
0.000000
 40
0.000000
 40
1.046272
 40
2.077571
 40
3.123843
 40
4.170115
 40
5.201413
 40
6.247686
 40
7.293958
 40
8.325256
 40
9.371528
 40
10.417801
 40
11.449099
 40
12.495371
 40
13.541643
 40
14.572942
 40
15.619214
 40
16.665486
 40
17.696785
 40
18.743057
 40
18.743057
 40
18.743057
 40
18.743057
 10
6.025833
 20
3.278140
 30
0.0
 10
5.990010
 20
2.927603
 30
0.0
 10
5.918878
 20
2.231548
 30
0.0
 10
5.367005
 20
1.311700
 30
0.0
 10
4.558969
 20
0.627817
 30
0.0
 10
3.558370
 20
0.265108
 30
0.0
 10
2.496621
 20
0.265108
 30
0.0
 10
1.497422
 20
0.627817
 30
0.0
 10
0.683791
 20
1.311700
 30
0.0
 10
0.152709
 20
2.231548
 30
0.0
 10
-0.032718
 20
3.278140
 30
0.0
 10
0.152709
 20
4.324731
 30
0.0
 10
0.683791
 20
5.244579
 30
0.0
 10
1.497422
 20
5.928462
 30
0.0
 10
2.496621
 20
6.291171
 30
0.0
 10
3.558370
 20
6.291171
 30
0.0
 10
4.558969
 20
5.928462
 30
0.0
 10
5.367005
 20
5.244579
 30
0.0
 10
5.918878
 20
4.324731
 30
0.0
 10
5.990010
 20
3.628676
 30
0.0
 10
6.025833
 20
3.278140
 30
0.0
 11
6.025833
 21
3.278140
 31
0.0
 11
5.843319
 21
2.247909
 31
0.0
 11
5.327670
 21
1.354779
 31
0.0
 11
4.526721
 21
0.681602
 31
0.0
 11
3.543259
 21
0.324548
 31
0.0
 11
2.511961
 21
0.324548
 31
0.0
 11
1.528498
 21
0.681602
 31
0.0
 11
0.727550
 21
1.354779
 31
0.0
 11
0.211900
 21
2.247909
 31
0.0
 11
0.029387
 21
3.278140
 31
0.0
 11
0.211900
 21
4.308370
 31
0.0
 11
0.727550
 21
5.201501
 31
0.0
 11
1.528498
 21
5.874677
 31
0.0
 11
2.511961
 21
6.231731
 31
0.0
 11
3.543259
 21
6.231731
 31
0.0
 11
4.526721
 21
5.874677
 31
0.0
 11
5.327670
 21
5.201501
 31
0.0
 11
5.843319
 21
4.308370
 31
0.0
 11
6.025833
 21
3.278140
 31
0.0
  0
LWPOLYLINE
  5
126
100
AcDbEntity
  8
0
 62
7
100
AcDbPolyline
 90
26
 70
0
 10
7.346452
 20
2.424546
 30
0.0
 10
7.404179
 20
2.415309
 30
0.0
 10
7.413415
 20
2.415309
 30
0.0
 10
7.404179
 20
2.392219
 30
0.0
 10
7.422652
 20
2.392219
 30
0.0
 10
7.454979
 20
2.359892
 30
0.0
 10
7.563507
 20
2.350655
 30
0.0
 10
7.672034
 20
2.350655
 30
0.0
 10
7.734379
 20
2.316019
 30
0.0
 10
7.757470
 20
2.316019
 30
0.0
 10
7.792106
 20
2.198255
 30
0.0
 10
7.743615
 20
2.156691
 30
0.0
 10
7.743615
 20
2.112819
 30
0.0
 10
7.819815
 20
2.036619
 30
0.0
 10
7.810579
 20
1.824182
 30
0.0
 10
7.778251
 20
1.824182
 30
0.0
 10
7.766705
 20
1.782619
 30
0.0
 10
7.757468
 20
1.782619
 30
0.0
 10
7.757468
 20
1.715655
 30
0.0
 10
7.801341
 20
1.706418
 30
0.0
 10
7.819814
 20
1.683328
 30
0.0
 10
7.792105
 20
1.639455
 30
0.0
 10
7.792105
 20
1.607128
 30
0.0
 10
7.734378
 20
1.579419
 30
0.0
 10
7.692814
 20
1.544783
 30
0.0
 10
7.572742
 20
1.480128
 30
0.0
  0
SPLINE
  5
127
100
AcDbEntity
  8
0
 62
7
100
AcDbSpline
 70
0
 71
3
 72
10
 73
6
 74
4
 40
0.000000
 40
0.000000
 40
0.000000
 40
0.000000
 40
0.043722
 40
0.081312
 40
0.112886
 40
0.112886
 40
0.112886
 40
0.112886
 10
7.572742
 20
1.480128
 30
0.0
 10
7.562568
 20
1.469693
 30
0.0
 10
7.543648
 20
1.450288
 30
0.0
 10
7.516097
 20
1.424594
 30
0.0
 10
7.497915
 20
1.410405
 30
0.0
 10
7.489614
 20
1.403928
 30
0.0
 11
7.572742
 21
1.480128
 31
0.0
 11
7.541954
 21
1.449084
 31
0.0
 11
7.514245
 21
1.423684
 31
0.0
 11
7.489614
 21
1.403928
 31
0.0
  0
LWPOLYLINE
  5
128
100
AcDbEntity
  8
0
 62
7
100
AcDbPolyline
 90
16
 70
0
 10
7.489614
 20
1.403928
 30
0.0
 10
7.454978
 20
1.309255
 30
0.0
 10
7.251778
 20
1.228437
 30
0.0
 10
7.048578
 20
1.233057
 30
0.0
 10
7.057815
 20
1.182257
 30
0.0
 10
7.016251
 20
1.182257
 30
0.0
 10
7.007014
 20
1.168403
 30
0.0
 10
6.907723
 20
1.147623
 30
0.0
 10
6.898487
 20
1.182259
 30
0.0
 10
6.863850
 20
1.168406
 30
0.0
 10
6.863850
 20
1.147625
 30
0.0
 10
6.778414
 20
1.115298
 30
0.0
 10
6.746087
 20
1.020625
 30
0.0
 10
6.789959
 20
0.902862
 30
0.0
 10
6.789959
 20
0.845134
 30
0.0
 10
6.813050
 20
0.794334
 30
0.0
  0
SPLINE
  5
129
100
AcDbEntity
  8
0
 62
7
100
AcDbSpline
 70
0
 71
3
 72
10
 73
6
 74
4
 40
0.000000
 40
0.000000
 40
0.000000
 40
0.000000
 40
0.081411
 40
0.134094
 40
0.159364
 40
0.159364
 40
0.159364
 40
0.159364
 10
6.813050
 20
0.794334
 30
0.0
 10
6.803731
 20
0.769015
 30
0.0
 10
6.788381
 20
0.727311
 30
0.0
 10
6.770110
 20
0.676138
 30
0.0
 10
6.751967
 20
0.657283
 30
0.0
 10
6.746086
 20
0.651171
 30
0.0
 11
6.813050
 21
0.794334
 31
0.0
 11
6.785084
 21
0.717878
 31
0.0
 11
6.762763
 21
0.670156
 31
0.0
 11
6.746086
 21
0.651171
 31
0.0
  0
LWPOLYLINE
  5
12a
100
AcDbEntity
  8
0
 62
7
100
AcDbPolyline
 90
6
 70
0
 10
6.746086
 20
0.651171
 30
0.0
 10
6.759940
 20
0.609607
 30
0.0
 10
6.736849
 20
0.600370
 30
0.0
 10
6.789958
 20
0.577280
 30
0.0
 10
6.789958
 20
0.505698
 30
0.0
 10
6.836140
 20
0.473371
 30
0.0
  0
SPLINE
  5
12b
100
AcDbEntity
  8
0
 62
7
100
AcDbSpline
 70
0
 71
3
 72
10
 73
6
 74
4
 40
0.000000
 40
0.000000
 40
0.000000
 40
0.000000
 40
0.070191
 40
0.120102
 40
0.149940
 40
0.149940
 40
0.149940
 40
0.149940
 10
6.836140
 20
0.473371
 30
0.0
 10
6.858473
 20
0.480302
 30
0.0
 10
6.896685
 20
0.492162
 30
0.0
 10
6.944270
 20
0.507863
 30
0.0
 10
6.968085
 20
0.519731
 30
0.0
 10
6.976995
 20
0.524171
 30
0.0
 11
6.836140
 21
0.473371
 31
0.0
 11
6.903104
 21
0.494409
 31
0.0
 11
6.950055
 21
0.511343
 31
0.0
 11
6.976995
 21
0.524171
 31
0.0
  0
LWPOLYLINE
  5
12c
100
AcDbEntity
  8
0
 62
7
100
AcDbPolyline
 90
3
 70
0
 10
6.976995
 20
0.524171
 30
0.0
 10
7.011631
 20
0.491844
 30
0.0
 10
7.020868
 20
0.501080
 30
0.0
  0
SPLINE
  5
12d
100
AcDbEntity
  8
0
 62
7
100
AcDbSpline
 70
0
 71
3
 72
10
 73
6
 74
4
 40
0.000000
 40
0.000000
 40
0.000000
 40
0.000000
 40
0.059131
 40
0.109750
 40
0.151968
 40
0.151968
 40
0.151968
 40
0.151968
 10
7.020868
 20
0.501080
 30
0.0
 10
7.040467
 20
0.503166
 30
0.0
 10
7.076843
 20
0.507037
 30
0.0
 10
7.127007
 20
0.514372
 30
0.0
 10
7.157220
 20
0.521108
 30
0.0
 10
7.170959
 20
0.524171
 30
0.0
 11
7.020868
 21
0.501080
 31
0.0
 11
7.079621
 21
0.507751
 31
0.0
 11
7.129652
 21
0.515448
 31
0.0
 11
7.170959
 21
0.524171
 31
0.0
  0
LWPOLYLINE
  5
12e
100
AcDbEntity
  8
0
 62
7
100
AcDbPolyline
 90
15
 70
0
 10
7.170959
 20
0.524171
 30
0.0
 10
7.187122
 20
0.551880
 30
0.0
 10
7.242540
 20
0.551880
 30
0.0
 10
7.286413
 20
0.556499
 30
0.0
 10
7.341831
 20
0.528790
 30
0.0
 10
7.327978
 20
0.547263
 30
0.0
 10
7.374159
 20
0.547263
 30
0.0
 10
7.431887
 20
0.595754
 30
0.0
 10
7.498850
 20
0.600371
 30
0.0
 10
7.484997
 20
0.600371
 30
0.0
 10
7.549651
 20
0.628080
 30
0.0
 10
7.568124
 20
0.614227
 30
0.0
 10
7.602761
 20
0.646554
 30
0.0
 10
7.648943
 20
0.646554
 30
0.0
 10
7.692815
 20
0.690427
 30
0.0
  0
SPLINE
  5
12f
100
AcDbEntity
  8
0
 62
7
100
AcDbSpline
 70
0
 71
3
 72
10
 73
6
 74
4
 40
0.000000
 40
0.000000
 40
0.000000
 40
0.000000
 40
0.041513
 40
0.099711
 40
0.175460
 40
0.175460
 40
0.175460
 40
0.175460
 10
7.692815
 20
0.690427
 30
0.0
 10
7.706525
 20
0.692559
 30
0.0
 10
7.739452
 20
0.697681
 30
0.0
 10
7.794012
 20
0.719856
 30
0.0
 10
7.834094
 20
0.739407
 30
0.0
 10
7.856761
 20
0.750463
 30
0.0
 11
7.692815
 21
0.690427
 31
0.0
 11
7.733609
 21
0.698121
 31
0.0
 11
7.788258
 21
0.718133
 31
0.0
 11
7.856761
 21
0.750463
 31
0.0
  0
LWPOLYLINE
  5
130
100
AcDbEntity
  8
0
 62
7
100
AcDbPolyline
 90
5
 70
0
 10
7.856761
 20
0.750463
 30
0.0
 10
7.856761
 20
0.775863
 30
0.0
 10
7.923724
 20
0.794336
 30
0.0
 10
7.995306
 20
0.898245
 30
0.0
 10
8.071506
 20
0.889009
 30
0.0
  0
SPLINE
  5
131
100
AcDbEntity
  8
0
 62
7
100
AcDbSpline
 70
0
 71
3
 72
10
 73
6
 74
4
 40
0.000000
 40
0.000000
 40
0.000000
 40
0.000000
 40
0.034947
 40
0.069031
 40
0.103819
 40
0.103819
 40
0.103819
 40
0.103819
 10
8.071506
 20
0.889009
 30
0.0
 10
8.080451
 20
0.881500
 30
0.0
 10
8.098119
 20
0.866668
 30
0.0
 10
8.129832
 20
0.851587
 30
0.0
 10
8.152447
 20
0.847301
 30
0.0
 10
8.163870
 20
0.845136
 30
0.0
 11
8.071506
 21
0.889009
 31
0.0
 11
8.099215
 21
0.867714
 31
0.0
 11
8.130003
 21
0.853090
 31
0.0
 11
8.163870
 21
0.845136
 31
0.0
  0
LWPOLYLINE
  5
132
100
AcDbEntity
  8
0
 62
7
100
AcDbPolyline
 90
14
 70
0
 10
8.163870
 20
0.845136
 30
0.0
 10
8.198506
 20
0.812809
 30
0.0
 10
8.145397
 20
0.713518
 30
0.0
 10
8.154634
 20
0.651172
 30
0.0
 10
8.080743
 20
0.609609
 30
0.0
 10
8.071506
 20
0.586519
 30
0.0
 10
7.960670
 20
0.572665
 30
0.0
 10
7.900633
 20
0.510320
 30
0.0
 10
7.833670
 20
0.505703
 30
0.0
 10
7.815197
 20
0.452594
 30
0.0
 10
7.725142
 20
0.461830
 30
0.0
 10
7.697433
 20
0.397176
 30
0.0
 10
7.625851
 20
0.406412
 30
0.0
 10
7.598142
 20
0.374085
 30
0.0
  0
SPLINE
  5
133
100
AcDbEntity
  8
0
 62
7
100
AcDbSpline
 70
0
 71
3
 72
10
 73
6
 74
4
 40
0.000000
 40
0.000000
 40
0.000000
 40
0.000000
 40
0.047120
 40
0.076429
 40
0.088046
 40
0.088046
 40
0.088046
 40
0.088046
 10
7.598142
 20
0.374085
 30
0.0
 10
7.583563
 20
0.368294
 30
0.0
 10
7.559917
 20
0.358901
 30
0.0
 10
7.532262
 20
0.348635
 30
0.0
 10
7.520627
 20
0.341480
 30
0.0
 10
7.517324
 20
0.339449
 30
0.0
 11
7.598142
 21
0.374085
 31
0.0
 11
7.554269
 21
0.356895
 31
0.0
 11
7.527330
 21
0.345350
 31
0.0
 11
7.517324
 21
0.339449
 31
0.0
  0
LWPOLYLINE
  5
134
100
AcDbEntity
  8
0
 62
7
100
AcDbPolyline
 90
7
 70
0
 10
7.517324
 20
0.339449
 30
0.0
 10
7.484997
 20
0.357922
 30
0.0
 10
7.431888
 20
0.307122
 30
0.0
 10
7.355688
 20
0.307122
 30
0.0
 10
7.309506
 20
0.284032
 30
0.0
 10
7.281797
 20
0.284032
 30
0.0
 10
7.247160
 20
0.254013
 30
0.0
  0
SPLINE
  5
135
100
AcDbEntity
  8
0
 62
7
100
AcDbSpline
 70
0
 71
3
 72
10
 73
6
 74
4
 40
0.000000
 40
0.000000
 40
0.000000
 40
0.000000
 40
0.042274
 40
0.086443
 40
0.132799
 40
0.132799
 40
0.132799
 40
0.132799
 10
7.247160
 20
0.254013
 30
0.0
 10
7.233655
 20
0.249968
 30
0.0
 10
7.206039
 20
0.241695
 30
0.0
 10
7.165124
 20
0.224544
 30
0.0
 10
7.138442
 20
0.210437
 30
0.0
 10
7.124779
 20
0.203213
 30
0.0
 11
7.247160
 21
0.254013
 31
0.0
 11
7.206879
 21
0.241185
 31
0.0
 11
7.166086
 21
0.224252
 31
0.0
 11
7.124779
 21
0.203213
 31
0.0
  0
LWPOLYLINE
  5
136
100
AcDbEntity
  8
0
 62
7
100
AcDbPolyline
 90
10
 70
0
 10
7.124779
 20
0.203213
 30
0.0
 10
7.092451
 20
0.226303
 30
0.0
 10
7.025488
 20
0.226303
 30
0.0
 10
6.997779
 20
0.203213
 30
0.0
 10
6.972379
 20
0.212450
 30
0.0
 10
6.940051
 20
0.203213
 30
0.0
 10
6.930815
 20
0.212450
 30
0.0
 10
6.907724
 20
0.159341
 30
0.0
 10
6.845379
 20
0.159341
 30
0.0
 10
6.794579
 20
0.131632
 30
0.0
  0
SPLINE
  5
137
100
AcDbEntity
  8
0
 62
7
100
AcDbSpline
 70
0
 71
3
 72
10
 73
6
 74
4
 40
0.000000
 40
0.000000
 40
0.000000
 40
0.000000
 40
0.025164
 40
0.062903
 40
0.113630
 40
0.113630
 40
0.113630
 40
0.113630
 10
6.794579
 20
0.131632
 30
0.0
 10
6.786780
 20
0.128496
 30
0.0
 10
6.767284
 20
0.120658
 30
0.0
 10
6.729738
 20
0.114222
 30
0.0
 10
6.700505
 20
0.110612
 30
0.0
 10
6.683743
 20
0.108542
 30
0.0
 11
6.794579
 21
0.131632
 31
0.0
 11
6.770975
 21
0.122909
 31
0.0
 11
6.734030
 21
0.115212
 31
0.0
 11
6.683743
 21
0.108542
 31
0.0
  0
LWPOLYLINE
  5
138
100
AcDbEntity
  8
0
 62
7
100
AcDbPolyline
 90
8
 70
0
 10
6.683743
 20
0.108542
 30
0.0
 10
6.660652
 20
0.085451
 30
0.0
 10
6.619089
 20
0.085451
 30
0.0
 10
6.556743
 20
0.076215
 30
0.0
 10
6.510561
 20
0.018487
 30
0.0
 10
6.448216
 20
0.041578
 30
0.0
 10
6.415889
 20
0.000014
 30
0.0
 10
6.390489
 20
0.006941
 30
0.0
  0
SPLINE
  5
139
100
AcDbEntity
  8
0
 62
7
100
AcDbSpline
 70
0
 71
3
 72
10
 73
6
 74
4
 40
0.000000
 40
0.000000
 40
0.000000
 40
0.000000
 40
0.017958
 40
0.060424
 40
0.127552
 40
0.127552
 40
0.127552
 40
0.127552
 10
6.390489
 20
0.006941
 30
0.0
 10
6.385632
 20
0.010451
 30
0.0
 10
6.369289
 20
0.022262
 30
0.0
 10
6.339641
 20
0.052981
 30
0.0
 10
6.313895
 20
0.078844
 30
0.0
 10
6.298125
 20
0.094686
 30
0.0
 11
6.390489
 21
0.006941
 31
0.0
 11
6.376121
 21
0.017713
 31
0.0
 11
6.345333
 21
0.046962
 31
0.0
 11
6.298125
 21
0.094686
 31
0.0
  0
LWPOLYLINE
  5
13a
100
AcDbEntity
  8
0
 62
7
100
AcDbPolyline
 90
40
 70
0
 10
6.298125
 20
0.094686
 30
0.0
 10
6.307362
 20
0.150104
 30
0.0
 10
6.298125
 20
0.180123
 30
0.0
 10
6.307362
 20
0.235541
 30
0.0
 10
6.272725
 20
0.320977
 30
0.0
 10
6.286579
 20
0.387941
 30
0.0
 10
6.263489
 20
0.491850
 30
0.0
 10
6.286579
 20
0.577286
 30
0.0
 10
6.254252
 20
0.708904
 30
0.0
 10
6.245015
 20
0.718141
 30
0.0
 10
6.254252
 20
0.785105
 30
0.0
 10
6.330452
 20
0.812814
 30
0.0
 10
6.330452
 20
0.858996
 30
0.0
 10
6.298124
 20
0.870542
 30
0.0
 10
6.307361
 20
0.930578
 30
0.0
 10
6.286578
 20
0.965215
 30
0.0
 10
6.298124
 20
1.020633
 30
0.0
 10
6.330452
 20
1.039106
 30
0.0
 10
6.321215
 20
1.092215
 30
0.0
 10
6.330452
 20
1.182270
 30
0.0
 10
6.348925
 20
1.191507
 30
0.0
 10
6.381252
 20
1.300034
 30
0.0
 10
6.457452
 20
1.436270
 30
0.0
 10
6.524416
 20
1.461670
 30
0.0
 10
6.533652
 20
1.535561
 30
0.0
 10
6.524416
 20
1.556342
 30
0.0
 10
6.533652
 20
1.597905
 30
0.0
 10
6.575216
 20
1.620995
 30
0.0
 10
6.600616
 20
1.697195
 30
0.0
 10
6.542889
 20
1.697195
 30
0.0
 10
6.542889
 20
1.724904
 30
0.0
 10
6.565979
 20
1.759541
 30
0.0
 10
6.556742
 20
1.791868
 30
0.0
 10
6.565979
 20
1.824195
 30
0.0
 10
6.575215
 20
1.824195
 30
0.0
 10
6.575215
 20
1.900395
 30
0.0
 10
6.651415
 20
1.909632
 30
0.0
 10
6.683743
 20
1.976596
 30
0.0
 10
6.845379
 20
2.156705
 30
0.0
 10
6.877706
 20
2.156705
 30
0.0
  0
SPLINE
  5
13b
100
AcDbEntity
  8
0
 62
7
100
AcDbSpline
 70
0
 71
3
 72
10
 73
6
 74
4
 40
0.000000
 40
0.000000
 40
0.000000
 40
0.000000
 40
0.034331
 40
0.068624
 40
0.103525
 40
0.103525
 40
0.103525
 40
0.103525
 10
6.877706
 20
2.156705
 30
0.0
 10
6.884209
 20
2.166136
 30
0.0
 10
6.897209
 20
2.184988
 30
0.0
 10
6.921394
 20
2.209902
 30
0.0
 10
6.939936
 20
2.223657
 30
0.0
 10
6.949288
 20
2.230596
 30
0.0
 11
6.877706
 21
2.156705
 31
0.0
 11
6.897975
 21
2.184414
 31
0.0
 11
6.921836
 21
2.209044
 31
0.0
 11
6.949288
 21
2.230596
 31
0.0
  0
LWPOLYLINE
  5
13c
100
AcDbEntity
  8
0
 62
7
100
AcDbPolyline
 90
2
 70
0
 10
6.949288
 20
2.230596
 30
0.0
 10
6.981615
 20
2.221359
 30
0.0
  0
LWPOLYLINE
  5
13d
100
AcDbEntity
  8
0
 62
7
100
AcDbPolyline
 90
6
 70
0
 10
7.057815
 20
2.297559
 30
0.0
 10
7.080906
 20
2.297559
 30
0.0
 10
7.124779
 20
2.325268
 30
0.0
 10
7.143252
 20
2.325268
 30
0.0
 10
7.175579
 20
2.373759
 30
0.0
 10
7.346452
 20
2.424546
 30
0.0
  0
SPLINE
  5
13e
100
AcDbEntity
  8
0
 62
7
100
AcDbSpline
 70
0
 71
3
 72
10
 73
6
 74
4
 40
0.000000
 40
0.000000
 40
0.000000
 40
0.000000
 40
0.026577
 40
0.062498
 40
0.109038
 40
0.109038
 40
0.109038
 40
0.109038
 10
6.981615
 20
2.221359
 30
0.0
 10
6.989486
 20
2.225540
 30
0.0
 10
7.007994
 20
2.235370
 30
0.0
 10
7.032786
 20
2.262720
 30
0.0
 10
7.048786
 20
2.284990
 30
0.0
 10
7.057815
 20
2.297559
 30
0.0
 11
6.981615
 21
2.221359
 31
0.0
 11
7.004450
 21
2.234958
 31
0.0
 11
7.029850
 21
2.260358
 31
0.0
 11
7.057815
 21
2.297559
 31
0.0
  0
LWPOLYLINE
  5
13f
100
AcDbEntity
  8
0
 62
7
100
AcDbPolyline
 90
3
 70
0
 10
7.291033
 20
2.032000
 30
0.0
 10
7.210215
 20
2.004291
 30
0.0
 10
7.147870
 20
2.032000
 30
0.0
  0
SPLINE
  5
140
100
AcDbEntity
  8
0
 62
7
100
AcDbSpline
 70
0
 71
3
 72
16
 73
12
 74
10
 40
0.000000
 40
0.000000
 40
0.000000
 40
0.000000
 40
0.044356
 40
0.081309
 40
0.111010
 40
0.149914
 40
0.187440
 40
0.225586
 40
0.258607
 40
0.281697
 40
0.295816
 40
0.295816
 40
0.295816
 40
0.295816
 10
7.147870
 20
2.032000
 30
0.0
 10
7.136203
 20
2.022806
 30
0.0
 10
7.114818
 20
2.005952
 30
0.0
 10
7.087283
 20
1.982361
 30
0.0
 10
7.049410
 20
1.969821
 30
0.0
 10
7.053450
 20
1.927757
 30
0.0
 10
7.033777
 20
1.894862
 30
0.0
 10
7.011034
 20
1.866386
 30
0.0
 10
6.988374
 20
1.844929
 30
0.0
 10
6.970526
 20
1.828892
 30
0.0
 10
6.958477
 20
1.825477
 30
0.0
 10
6.953906
 20
1.824182
 30
0.0
 11
7.147870
 21
2.032000
 31
0.0
 11
7.113233
 21
2.004291
 31
0.0
 11
7.083215
 21
1.982740
 31
0.0
 11
7.057815
 21
1.967346
 31
0.0
 11
7.049349
 21
1.929374
 31
0.0
 11
7.033185
 21
1.895507
 31
0.0
 11
7.009324
 21
1.865746
 31
0.0
 11
6.985720
 21
1.842655
 31
0.0
 11
6.967247
 21
1.828800
 31
0.0
 11
6.953906
 21
1.824182
 31
0.0
  0
LWPOLYLINE
  5
141
100
AcDbEntity
  8
0
 62
7
100
AcDbPolyline
 90
3
 70
0
 10
6.953906
 20
1.824182
 30
0.0
 10
6.912343
 20
1.824182
 30
0.0
 10
6.940052
 20
1.773382
 30
0.0
  0
SPLINE
  5
142
100
AcDbEntity
  8
0
 62
7
100
AcDbSpline
 70
0
 71
3
 72
10
 73
6
 74
4
 40
0.000000
 40
0.000000
 40
0.000000
 40
0.000000
 40
0.040965
 40
0.093648
 40
0.158097
 40
0.158097
 40
0.158097
 40
0.158097
 10
6.940052
 20
1.773382
 30
0.0
 10
6.933717
 20
1.761283
 30
0.0
 10
6.919236
 20
1.733625
 30
0.0
 10
6.897208
 20
1.685729
 30
0.0
 10
6.881649
 20
1.649921
 30
0.0
 10
6.873088
 20
1.630218
 30
0.0
 11
6.940052
 21
1.773382
 31
0.0
 11
6.921322
 21
1.736950
 31
0.0
 11
6.899001
 21
1.689228
 31
0.0
 11
6.873088
 21
1.630218
 31
0.0
  0
LWPOLYLINE
  5
143
100
AcDbEntity
  8
0
 62
7
100
AcDbPolyline
 90
5
 70
0
 10
6.873088
 20
1.630218
 30
0.0
 10
6.836143
 20
1.639455
 30
0.0
 10
6.822289
 20
1.579419
 30
0.0
 10
6.836143
 20
1.493982
 30
0.0
 10
6.882324
 20
1.468582
 30
0.0
  0
LWPOLYLINE
  5
144
100
AcDbEntity
  8
0
 62
7
100
AcDbPolyline
 90
10
 70
0
 10
6.997779
 20
1.440873
 30
0.0
 10
7.071670
 20
1.489364
 30
0.0
 10
7.224070
 20
1.503218
 30
0.0
 10
7.304888
 20
1.620981
 30
0.0
 10
7.413415
 20
1.711036
 30
0.0
 10
7.427269
 20
1.881908
 30
0.0
 10
7.390323
 20
1.937327
 30
0.0
 10
7.385706
 20
2.018145
 30
0.0
 10
7.332597
 20
2.018145
 30
0.0
 10
7.291033
 20
2.032000
 30
0.0
  0
SPLINE
  5
145
100
AcDbEntity
  8
0
 62
7
100
AcDbSpline
 70
0
 71
3
 72
10
 73
6
 74
4
 40
0.000000
 40
0.000000
 40
0.000000
 40
0.000000
 40
0.023542
 40
0.063120
 40
0.118976
 40
0.118976
 40
0.118976
 40
0.118976
 10
6.882324
 20
1.468582
 30
0.0
 10
6.889627
 20
1.465681
 30
0.0
 10
6.909208
 20
1.457902
 30
0.0
 10
6.948214
 20
1.449926
 30
0.0
 10
6.979479
 20
1.444215
 30
0.0
 10
6.997779
 20
1.440873
 30
0.0
 11
6.882324
 21
1.468582
 31
0.0
 11
6.904388
 21
1.460372
 31
0.0
 11
6.942873
 21
1.451135
 31
0.0
 11
6.997779
 21
1.440873
 31
0.0
  0
LWPOLYLINE
  5
146
100
AcDbEntity
  8
0
 62
7
100
AcDbPolyline
 90
4
 70
0
 10
10.569943
 20
3.810000
 30
0.0
 10
10.678470
 20
3.796147
 30
0.0
 10
10.731579
 20
3.710710
 30
0.0
 10
10.722342
 20
3.606801
 30
0.0
  0
SPLINE
  5
147
100
AcDbEntity
  8
0
 62
7
100
AcDbSpline
 70
0
 71
3
 72
13
 73
9
 74
7
 40
0.000000
 40
0.000000
 40
0.000000
 40
0.000000
 40
0.019731
 40
0.037847
 40
0.054352
 40
0.079816
 40
0.127275
 40
0.196808
 40
0.196808
 40
0.196808
 40
0.196808
 10
10.722342
 20
3.606801
 30
0.0
 10
10.723804
 20
3.600389
 30
0.0
 10
10.726609
 20
3.588089
 30
0.0
 10
10.730504
 20
3.570394
 30
0.0
 10
10.734384
 20
3.550746
 30
0.0
 10
10.741305
 20
3.521729
 30
0.0
 10
10.747106
 20
3.474528
 30
0.0
 10
10.751851
 20
3.435835
 30
0.0
 10
10.754672
 20
3.412838
 30
0.0
 11
10.722342
 21
3.606801
 31
0.0
 11
10.726704
 21
3.587559
 31
0.0
 11
10.730553
 21
3.569856
 31
0.0
 11
10.733889
 21
3.553692
 31
0.0
 11
10.739276
 21
3.528805
 31
0.0
 11
10.746204
 21
3.481853
 31
0.0
 11
10.754672
 21
3.412838
 31
0.0
  0
LWPOLYLINE
  5
148
100
AcDbEntity
  8
0
 62
7
100
AcDbPolyline
 90
9
 70
0
 10
10.754672
 20
3.412838
 30
0.0
 10
10.773145
 20
3.357419
 30
0.0
 10
10.773145
 20
3.271983
 30
0.0
 10
10.826254
 20
3.218874
 30
0.0
 10
10.826254
 20
3.186547
 30
0.0
 10
10.902454
 20
2.586183
 30
0.0
 10
10.925544
 20
2.586183
 30
0.0
 10
10.957871
 20
2.544619
 30
0.0
 10
10.883980
 20
2.544619
 30
0.0
  0
SPLINE
  5
149
100
AcDbEntity
  8
0
 62
7
100
AcDbSpline
 70
0
 71
3
 72
10
 73
6
 74
4
 40
0.000000
 40
0.000000
 40
0.000000
 40
0.000000
 40
0.089817
 40
0.180213
 40
0.271314
 40
0.271314
 40
0.271314
 40
0.271314
 10
10.883980
 20
2.544619
 30
0.0
 10
10.893432
 20
2.516209
 30
0.0
 10
10.912397
 20
2.459205
 30
0.0
 10
10.937029
 20
2.372142
 30
0.0
 10
10.950906
 20
2.313252
 30
0.0
 10
10.957871
 20
2.283692
 30
0.0
 11
10.883980
 21
2.544619
 31
0.0
 11
10.911690
 21
2.459183
 31
0.0
 11
10.936320
 21
2.372207
 31
0.0
 11
10.957871
 21
2.283692
 31
0.0
  0
LWPOLYLINE
  5
14a
100
AcDbEntity
  8
0
 62
7
100
AcDbPolyline
 90
7
 70
0
 10
10.957871
 20
2.283692
 30
0.0
 10
11.034071
 20
2.255983
 30
0.0
 10
11.105653
 20
2.316019
 30
0.0
 10
11.181853
 20
2.283692
 30
0.0
 10
11.214180
 20
2.283692
 30
0.0
 10
11.223417
 20
2.274455
 30
0.0
 10
11.237271
 20
2.283692
 30
0.0
  0
SPLINE
  5
14b
100
AcDbEntity
  8
0
 62
7
100
AcDbSpline
 70
0
 71
3
 72
10
 73
6
 74
4
 40
0.000000
 40
0.000000
 40
0.000000
 40
0.000000
 40
0.015868
 40
0.048021
 40
0.096901
 40
0.096901
 40
0.096901
 40
0.096901
 10
11.237271
 20
2.283692
 30
0.0
 10
11.242091
 20
2.281468
 30
0.0
 10
11.256680
 20
2.274736
 30
0.0
 10
11.289117
 20
2.270678
 30
0.0
 10
11.315830
 20
2.267273
 30
0.0
 10
11.331943
 20
2.265219
 30
0.0
 11
11.237271
 21
2.283692
 31
0.0
 11
11.251895
 21
2.277534
 31
0.0
 11
11.283453
 21
2.271377
 31
0.0
 11
11.331943
 21
2.265219
 31
0.0
  0
LWPOLYLINE
  5
14c
100
AcDbEntity
  8
0
 62
7
100
AcDbPolyline
 90
7
 70
0
 10
11.331943
 20
2.265219
 30
0.0
 10
11.449707
 20
2.350655
 30
0.0
 10
11.634434
 20
2.339109
 30
0.0
 10
11.643671
 20
2.373745
 30
0.0
 10
11.761435
 20
2.339109
 30
0.0
 10
11.966944
 20
2.392218
 30
0.0
 10
12.008507
 20
2.433781
 30
0.0
  0
SPLINE
  5
14d
100
AcDbEntity
  8
0
 62
7
100
AcDbSpline
 70
0
 71
3
 72
10
 73
6
 74
4
 40
0.000000
 40
0.000000
 40
0.000000
 40
0.000000
 40
0.022884
 40
0.046382
 40
0.071252
 40
0.071252
 40
0.071252
 40
0.071252
 10
12.008507
 20
2.433781
 30
0.0
 10
12.013965
 20
2.439136
 30
0.0
 10
12.025027
 20
2.449990
 30
0.0
 10
12.045553
 20
2.462430
 30
0.0
 10
12.060736
 20
2.467909
 30
0.0
 10
12.068544
 20
2.470727
 30
0.0
 11
12.008507
 21
2.433781
 31
0.0
 11
12.025440
 21
2.449175
 31
0.0
 11
12.045452
 21
2.461490
 31
0.0
 11
12.068544
 21
2.470727
 31
0.0
  0
LWPOLYLINE
  5
14e
100
AcDbEntity
  8
0
 62
7
100
AcDbPolyline
 90
5
 70
0
 10
12.068544
 20
2.470727
 30
0.0
 10
12.160907
 20
2.500745
 30
0.0
 10
12.202471
 20
2.433781
 30
0.0
 10
12.278671
 20
2.433781
 30
0.0
 10
12.310998
 20
2.339109
 30
0.0
  0
SPLINE
  5
14f
100
AcDbEntity
  8
0
 62
7
100
AcDbSpline
 70
0
 71
3
 72
10
 73
6
 74
4
 40
0.000000
 40
0.000000
 40
0.000000
 40
0.000000
 40
0.061863
 40
0.114168
 40
0.157498
 40
0.157498
 40
0.157498
 40
0.157498
 10
12.310998
 20
2.339109
 30
0.0
 10
12.301622
 20
2.320749
 30
0.0
 10
12.284317
 20
2.286866
 30
0.0
 10
12.256394
 20
2.242148
 30
0.0
 10
12.235175
 20
2.218297
 30
0.0
 10
12.225562
 20
2.207490
 30
0.0
 11
12.310998
 21
2.339109
 31
0.0
 11
12.282006
 21
2.284460
 31
0.0
 11
12.253527
 21
2.240587
 31
0.0
 11
12.225562
 21
2.207490
 31
0.0
  0
LWPOLYLINE
  5
150
100
AcDbEntity
  8
0
 62
7
100
AcDbPolyline
 90
26
 70
0
 10
12.225562
 20
2.207490
 30
0.0
 10
12.202472
 20
2.221344
 30
0.0
 10
12.017744
 20
2.027380
 30
0.0
 10
11.923072
 20
1.962726
 30
0.0
 10
11.696781
 20
1.962726
 30
0.0
 10
11.569781
 20
1.928089
 30
0.0
 10
11.458944
 20
1.953489
 30
0.0
 10
11.237272
 20
1.858817
 30
0.0
 10
11.223418
 20
1.868053
 30
0.0
 10
11.087182
 20
1.810326
 30
0.0
 10
11.119509
 20
1.309253
 30
0.0
 10
11.128746
 20
1.309253
 30
0.0
 10
11.128746
 20
1.286163
 30
0.0
 10
11.096418
 20
1.251527
 30
0.0
 10
11.128746
 20
1.223818
 30
0.0
 10
11.137982
 20
1.115290
 30
0.0
 10
11.161072
 20
1.092200
 30
0.0
 10
11.137982
 20
1.048328
 30
0.0
 10
11.181855
 20
0.988291
 30
0.0
 10
11.204945
 20
0.803564
 30
0.0
 10
11.237272
 20
0.759691
 30
0.0
 10
11.269600
 20
0.771238
 30
0.0
 10
11.281146
 20
0.741220
 30
0.0
 10
11.276529
 20
0.708892
 30
0.0
 10
11.246506
 20
0.708892
 30
0.0
 10
11.255743
 20
0.438729
 30
0.0
  0
SPLINE
  5
151
100
AcDbEntity
  8
0
 62
7
100
AcDbSpline
 70
0
 71
3
 72
10
 73
6
 74
4
 40
0.000000
 40
0.000000
 40
0.000000
 40
0.000000
 40
0.052028
 40
0.100525
 40
0.145694
 40
0.145694
 40
0.145694
 40
0.145694
 10
11.255743
 20
0.438729
 30
0.0
 10
11.246591
 20
0.423995
 30
0.0
 10
11.228909
 20
0.395528
 30
0.0
 10
11.200518
 20
0.356042
 30
0.0
 10
11.180135
 20
0.332377
 30
0.0
 10
11.170306
 20
0.320965
 30
0.0
 11
11.255743
 21
0.438729
 31
0.0
 11
11.227777
 21
0.394856
 31
0.0
 11
11.199298
 21
0.355601
 31
0.0
 11
11.170306
 21
0.320965
 31
0.0
  0
LWPOLYLINE
  5
152
100
AcDbEntity
  8
0
 62
7
100
AcDbPolyline
 90
6
 70
0
 10
11.170306
 20
0.320965
 30
0.0
 10
11.087179
 20
0.311728
 30
0.0
 10
11.061779
 20
0.244765
 30
0.0
 10
11.001743
 20
0.254001
 30
0.0
 10
11.010979
 20
0.193965
 30
0.0
 10
10.974034
 20
0.147783
 30
0.0
  0
SPLINE
  5
153
100
AcDbEntity
  8
0
 62
7
100
AcDbSpline
 70
0
 71
3
 72
10
 73
6
 74
4
 40
0.000000
 40
0.000000
 40
0.000000
 40
0.000000
 40
0.028339
 40
0.079162
 40
0.152757
 40
0.152757
 40
0.152757
 40
0.152757
 10
10.974034
 20
0.147783
 30
0.0
 10
10.967148
 20
0.141298
 30
0.0
 10
10.947913
 20
0.123181
 30
0.0
 10
10.905063
 20
0.095300
 30
0.0
 10
10.870052
 20
0.073143
 30
0.0
 10
10.849343
 20
0.060038
 30
0.0
 11
10.974034
 21
0.147783
 31
0.0
 11
10.952996
 21
0.128797
 31
0.0
 11
10.911432
 21
0.099548
 31
0.0
 11
10.849343
 21
0.060038
 31
0.0
  0
LWPOLYLINE
  5
154
100
AcDbEntity
  8
0
 62
7
100
AcDbPolyline
 90
2
 70
0
 10
10.849343
 20
0.060038
 30
0.0
 10
10.768525
 20
0.127001
 30
0.0
  0
SPLINE
  5
155
100
AcDbEntity
  8
0
 62
7
100
AcDbSpline
 70
0
 71
3
 72
10
 73
6
 74
4
 40
0.000000
 40
0.000000
 40
0.000000
 40
0.000000
 40
0.013788
 40
0.033859
 40
0.060709
 40
0.060709
 40
0.060709
 40
0.060709
 10
10.768525
 20
0.127001
 30
0.0
 10
10.765126
 20
0.130126
 30
0.0
 10
10.756779
 20
0.137801
 30
0.0
 10
10.746655
 20
0.155608
 30
0.0
 10
10.740003
 20
0.169724
 30
0.0
 10
10.736197
 20
0.177801
 30
0.0
 11
10.768525
 21
0.127001
 31
0.0
 11
10.758776
 21
0.136751
 31
0.0
 11
10.748000
 21
0.153684
 31
0.0
 11
10.736197
 21
0.177801
 31
0.0
  0
LWPOLYLINE
  5
156
100
AcDbEntity
  8
0
 62
7
100
AcDbPolyline
 90
9
 70
0
 10
10.736197
 20
0.177801
 30
0.0
 10
10.708488
 20
0.244765
 30
0.0
 10
10.708488
 20
0.374074
 30
0.0
 10
10.664616
 20
0.577274
 30
0.0
 10
10.646143
 20
0.609601
 30
0.0
 10
10.664616
 20
0.741220
 30
0.0
 10
10.646143
 20
0.854365
 30
0.0
 10
10.690015
 20
0.944420
 30
0.0
 10
10.636906
 20
1.133765
 30
0.0
  0
SPLINE
  5
157
100
AcDbEntity
  8
0
 62
7
100
AcDbSpline
 70
0
 71
3
 72
10
 73
6
 74
4
 40
0.000000
 40
0.000000
 40
0.000000
 40
0.000000
 40
0.034833
 40
0.075160
 40
0.121496
 40
0.121496
 40
0.121496
 40
0.121496
 10
10.636906
 20
1.133765
 30
0.0
 10
10.641304
 20
1.144529
 30
0.0
 10
10.650793
 20
1.167755
 30
0.0
 10
10.659516
 20
1.207494
 30
0.0
 10
10.662839
 20
1.236187
 30
0.0
 10
10.664615
 20
1.251529
 30
0.0
 11
10.636906
 21
1.133765
 31
0.0
 11
10.649221
 21
1.166349
 31
0.0
 11
10.658457
 21
1.205603
 31
0.0
 11
10.664615
 21
1.251529
 31
0.0
  0
LWPOLYLINE
  5
158
100
AcDbEntity
  8
0
 62
7
100
AcDbPolyline
 90
3
 70
0
 10
10.664615
 20
1.251529
 30
0.0
 10
10.646142
 20
1.286165
 30
0.0
 10
10.664615
 20
1.385456
 30
0.0
  0
SPLINE
  5
159
100
AcDbEntity
  8
0
 62
7
100
AcDbSpline
 70
0
 71
3
 72
10
 73
6
 74
4
 40
0.000000
 40
0.000000
 40
0.000000
 40
0.000000
 40
0.037585
 40
0.095286
 40
0.173277
 40
0.173277
 40
0.173277
 40
0.173277
 10
10.664615
 20
1.385456
 30
0.0
 10
10.663774
 20
1.397964
 30
0.0
 10
10.661643
 20
1.429673
 30
0.0
 10
10.651264
 20
1.486587
 30
0.0
 10
10.642146
 20
1.530874
 30
0.0
 10
10.636906
 20
1.556329
 30
0.0
 11
10.664615
 21
1.385456
 31
0.0
 11
10.661536
 21
1.422915
 31
0.0
 11
10.652300
 21
1.479872
 31
0.0
 11
10.636906
 21
1.556329
 31
0.0
  0
LWPOLYLINE
  5
15a
100
AcDbEntity
  8
0
 62
7
100
AcDbPolyline
 90
11
 70
0
 10
10.636906
 20
1.556329
 30
0.0
 10
10.678470
 20
1.648692
 30
0.0
 10
10.664616
 20
1.801092
 30
0.0
 10
10.595344
 20
1.842656
 30
0.0
 10
10.546853
 20
1.824183
 30
0.0
 10
10.546853
 20
1.842656
 30
0.0
 10
10.442944
 20
1.833419
 30
0.0
 10
10.452180
 20
1.768765
 30
0.0
 10
10.401380
 20
1.782618
 30
0.0
 10
10.343653
 20
1.768765
 30
0.0
 10
10.329799
 20
1.759528
 30
0.0
  0
SPLINE
  5
15b
100
AcDbEntity
  8
0
 62
7
100
AcDbSpline
 70
0
 71
3
 72
10
 73
6
 74
4
 40
0.000000
 40
0.000000
 40
0.000000
 40
0.000000
 40
0.076240
 40
0.147739
 40
0.216240
 40
0.216240
 40
0.216240
 40
0.216240
 10
10.329799
 20
1.759528
 30
0.0
 10
10.306644
 20
1.749007
 30
0.0
 10
10.261774
 20
1.728619
 30
0.0
 10
10.191515
 20
1.710092
 30
0.0
 10
10.144826
 20
1.707626
 30
0.0
 10
10.121981
 20
1.706419
 30
0.0
 11
10.329799
 21
1.759528
 31
0.0
 11
10.259500
 21
1.730023
 31
0.0
 11
10.190228
 21
1.712320
 31
0.0
 11
10.121981
 21
1.706419
 31
0.0
  0
LWPOLYLINE
  5
15c
100
AcDbEntity
  8
0
 62
7
100
AcDbPolyline
 90
23
 70
0
 10
10.121981
 20
1.706419
 30
0.0
 10
10.055018
 20
1.715656
 30
0.0
 10
9.918781
 20
1.674092
 30
0.0
 10
9.775618
 20
1.648692
 30
0.0
 10
9.766381
 20
1.588656
 30
0.0
 10
9.667090
 20
1.630219
 30
0.0
 10
9.667090
 20
1.588656
 30
0.0
 10
9.648617
 20
1.588656
 30
0.0
 10
9.581653
 20
1.521692
 30
0.0
 10
9.486980
 20
1.521692
 30
0.0
 10
9.521617
 20
1.427019
 30
0.0
 10
9.431562
 20
1.445493
 30
0.0
 10
9.293017
 20
1.362365
 30
0.0
 10
9.260689
 20
1.327729
 30
0.0
 10
9.184489
 20
1.350819
 30
0.0
 10
9.099053
 20
1.286164
 30
0.0
 10
9.015926
 20
1.286164
 30
0.0
 10
9.015926
 20
1.223819
 30
0.0
 10
8.930489
 20
1.209966
 30
0.0
 10
8.895853
 20
1.133766
 30
0.0
 10
8.854289
 20
1.092202
 30
0.0
 10
8.796562
 20
0.944420
 30
0.0
 10
8.812726
 20
0.930567
 30
0.0
  0
SPLINE
  5
15d
100
AcDbEntity
  8
0
 62
7
100
AcDbSpline
 70
0
 71
3
 72
10
 73
6
 74
4
 40
0.000000
 40
0.000000
 40
0.000000
 40
0.000000
 40
0.022002
 40
0.060162
 40
0.114956
 40
0.114956
 40
0.114956
 40
0.114956
 10
8.812726
 20
0.930567
 30
0.0
 10
8.809064
 20
0.924187
 30
0.0
 10
8.799053
 20
0.906743
 30
0.0
 10
8.771903
 20
0.879252
 30
0.0
 10
8.749646
 20
0.857785
 30
0.0
 10
8.736526
 20
0.845130
 30
0.0
 11
8.812726
 21
0.930567
 31
0.0
 11
8.801180
 21
0.911837
 31
0.0
 11
8.775780
 21
0.883358
 31
0.0
 11
8.736526
 21
0.845130
 31
0.0
  0
LWPOLYLINE
  5
15e
100
AcDbEntity
  8
0
 62
7
100
AcDbPolyline
 90
8
 70
0
 10
8.736526
 20
0.845130
 30
0.0
 10
8.727289
 20
0.718130
 30
0.0
 10
8.660325
 20
0.667330
 30
0.0
 10
8.669562
 20
0.641930
 30
0.0
 10
8.637235
 20
0.641930
 30
0.0
 10
8.637235
 20
0.591130
 30
0.0
 10
8.561035
 20
0.533403
 30
0.0
 10
8.561035
 20
0.514930
 30
0.0
  0
SPLINE
  5
15f
100
AcDbEntity
  8
0
 62
7
100
AcDbSpline
 70
0
 71
3
 72
10
 73
6
 74
4
 40
0.000000
 40
0.000000
 40
0.000000
 40
0.000000
 40
0.021197
 40
0.054730
 40
0.100782
 40
0.100782
 40
0.100782
 40
0.100782
 10
8.561035
 20
0.514930
 30
0.0
 10
8.556556
 20
0.509454
 30
0.0
 10
8.544991
 20
0.495318
 30
0.0
 10
8.528019
 20
0.466205
 30
0.0
 10
8.515291
 20
0.442950
 30
0.0
 10
8.507926
 20
0.429493
 30
0.0
 11
8.561035
 21
0.514930
 31
0.0
 11
8.547950
 21
0.498253
 31
0.0
 11
8.530247
 21
0.469774
 31
0.0
 11
8.507926
 21
0.429493
 31
0.0
  0
LWPOLYLINE
  5
160
100
AcDbEntity
  8
0
 62
7
100
AcDbPolyline
 90
7
 70
0
 10
8.507926
 20
0.429493
 30
0.0
 10
8.489452
 20
0.429493
 30
0.0
 10
8.434034
 20
0.267857
 30
0.0
 10
8.413254
 20
0.297875
 30
0.0
 10
8.413254
 20
0.279402
 30
0.0
 10
8.357835
 20
0.235529
 30
0.0
 10
8.343982
 20
0.191656
 30
0.0
  0
SPLINE
  5
161
100
AcDbEntity
  8
0
 62
7
100
AcDbSpline
 70
0
 71
3
 72
10
 73
6
 74
4
 40
0.000000
 40
0.000000
 40
0.000000
 40
0.000000
 40
0.018966
 40
0.045906
 40
0.081650
 40
0.081650
 40
0.081650
 40
0.081650
 10
8.343982
 20
0.191656
 30
0.0
 10
8.341763
 20
0.185699
 30
0.0
 10
8.336391
 20
0.171278
 30
0.0
 10
8.318687
 20
0.150082
 30
0.0
 10
8.303915
 20
0.135384
 30
0.0
 10
8.295491
 20
0.127002
 30
0.0
 11
8.343982
 21
0.191656
 31
0.0
 11
8.336542
 21
0.174210
 31
0.0
 11
8.320378
 21
0.152659
 31
0.0
 11
8.295491
 21
0.127002
 31
0.0
  0
LWPOLYLINE
  5
162
100
AcDbEntity
  8
0
 62
7
100
AcDbPolyline
 90
2
 70
0
 10
8.295491
 20
0.127002
 30
0.0
 10
8.210052
 20
0.159327
 30
0.0
  0
SPLINE
  5
163
100
AcDbEntity
  8
0
 62
7
100
AcDbSpline
 70
0
 71
3
 72
10
 73
6
 74
4
 40
0.000000
 40
0.000000
 40
0.000000
 40
0.000000
 40
0.023965
 40
0.040491
 40
0.050108
 40
0.050108
 40
0.050108
 40
0.050108
 10
8.210052
 20
0.159327
 30
0.0
 10
8.207219
 20
0.166754
 30
0.0
 10
8.202433
 20
0.179301
 30
0.0
 10
8.195715
 20
0.194977
 30
0.0
 10
8.189315
 20
0.200989
 30
0.0
 10
8.186961
 20
0.203200
 30
0.0
 11
8.210052
 21
0.159327
 31
0.0
 11
8.201329
 21
0.181649
 31
0.0
 11
8.193632
 21
0.196273
 31
0.0
 11
8.186961
 21
0.203200
 31
0.0
  0
LWPOLYLINE
  5
164
100
AcDbEntity
  8
0
 62
7
100
AcDbPolyline
 90
4
 70
0
 10
8.186961
 20
0.203200
 30
0.0
 10
8.196198
 20
0.235527
 30
0.0
 10
8.196198
 20
0.254001
 30
0.0
 10
8.210052
 20
0.297873
 30
0.0
  0
SPLINE
  5
165
100
AcDbEntity
  8
0
 62
7
100
AcDbSpline
 70
0
 71
3
 72
10
 73
6
 74
4
 40
0.000000
 40
0.000000
 40
0.000000
 40
0.000000
 40
0.041741
 40
0.101222
 40
0.179503
 40
0.179503
 40
0.179503
 40
0.179503
 10
8.210052
 20
0.297873
 30
0.0
 10
8.204618
 20
0.310731
 30
0.0
 10
8.191440
 20
0.341910
 30
0.0
 10
8.182890
 20
0.401645
 30
0.0
 10
8.179596
 20
0.447378
 30
0.0
 10
8.177724
 20
0.473364
 30
0.0
 11
8.210052
 21
0.297873
 31
0.0
 11
8.195171
 21
0.336871
 31
0.0
 11
8.184395
 21
0.395368
 31
0.0
 11
8.177724
 21
0.473364
 31
0.0
  0
LWPOLYLINE
  5
166
100
AcDbEntity
  8
0
 62
7
100
AcDbPolyline
 90
9
 70
0
 10
8.177724
 20
0.473364
 30
0.0
 10
8.210052
 20
0.457201
 30
0.0
 10
8.186961
 20
0.482601
 30
0.0
 10
8.186961
 20
0.514927
 30
0.0
 10
8.196198
 20
0.524164
 30
0.0
 10
8.177725
 20
0.581891
 30
0.0
 10
8.196198
 20
0.623455
 30
0.0
 10
8.173108
 20
0.676564
 30
0.0
 10
8.186961
 20
0.695037
 30
0.0
  0
SPLINE
  5
167
100
AcDbEntity
  8
0
 62
7
100
AcDbSpline
 70
0
 71
3
 72
10
 73
6
 74
4
 40
0.000000
 40
0.000000
 40
0.000000
 40
0.000000
 40
0.038352
 40
0.085404
 40
0.141164
 40
0.141164
 40
0.141164
 40
0.141164
 10
8.186961
 20
0.695037
 30
0.0
 10
8.185897
 20
0.707777
 30
0.0
 10
8.183527
 20
0.736147
 30
0.0
 10
8.180550
 20
0.783110
 30
0.0
 10
8.178718
 20
0.817332
 30
0.0
 10
8.177725
 20
0.835892
 30
0.0
 11
8.186961
 21
0.695037
 31
0.0
 11
8.183883
 21
0.733265
 31
0.0
 11
8.180804
 21
0.780217
 31
0.0
 11
8.177725
 21
0.835892
 31
0.0
  0
LWPOLYLINE
  5
168
100
AcDbEntity
  8
0
 62
7
100
AcDbPolyline
 90
11
 70
0
 10
8.177725
 20
0.835892
 30
0.0
 10
8.221597
 20
0.870528
 30
0.0
 10
8.348597
 20
0.771237
 30
0.0
 10
8.424797
 20
0.771237
 30
0.0
 10
8.692652
 20
1.106055
 30
0.0
 10
8.651088
 20
1.133764
 30
0.0
 10
8.660325
 20
1.182255
 30
0.0
 10
8.574889
 20
1.147619
 30
0.0
 10
8.561035
 20
1.124529
 30
0.0
 10
8.542562
 20
1.133766
 30
0.0
 10
8.489453
 20
1.106056
 30
0.0
  0
SPLINE
  5
169
100
AcDbEntity
  8
0
 62
7
100
AcDbSpline
 70
0
 71
3
 72
10
 73
6
 74
4
 40
0.000000
 40
0.000000
 40
0.000000
 40
0.000000
 40
0.023012
 40
0.056992
 40
0.102384
 40
0.102384
 40
0.102384
 40
0.102384
 10
8.489453
 20
1.106056
 30
0.0
 10
8.482430
 20
1.102925
 30
0.0
 10
8.465036
 20
1.095169
 30
0.0
 10
8.431307
 20
1.088645
 30
0.0
 10
8.405131
 20
1.085032
 30
0.0
 10
8.390162
 20
1.082966
 30
0.0
 11
8.489453
 21
1.106056
 31
0.0
 11
8.468158
 21
1.097334
 31
0.0
 11
8.435061
 21
1.089637
 31
0.0
 11
8.390162
 21
1.082966
 31
0.0
  0
LWPOLYLINE
  5
16a
100
AcDbEntity
  8
0
 62
7
100
AcDbPolyline
 90
2
 70
0
 10
8.390162
 20
1.082966
 30
0.0
 10
8.313962
 20
1.182257
 30
0.0
  0
SPLINE
  5
16b
100
AcDbEntity
  8
0
 62
7
100
AcDbSpline
 70
0
 71
3
 72
13
 73
9
 74
7
 40
0.000000
 40
0.000000
 40
0.000000
 40
0.000000
 40
0.087868
 40
0.150446
 40
0.190491
 40
0.214845
 40
0.257796
 40
0.320634
 40
0.320634
 40
0.320634
 40
0.320634
 10
8.313962
 20
1.182257
 30
0.0
 10
8.325860
 20
1.208721
 30
0.0
 10
8.346231
 20
1.254031
 30
0.0
 10
8.371910
 20
1.314798
 30
0.0
 10
8.414896
 20
1.334292
 30
0.0
 10
8.421254
 20
1.371824
 30
0.0
 10
8.452105
 20
1.403987
 30
0.0
 10
8.475536
 20
1.430027
 30
0.0
 10
8.489453
 20
1.445494
 30
0.0
 11
8.313962
 21
1.182257
 31
0.0
 11
8.349625
 21
1.262562
 31
0.0
 11
8.382722
 21
1.315671
 31
0.0
 11
8.413253
 21
1.341585
 31
0.0
 11
8.421720
 21
1.364419
 31
0.0
 11
8.447120
 21
1.399055
 31
0.0
 11
8.489453
 21
1.445494
 31
0.0
  0
SPLINE
  5
16c
100
AcDbEntity
  8
0
 62
7
100
AcDbSpline
 70
0
 71
3
 72
10
 73
6
 74
4
 40
0.000000
 40
0.000000
 40
0.000000
 40
0.000000
 40
0.018360
 40
0.052652
 40
0.103342
 40
0.103342
 40
0.103342
 40
0.103342
 10
9.189106
 20
1.902694
 30
0.0
 10
9.192280
 20
1.907951
 30
0.0
 10
9.201383
 20
1.923027
 30
0.0
 10
9.227051
 20
1.946528
 30
0.0
 10
9.248121
 20
1.965355
 30
0.0
 10
9.260688
 20
1.976585
 30
0.0
 11
9.189106
 21
1.902694
 31
0.0
 11
9.199112
 21
1.918088
 31
0.0
 11
9.222972
 21
1.942718
 31
0.0
 11
9.260688
 21
1.976585
 31
0.0
  0
LWPOLYLINE
  5
16d
100
AcDbEntity
  8
0
 62
7
100
AcDbPolyline
 90
19
 70
0
 10
8.489453
 20
1.445494
 30
0.0
 10
8.542562
 20
1.461657
 30
0.0
 10
8.533325
 20
1.470894
 30
0.0
 10
8.618762
 20
1.588657
 30
0.0
 10
8.627998
 20
1.588657
 30
0.0
 10
8.831198
 20
1.630221
 30
0.0
 10
8.854288
 20
1.588657
 30
0.0
 10
8.895852
 20
1.597894
 30
0.0
 10
8.905089
 20
1.588657
 30
0.0
 10
8.930489
 20
1.588657
 30
0.0
 10
8.948962
 20
1.630221
 30
0.0
 10
9.015926
 20
1.620984
 30
0.0
 10
9.015926
 20
1.639458
 30
0.0
 10
9.066726
 20
1.683330
 30
0.0
 10
9.034398
 20
1.738749
 30
0.0
 10
9.075962
 20
1.801094
 30
0.0
 10
9.184489
 20
1.842658
 30
0.0
 10
9.175253
 20
1.868058
 30
0.0
 10
9.189106
 20
1.902694
 30
0.0
  0
SPLINE
  5
16e
100
AcDbEntity
  8
0
 62
7
100
AcDbSpline
 70
0
 71
3
 72
10
 73
6
 74
4
 40
0.000000
 40
0.000000
 40
0.000000
 40
0.000000
 40
0.104958
 40
0.179682
 40
0.227775
 40
0.227775
 40
0.227775
 40
0.227775
 10
9.260688
 20
1.976585
 30
0.0
 10
9.270089
 20
2.010074
 30
0.0
 10
9.286184
 20
2.067405
 30
0.0
 10
9.313326
 20
2.140477
 30
0.0
 10
9.343532
 20
2.168724
 30
0.0
 10
9.355361
 20
2.179785
 30
0.0
 11
9.260688
 21
1.976585
 31
0.0
 11
9.290706
 21
2.077159
 31
0.0
 11
9.322264
 21
2.144892
 31
0.0
 11
9.355361
 21
2.179785
 31
0.0
  0
LWPOLYLINE
  5
16f
100
AcDbEntity
  8
0
 62
7
100
AcDbPolyline
 90
13
 70
0
 10
9.355361
 20
2.179785
 30
0.0
 10
9.336887
 20
2.179785
 30
0.0
 10
9.445415
 20
2.316021
 30
0.0
 10
9.454651
 20
2.306785
 30
0.0
 10
9.616288
 20
2.563094
 30
0.0
 10
9.607051
 20
2.563094
 30
0.0
 10
9.667087
 20
2.653148
 30
0.0
 10
9.680941
 20
2.653148
 30
0.0
 10
9.810250
 20
2.888676
 30
0.0
 10
9.828723
 20
2.888676
 30
0.0
 10
9.937250
 20
3.068785
 30
0.0
 10
9.969578
 20
3.078021
 30
0.0
 10
10.022687
 20
3.177312
 30
0.0
  0
LWPOLYLINE
  5
170
100
AcDbEntity
  8
0
 62
7
100
AcDbPolyline
 90
12
 70
0
 10
10.064250
 20
3.281221
 30
0.0
 10
10.140450
 20
3.338949
 30
0.0
 10
10.140450
 20
3.348185
 30
0.0
 10
10.182014
 20
3.456712
 30
0.0
 10
10.207414
 20
3.465949
 30
0.0
 10
10.216651
 20
3.551385
 30
0.0
 10
10.248978
 20
3.551385
 30
0.0
 10
10.258215
 20
3.583713
 30
0.0
 10
10.267451
 20
3.583713
 30
0.0
 10
10.292851
 20
3.636822
 30
0.0
 10
10.475270
 20
3.745349
 30
0.0
 10
10.569943
 20
3.810000
 30
0.0
  0
SPLINE
  5
171
100
AcDbEntity
  8
0
 62
7
100
AcDbSpline
 70
0
 71
3
 72
10
 73
6
 74
4
 40
0.000000
 40
0.000000
 40
0.000000
 40
0.000000
 40
0.017918
 40
0.055222
 40
0.112106
 40
0.112106
 40
0.112106
 40
0.112106
 10
10.022687
 20
3.177312
 30
0.0
 10
10.025707
 20
3.182475
 30
0.0
 10
10.035014
 20
3.198386
 30
0.0
 10
10.047421
 20
3.233823
 30
0.0
 10
10.057913
 20
3.263374
 30
0.0
 10
10.064250
 20
3.281221
 30
0.0
 11
10.022687
 21
3.177312
 31
0.0
 11
10.031410
 21
3.192963
 31
0.0
 11
10.045265
 21
3.227599
 31
0.0
 11
10.064250
 21
3.281221
 31
0.0
  0
LWPOLYLINE
  5
172
100
AcDbEntity
  8
0
 62
7
100
AcDbPolyline
 90
10
 70
0
 10
10.207415
 20
3.119582
 30
0.0
 10
10.131215
 20
3.101109
 30
0.0
 10
10.131215
 20
3.068781
 30
0.0
 10
10.055015
 20
2.992581
 30
0.0
 10
10.031925
 20
2.992581
 30
0.0
 10
9.928016
 20
2.842490
 30
0.0
 10
9.918779
 20
2.842490
 30
0.0
 10
9.842579
 20
2.694709
 30
0.0
 10
9.842579
 20
2.671619
 30
0.0
 10
9.814870
 20
2.630055
 30
0.0
  0
SPLINE
  5
173
100
AcDbEntity
  8
0
 62
7
100
AcDbSpline
 70
0
 71
3
 72
10
 73
6
 74
4
 40
0.000000
 40
0.000000
 40
0.000000
 40
0.000000
 40
0.018857
 40
0.037362
 40
0.056219
 40
0.056219
 40
0.056219
 40
0.056219
 10
9.814870
 20
2.630055
 30
0.0
 10
9.811565
 20
2.624693
 30
0.0
 10
9.805016
 20
2.614069
 30
0.0
 10
9.791602
 20
2.600655
 30
0.0
 10
9.780978
 20
2.594106
 30
0.0
 10
9.775616
 20
2.590800
 30
0.0
 11
9.814870
 21
2.630055
 31
0.0
 11
9.804352
 21
2.614404
 31
0.0
 11
9.791267
 21
2.601320
 31
0.0
 11
9.775616
 21
2.590800
 31
0.0
  0
LWPOLYLINE
  5
174
100
AcDbEntity
  8
0
 62
7
100
AcDbPolyline
 90
3
 70
0
 10
9.775616
 20
2.590800
 30
0.0
 10
9.710961
 20
2.553855
 30
0.0
 10
9.680943
 20
2.477655
 30
0.0
  0
SPLINE
  5
175
100
AcDbEntity
  8
0
 62
7
100
AcDbSpline
 70
0
 71
3
 72
10
 73
6
 74
4
 40
0.000000
 40
0.000000
 40
0.000000
 40
0.000000
 40
0.033483
 40
0.087909
 40
0.163634
 40
0.163634
 40
0.163634
 40
0.163634
 10
9.680943
 20
2.477655
 30
0.0
 10
9.677790
 20
2.466932
 30
0.0
 10
9.669512
 20
2.438779
 30
0.0
 10
9.663547
 20
2.384347
 30
0.0
 10
9.659947
 20
2.341151
 30
0.0
 10
9.657853
 20
2.316019
 30
0.0
 11
9.680943
 21
2.477655
 31
0.0
 11
9.672220
 21
2.445328
 31
0.0
 11
9.664524
 21
2.391449
 31
0.0
 11
9.657853
 21
2.316019
 31
0.0
  0
LWPOLYLINE
  5
176
100
AcDbEntity
  8
0
 62
7
100
AcDbPolyline
 90
8
 70
0
 10
9.657853
 20
2.316019
 30
0.0
 10
9.616289
 20
2.325255
 30
0.0
 10
9.607053
 20
2.265219
 30
0.0
 10
9.521616
 20
2.198255
 30
0.0
 10
9.530853
 20
2.189019
 30
0.0
 10
9.530853
 20
2.135910
 30
0.0
 10
9.454653
 20
2.103582
 30
0.0
 10
9.394617
 20
1.935019
 30
0.0
  0
SPLINE
  5
177
100
AcDbEntity
  8
0
 62
7
100
AcDbSpline
 70
0
 71
3
 72
10
 73
6
 74
4
 40
0.000000
 40
0.000000
 40
0.000000
 40
0.000000
 40
0.031981
 40
0.059882
 40
0.083909
 40
0.083909
 40
0.083909
 40
0.083909
 10
9.394617
 20
1.935019
 30
0.0
 10
9.391076
 20
1.924964
 30
0.0
 10
9.384448
 20
1.906137
 30
0.0
 10
9.373137
 20
1.880475
 30
0.0
 10
9.364142
 20
1.865669
 30
0.0
 10
9.359980
 20
1.858819
 30
0.0
 11
9.394617
 21
1.935019
 31
0.0
 11
9.383584
 21
1.905000
 31
0.0
 11
9.372039
 21
1.879600
 31
0.0
 11
9.359980
 21
1.858819
 31
0.0
  0
LWPOLYLINE
  5
178
100
AcDbEntity
  8
0
 62
7
100
AcDbPolyline
 90
38
 70
0
 10
9.359980
 20
1.858819
 30
0.0
 10
9.304562
 20
1.782619
 30
0.0
 10
9.313798
 20
1.768765
 30
0.0
 10
9.313798
 20
1.759528
 30
0.0
 10
9.336889
 20
1.747982
 30
0.0
 10
9.473125
 20
1.747982
 30
0.0
 10
9.530852
 20
1.715655
 30
0.0
 10
9.710961
 20
1.824182
 30
0.0
 10
9.861052
 20
1.833419
 30
0.0
 10
9.870289
 20
1.801091
 30
0.0
 10
9.884143
 20
1.858819
 30
0.0
 10
9.969579
 20
1.858819
 30
0.0
 10
10.121979
 20
1.900382
 30
0.0
 10
10.163543
 20
1.886529
 30
0.0
 10
10.258215
 20
1.918856
 30
0.0
 10
10.258215
 20
1.928093
 30
0.0
 10
10.401379
 20
1.976584
 30
0.0
 10
10.401379
 20
1.985820
 30
0.0
 10
10.579179
 20
2.027384
 30
0.0
 10
10.579179
 20
2.080493
 30
0.0
 10
10.519143
 20
2.135911
 30
0.0
 10
10.519143
 20
2.316020
 30
0.0
 10
10.569943
 20
2.433784
 30
0.0
 10
10.519143
 20
2.468420
 30
0.0
 10
10.452179
 20
2.433784
 30
0.0
 10
10.366743
 20
2.553856
 30
0.0
 10
10.486815
 20
2.563093
 30
0.0
 10
10.486815
 20
2.595420
 30
0.0
 10
10.343652
 20
2.627748
 30
0.0
 10
10.357505
 20
2.662384
 30
0.0
 10
10.315941
 20
2.713184
 30
0.0
 10
10.343650
 20
2.757057
 30
0.0
 10
10.267450
 20
2.874820
 30
0.0
 10
10.281304
 20
2.897911
 30
0.0
 10
10.302084
 20
2.907147
 30
0.0
 10
10.267448
 20
2.941784
 30
0.0
 10
10.239739
 20
3.101111
 30
0.0
 10
10.207415
 20
3.119582
 30
0.0
  0
ENDSEC
  0
SECTION
  2
OBJECTS
  0
DICTIONARY
  5
C
330
0
100
AcDbDictionary
  3
ACAD_GROUP
350
D
  3
ACAD_MLINESTYLE
350
17
  0
DICTIONARY
  5
D
330
C
100
AcDbDictionary
  0
DICTIONARY
  5
1A
330
C
100
AcDbDictionary
  0
DICTIONARY
  5
17
330
C
100
AcDbDictionary
  3
STANDARD
350
18
  0
DICTIONARY
  5
19
330
C
100
AcDbDictionary
  0
ENDSEC
  0
EOF
