<?xml version="1.0" encoding="UTF-8" standalone="no"?>
<!-- Generator: Adobe Illustrator 24.0.1, SVG Export Plug-In . SVG Version: 6.00 Build 0)  -->

<svg
   xmlns:dc="http://purl.org/dc/elements/1.1/"
   xmlns:cc="http://creativecommons.org/ns#"
   xmlns:rdf="http://www.w3.org/1999/02/22-rdf-syntax-ns#"
   xmlns:svg="http://www.w3.org/2000/svg"
   xmlns="http://www.w3.org/2000/svg"
   xmlns:sodipodi="http://sodipodi.sourceforge.net/DTD/sodipodi-0.dtd"
   xmlns:inkscape="http://www.inkscape.org/namespaces/inkscape"
   version="1.1"
   id="Layer_1"
   x="0px"
   y="0px"
   viewBox="0 0 46.529751 26.456692"
   xml:space="preserve"
   sodipodi:docname="ea_black_cat.svg"
   width="46.529751"
   height="26.456692"
   inkscape:version="0.92.4 (5da689c313, 2019-01-14)"><metadata
   id="metadata27"><rdf:RDF><cc:Work
       rdf:about=""><dc:format>image/svg+xml</dc:format><dc:type
         rdf:resource="http://purl.org/dc/dcmitype/StillImage" /><dc:title></dc:title></cc:Work></rdf:RDF></metadata><defs
   id="defs25" /><sodipodi:namedview
   pagecolor="#ffffff"
   bordercolor="#666666"
   borderopacity="1"
   objecttolerance="10"
   gridtolerance="10"
   guidetolerance="10"
   inkscape:pageopacity="0"
   inkscape:pageshadow="2"
   inkscape:window-width="1920"
   inkscape:window-height="986"
   id="namedview23"
   showgrid="false"
   inkscape:zoom="24.930285"
   inkscape:cx="23.264876"
   inkscape:cy="7.8198873"
   inkscape:window-x="-11"
   inkscape:window-y="-11"
   inkscape:window-maximized="1"
   inkscape:current-layer="text839" />
<style
   type="text/css"
   id="style2">
	.st0{fill:none;stroke:#000000;stroke-width:2.2677;stroke-linecap:round;stroke-miterlimit:10;}
	.st1{fill:none;stroke:#000000;stroke-width:2.8346;stroke-miterlimit:10;}
</style>
<g
   id="BG"
   transform="translate(-24.782697,-315.64331)">
</g>
<g
   id="Ref"
   transform="translate(-24.782697,-315.64331)">
</g>
<g
   id="g20"
   transform="matrix(0.07836698,0,0,0.07836698,-1.9421451,-0.35265141)">
	<path
   d="m 99.5,120.5 c 2.4,5 5.4,12.7 6.4,22.4 0.6,6.2 0.3,11.6 -0.3,15.9 4.6,-0.3 6.5,-1.9 7.4,-3.2 3.3,-4.6 -1.8,-11.8 2.2,-16.4 1.3,-1.5 2.4,-1.3 3,-2.9 1.2,-3.1 -2.3,-6 -0.9,-8.8 0.7,-1.4 1.7,-0.9 2.7,-2.6 1.3,-2.1 0.3,-3.6 0.8,-6.2 0.6,-3.5 2.9,-3.2 4.6,-7.1 2.1,-4.9 -0.1,-8.6 2,-9.8 1.7,-1 3.3,1.3 5.6,0.4 3.1,-1.1 1.6,-6 5.2,-10.2 2.9,-3.4 4.9,-1.6 9.5,-5.8 2.8,-2.5 2.7,-3.7 6.2,-7.3 2.5,-2.6 4.8,-4.3 6.4,-5.4 -1.8,3 -2.3,5.7 -1.2,6.8 1.5,1.4 5.3,-0.4 6,-0.8 4.7,-2.3 5.3,-5.9 8.3,-5.9 2,0 2.2,1.6 4.6,1.6 2.5,0 3.3,-1.9 6.5,-2.9 2.1,-0.7 4,-0.7 5.4,-0.5 -2.5,2 -3.7,4.8 -3.1,7.3 0.1,0.4 0.8,2.9 2.9,3.3 1.5,0.3 3.2,-0.4 4.2,-1.9 -0.3,2.3 -0.3,5.2 1.4,6.4 1.4,0.9 2.5,-0.3 5.3,0.1 3.4,0.5 4.1,2.8 8.1,4.1 1.9,0.6 3.6,0.7 4.6,0.7 -1,1.5 -1,3.4 -0.1,4.7 1.2,1.6 3.6,2.2 5.5,1.1 0.3,1.7 0.5,4 0.1,6.6 -0.6,4.1 -2.1,6.1 -0.9,8 0.9,1.5 2.1,0.9 3.6,2.5 1.6,1.8 0.9,3.6 1.5,8.2 0.5,3.7 1,7.7 3.7,9 1.3,0.7 3.3,0.6 4.1,-0.3 0.9,-1 0,-2.4 -0.2,-5.3 -0.2,-2.4 0.2,-3 0.4,-4.6 0.1,-0.9 0.1,-1.5 0.1,-1.9 0,-3 0.8,-6 0.7,-8.5 -0.1,-1.7 -0.6,-4.1 -2.6,-6.9 1.7,-3 2,-5.4 1.9,-7.1 -0.1,-3.5 -1.8,-5.1 -2.5,-9.8 -0.3,-2.2 -0.2,-4 -0.1,-5.3 0.3,0.6 1.1,2.1 2.9,3.1 0.6,0.3 2.5,1.3 3.9,0.5 0.9,-0.5 1.1,-1.5 1.6,-4.6 0.3,-1.7 0.6,-4 0.8,-6.8 0.9,-1 2.3,-3 3.1,-5.9 1,-3.9 0.1,-7.2 -0.4,-8.5 1.2,-0.4 3,-1.2 4.9,-2.7 1.1,-0.9 2.5,-2.1 3.4,-4.1 1.3,-2.9 0.8,-5.6 0.5,-6.8 2.2,0.4 3.6,1.2 4.5,1.9 1.1,0.8 2.5,2.1 4,2 0.1,0 0.1,0 0.2,-0.1 1.5,-0.6 1.7,-4.2 0.8,-6.8 -0.6,-1.7 -1.5,-2.9 -2.2,-3.6 1.3,-0.3 3.2,-1 4.9,-2.7 2.5,-2.4 3.1,-5.4 3.3,-7 0.4,-2.1 0.2,-3.8 0.1,-5 0.8,0.2 2.1,0.4 3.7,0.3 0.5,0 6.6,-0.7 7.9,-5 0.2,-0.6 0.6,-2.3 -0.6,-4.7 1.2,0.9 3,2.1 5.4,2.9 1.9,0.7 4.6,1.5 7.8,0.6 3.4,-1 5.3,-3.4 5.9,-4.3 1.8,-2.4 2.2,-4.9 2.4,-6 2.1,0.4 5.9,0.7 10.3,-0.4 3.9,-1 6.8,-2.8 8.4,-4 -0.1,0.3 -1.5,4.3 1,7.6 1.7,2.2 4.1,2.8 4.8,2.9 -2.8,0 -5.2,1.6 -5.9,3.9 -0.7,2.1 0.4,4 0.6,4.4 -0.2,0.2 -1.8,2.4 -1,4.9 0.7,2.2 2.8,3.8 5.3,3.9 -1.9,0.9 -4.5,2.5 -6.7,5.4 -1.4,1.8 -3.3,4.4 -3.1,7.9 0.1,2 1,3.6 1.5,4.5 -5.2,-1.3 -9.7,1.3 -10.3,4.5 -0.6,2.9 2.1,5.5 2.4,5.8 -1.3,0.3 -5.1,1.3 -6.3,4.2 -0.3,0.7 -0.5,1.7 0.3,5.8 0.6,3 1.3,5.4 1.8,7.2 -1,0.5 -3.6,1.9 -5.4,4.9 -2.2,3.7 -1.8,7.3 -1.6,8.3 -3.6,-0.9 -7,0.7 -8.1,3.4 -1.1,2.7 0.6,5.4 0.8,5.7 -4.3,0.5 -6.6,2.1 -7.8,3.4 -1.2,1.3 -1.5,2.5 -4,7.5 -0.9,1.8 -1.7,3.2 -2.2,4.2 -1.2,-1.6 -3.3,-2.2 -5,-1.4 -2,0.9 -2.3,3.4 -1.9,5 0.6,2.3 3,3.2 3.2,3.3 -1.2,3.1 -2.4,5.6 -3.4,7.5 -1.5,2.9 -2.2,4 -3.5,4.4 -1.5,0.5 -2.8,-0.2 -3.5,0.7 -0.6,0.7 0.2,1.6 -0.1,2.9 -0.3,1.8 -2.2,2.9 -4.6,4.2 -3.8,2.1 -4.9,1.4 -6,3 -1,1.4 -0.4,2.2 -1.7,4.5 -0.9,1.6 -1.2,1.4 -2,2.7 -1.8,3.1 -0.4,4.9 -2,6.8 -1.6,1.8 -3.6,1 -4.1,2.4 -0.4,1.3 1.3,2.2 2.1,5.6 0.3,1.2 0.5,2.1 0.2,3.2 -0.5,1.7 -1.7,1.9 -2.7,3.4 -1.3,2.1 -1.2,5.3 0,7.4 1.1,1.8 2.6,1.7 4.5,4.4 0.7,1 1.1,1.8 1.3,2.4 -0.2,0.8 -0.5,2 -1.3,3.2 -1,1.6 -1.7,1.8 -2.2,3.1 -0.7,1.7 0.1,2.1 -0.4,3.7 -0.7,2.3 -2.4,1.9 -3.2,4.1 -0.9,2.4 0.3,5.1 0.5,5.5 0.5,1.1 0.8,1 0.9,1.7 0.3,1.7 -1.2,2.8 -3,5.7 -0.8,1.2 -2,3 -2.5,5.1 -0.4,1.5 -0.6,3.6 0.1,6.4 -1.9,-1.1 -3.8,-1.1 -4.7,-0.2 -1,1.1 -0.1,3.4 0.1,3.9 0.4,0.9 0.7,1.2 2.6,3.5 0.7,0.9 1.3,1.6 1.6,2.1 -0.9,0.2 -2.6,0.7 -3.9,2.1 -2.7,3 -2.3,8.5 0,9.7 0.4,0.2 1.3,0.5 3,-0.2 -0.4,0.7 -1,1.9 -1.2,3.4 -0.3,2.7 0.8,4.7 1.5,5.9 1.3,2.2 2.9,3.5 4.9,5.1 2.9,2.3 3.7,2.1 4.1,3.3 0.6,1.9 -1.1,3 -2.1,6.9 -0.5,2 -0.5,3.3 -0.5,4.9 -0.4,9.2 -4.5,22.4 -3,27.1 0.4,1.3 0.6,1.9 0.6,1.9 1,2.8 1.4,3.2 1.5,4.2 0.1,1.5 -0.9,1.8 -1.6,3.6 -0.5,1.2 -0.4,1.8 0,7.1 0.4,5.1 0.5,6.5 -0.5,7.3 -1,0.9 -2.4,0.2 -2.8,1.1 -0.5,0.9 0.8,2 1.5,4.1 0.6,1.8 0.5,3.4 0.3,4.6 -0.1,-0.2 -0.5,-1.4 -1.9,-1.9 -0.2,-0.1 -1.4,-0.5 -2.4,0.2 -1.1,0.7 -1.5,2.6 -0.7,4.3 0,-0.4 -0.4,-2.8 -2.3,-3.8 -0.3,-0.2 -1.2,-0.6 -2,-0.3 -1.1,0.4 -1.9,1.9 -1.8,3.8 -1.4,-2 -1.9,-3.7 -2.1,-4.9 -0.3,-1.5 -0.1,-2.5 -0.8,-3 -0.8,-0.5 -2.2,-0.1 -2.9,0.7 -0.7,0.8 -0.5,1.8 -0.3,3.5 0.2,1.3 0.5,3.5 0.9,6.4 -2.9,-3.9 -4.8,-7 -5.4,-8.1 -0.8,-1.6 -1.2,-3.1 -1.2,-3.1 -0.2,-0.7 -1.8,-7 1,-10.8 3.8,-5.1 12.9,-2.3 15.1,-7.3 0.6,-1.4 0.6,-3.2 0.6,-3.7 0,-2.4 -0.7,-3.4 -1.3,-5.8 -0.6,-2.5 0,-2.1 -0.6,-8 -0.4,-4.2 -0.9,-6.3 -1.1,-6.8 -0.7,-2.6 -0.9,-2.3 -1.3,-4.1 -0.8,-4.1 0.5,-5 -0.3,-8.2 -0.7,-2.8 -1.9,-2.2 -3,-5.5 -1.1,-3.3 -0.2,-4.3 -1.5,-7 -1,-2 -1.5,-1.5 -3.3,-4.2 -1.9,-2.9 -3.3,-6.4 -3.7,-7.4 -0.7,-1.9 -1.2,-3.5 -2.4,-3.9 -0.1,0 -0.9,-0.2 -1.5,0.2 -0.7,0.6 -0.7,1.8 -0.5,3.4 0.5,3.7 1,7.1 3.8,10.1 1.3,1.4 1.4,0.9 2.2,2 2.1,2.7 2.3,6.6 1.3,9.6 -0.6,1.8 -1.2,2.5 -1.9,4 -2.3,4.6 -0.5,6.6 -1.5,13.3 -1,6.8 -4.2,13.6 -2.2,15.5 0.2,0.2 0.7,0.6 0.9,1.3 0.4,1.3 -0.5,2.7 -1,3.4 -1.2,1.7 -2.8,2.7 -4.9,4 -1.8,1.1 -2.3,1.1 -2.7,1.9 -0.5,1.1 0,1.7 0.1,4.2 0,1 0.2,4.1 -0.9,4.5 -0.7,0.3 -1.3,-0.7 -2,-0.4 -0.7,0.3 -0.9,1.3 -1,2.2 -0.2,-0.3 -1.8,-3 -4.6,-3.2 -0.4,0 -1.5,-0.1 -2.6,0.6 -1.2,0.8 -1.5,2.1 -1.6,2.4 -0.2,-0.4 -0.8,-2.1 -2.5,-2.7 -0.3,-0.1 -1,-0.4 -1.7,-0.1 -1,0.3 -1.7,1.5 -1.8,2.9 -0.6,-1 -1.3,-2.5 -1.7,-4.5 -0.7,-3.7 0.4,-6.8 1.4,-9.5 1.2,-3.4 1.9,-5 3.5,-6.1 1.7,-1.2 3.8,-1.3 8.1,-1.6 3.1,-0.2 5,-0.1 5.8,-1.4 0.4,-0.7 0.4,-1.4 0.3,-2.3 -0.2,-2.4 0.4,1.5 0.3,-7.3 0,-8 -0.1,-11.9 -0.6,-17.3 -0.5,-5.4 -1.3,-10.3 -1.9,-12.7 -2.8,-13.4 -11.6,-25.2 -17.4,-31.8 0.1,-1.3 0.1,-2.6 0,-4.1 -0.8,-7.4 -5.4,-12.4 -7.7,-14.6 0.7,-2.8 0.7,-5.1 0.6,-6.7 -0.1,-2.1 -0.5,-2.9 -1.1,-3.4 -0.7,-0.5 -1.8,-0.6 -2.6,-0.2 -1.1,0.6 -1.3,2.2 -1.4,3.8 -0.3,4.5 0,8 0.1,9.2 0.2,2.4 -0.2,4.8 -0.9,9.4 -1.6,11.2 -4.5,13.7 -3.3,19.4 0.7,3 2.1,5.3 3.2,6.8 -1,0.3 -2.4,1 -3.3,2.4 -1.4,2.2 -1,4.7 -0.7,6.2 0.8,5.4 -0.5,10.8 -0.7,16.2 -0.2,5.8 -0.4,7.8 -0.3,11.9 0.2,6.6 1,8.1 1.3,8.7 0.9,1.8 2.1,3.1 2.6,5.8 0.3,1.5 0.1,2.3 0.1,3.7 -0.1,2.1 0.1,5.1 1.5,8.9 -2,-1.9 -4,-2.7 -5.1,-3 -1.2,-0.3 -2.4,-0.7 -3.1,0 -0.6,0.6 -0.7,1.8 -0.1,3.1 -0.4,-0.3 -2,-1.7 -4.3,-1.6 -0.6,0 -2.2,0.1 -3.3,1.4 -1.6,1.7 -0.9,4.1 -0.9,4.3 -2.2,0.3 -5.2,0.4 -7.4,-1.4 -2.7,-2.4 -1.9,-6.3 -4.3,-7.1 -1.8,-0.6 -4.3,0.9 -5,2.6 -0.4,1 0.2,1.6 0.3,3.9 0.1,1.5 -0.1,2.7 -0.2,3.5 -0.9,-1.5 -2.4,-2.4 -3.7,-2.2 -0.8,0.1 -1.4,0.6 -1.6,0.8 -1.6,1.4 -1.2,3.8 -1.2,4.1 -0.1,-0.9 -0.5,-2.8 -2.1,-4.1 -0.4,-0.3 -1.5,-1.2 -2.5,-0.9 -0.7,0.3 -1,1.2 -1.1,1.5 -0.6,2.2 1.3,4.3 1.7,4.7 -1,0 -3.4,-0.1 -5.1,-1.9 -2.1,-2.1 -1.9,-5.2 -1.6,-7.6 0.5,-5.6 3.6,-9.3 4.6,-10.4 1.1,-1.3 3.6,-4.1 7.9,-5.5 2.1,-0.7 3.9,-0.8 5.2,-0.8 0.1,-4.2 0.2,-8.1 0.1,-11.4 0,-2.2 0,-5.6 -0.1,-9.8 -0.1,-2.1 -0.1,-4 -0.2,-5.4 -2,-3.4 -2.5,-6.2 -2.7,-8.2 -0.1,-2.1 0.2,-3.1 -0.3,-5.6 -0.4,-1.9 -0.8,-2 -1.8,-5.2 -0.7,-2.2 -1.1,-3.6 -1.4,-5.5 -0.3,-3 0.4,-2.9 -0.1,-5 -0.6,-2.8 -2,-3.5 -2.1,-6.2 0,-1.4 0.4,-1.2 0.3,-2.5 0,-3 -2.1,-3.6 -2.6,-6.4 -0.5,-2.7 1.4,-3.2 1.1,-7 -0.1,-1.2 -0.2,-3.6 -1.8,-5.2 -0.7,-0.7 -2.1,-1.2 -4.9,-2.3 -3.5,-1.4 -3.5,-1.2 -4.1,-1.7 -2.2,-1.9 -1.3,-4.3 -3.3,-5.5 -1.4,-0.8 -3.4,-0.6 -4.6,0.3 -1.4,1.1 -1.4,2.9 -1.5,4.6 0,0 -0.4,5.7 -1.7,11.2 -0.3,1.4 -2.3,9.5 -6.6,10.3 -3,0.6 -4.2,-3 -9.9,-3.3 -1.8,-0.1 -2.9,0.2 -3.7,-0.6 -0.8,-0.8 -0.7,-2.1 -0.3,-6.6 0.2,-2.1 0.3,-3.7 0.3,-4.2 0.1,0.4 0.5,3.1 2.6,4.1 0.8,0.4 1.4,0.4 2.3,0.4 1.4,0 3.8,0 5.2,-1.6 1.4,-1.6 1.4,-4.2 0.1,-6.6 0.7,0.6 2.3,1.7 3.7,1.3 1.1,-0.3 1.5,-1.2 3.2,-4.5 2.6,-5 2.9,-5.2 3,-6.4 0.1,-0.6 0.5,-4.6 -1.7,-5.7 -1.6,-0.8 -3.6,0.2 -4.6,1 -0.9,0.7 -1.1,1.3 -2.1,2.7 -1.7,2.5 -2.7,3.9 -4.3,4.7 -1,0.5 -3,0.5 -7,0.6 -1.7,0 -2.6,0 -3.6,0.6 -1.4,0.8 -1.3,1.7 -2.6,2.8 -1.8,1.7 -4.6,2.3 -6.9,1.8 -1.5,-0.3 -2.4,-1.1 -4,-2.3 -2.3,-1.8 -2.3,-2.6 -3.9,-3.9 -1.4,-1 -3.1,-1.4 -6.4,-2.2 -5.2,-1.2 -6.3,-0.6 -8,-2 -2.1,-1.7 -2.6,-4.2 -2.8,-5 -0.4,-1.8 -0.2,-3.1 1.3,-8.5 2.1,-7.5 2.5,-8.1 2.1,-9.8 -0.1,-0.5 -1.2,-2.5 -3.4,-6.4 -2.4,-4.3 -2.6,-4.5 -2.8,-5.1 -1.1,-2.7 -1.2,-5.2 -1.1,-9.2 0.1,-3.9 0.4,-8.9 1.2,-15 1.1,0.9 2.6,2.3 3.7,4.3 0.7,1.2 0.7,1.7 1.3,3.1 0.8,2.1 2.3,5.8 5.6,8 1,0.7 3.1,2.1 4.8,1.4 1.2,-0.5 1.1,-1.5 2.8,-3.8 0.9,-1.2 2.2,-2.8 4.2,-3.7 1.6,-0.7 3.2,-0.8 4.3,-0.7 0.9,-0.9 1.7,-1.9 2.6,-2.8 0.3,0.3 1.3,1.3 2.9,1.4 2.3,0.2 3.8,-1.3 4,-1.5 0.7,0.2 2.1,0.5 3.7,0.3 0.6,-0.1 2.1,-0.3 3.3,-1.3 1.1,-0.8 1.1,-1.5 2.8,-6 1.1,-3 1.7,-4.1 2.6,-5.4 0.8,-1.1 1,-1.1 1.7,-1.9 1.9,-2.5 1.9,-5 2.4,-7.3 1.4,-1.9 2.4,-4.7 5,-7.8 z m 45.8,90.4 c -1.1,-0.4 -2.4,0.7 -2.5,0.8 -1.3,1.1 -1.5,2.9 -1.5,3.5 -0.7,7.8 -1,11.8 -1,11.9 0.6,11.4 -1,10.1 0,15.8 1.2,7 3.5,7.5 3.2,13 -0.2,4.2 -1.5,5 -1.5,9.8 0,2.8 0.4,3.1 1.8,10.8 1.2,6.4 1.7,9.6 1.7,12 0,3 0,6 0,9.1 0,2.4 -0.1,4.6 1.3,5.6 0.7,0.5 1.7,0.7 2.5,0.4 1.6,-0.7 1.5,-3.7 1.4,-4.9 -0.1,-3.5 -1.5,-6 -2.1,-7.3 -1,-2.2 -0.8,-3.4 0.9,-18.2 1.3,-11.2 1.4,-12.3 1,-14.7 -0.6,-3.2 -1.6,-4.8 -2,-9 -0.2,-2.2 -0.1,-3.9 0.3,-8.7 1.4,-14.2 2.6,-14.9 1.4,-18.2 -1.2,-3.4 -2.9,-4.3 -3.6,-8.4 -0.1,-1.1 -0.2,-2.9 -1.3,-3.3 z M 56.2,181.1 c -0.5,0.3 -2.2,1.4 -2.7,3.5 -0.6,2.5 0.8,4.5 1,4.8 1.2,1.6 2.9,2.1 4.6,2.6 1.8,0.5 3.2,0.9 4.8,0.2 2.7,-1.2 3.2,-4.4 3.2,-4.7 0.5,-3.1 -1.6,-5.3 -1.9,-5.5 -2.1,-2.2 -4.9,-2 -5.6,-2 -0.5,0.1 -1.9,0.2 -3.4,1.1 z m 23.5,-0.8 c 0.2,0.6 0.9,2.1 2.2,2.5 1,0.2 1.9,-0.6 3.8,-2.2 0.8,-0.7 1,-1 1.8,-1.6 0.9,-0.6 1.4,-0.8 2.2,-1.3 1.3,-0.7 1.2,-0.9 4.2,-3.1 2,-1.5 2.4,-1.7 2.7,-1.8 1.7,-0.6 2.5,0.1 3.2,-0.6 1.1,-0.8 1.1,-3.2 0.1,-4.7 -1.5,-2.3 -5.1,-2.1 -6.8,-2 -1.1,0.1 -3.7,0.2 -5.7,2.1 -1,0.9 -0.6,1.1 -2.1,3 -1.3,1.7 -1.9,1.9 -4.3,4.8 -0.9,1.1 -1.6,1.9 -1.6,3.1 0,0.9 0.2,1.4 0.3,1.8 z m -7.2,12.1 c -1.1,0.7 -1.6,2.9 -0.6,4.4 1.2,1.7 3.7,1.3 3.8,1.3 0.8,-0.2 0.9,-0.4 2.1,-1.1 2.5,-1.3 3.4,-0.7 4.3,-1.6 1.1,-1.1 1.6,-3.6 0.2,-5 -1.1,-1.1 -3.1,-1.2 -4.2,-0.5 -1.2,0.7 -0.9,1.9 -2,2.5 -1.3,0.7 -2.5,-0.7 -3.6,0 z m -0.3,8.4 c -3.2,-0.2 -4.4,-1.2 -5.9,-0.3 -1.2,0.7 -1.9,2.3 -1.8,3.6 0.1,1.5 1.3,2.4 3,3.8 1.2,0.9 2.4,1.9 4.3,2.2 0.9,0.1 2.3,0.4 3.7,-0.4 1.5,-0.9 2.1,-2.5 2.2,-2.8 0.5,-1.3 0.2,-1.8 0.8,-2.3 0.7,-0.6 1.9,-0.3 2.9,-0.1 1.6,0.4 1.7,0.8 2.9,1.2 2.2,0.7 4.3,-0.1 5,-0.4 0.6,-0.2 2.2,-0.9 3.5,-2.4 1.4,-1.7 0.8,-2.5 2.2,-4.2 1.3,-1.5 2,-1.1 3,-2.5 0.9,-1.3 1.5,-3.2 1,-5.2 -0.9,-3.2 -4.2,-4.1 -4.8,-4.3 -1.7,-0.5 -4.3,-0.5 -5.9,1 -0.8,0.7 -1.3,1.9 -1.6,2.7 -0.3,0.7 -0.4,1.1 -0.7,2.1 -0.4,1.3 -0.9,2.7 -1.3,3.5 -1.1,2.2 -3.7,3.1 -5.9,3.8 -3.1,1.2 -6,1 -6.6,1 z m 17.1,24.9 c -0.2,0.7 0.3,1.5 0.8,2 0.3,0.3 0.8,0.7 3.7,0.9 2,0.1 3.1,0.2 3.8,-0.3 0.8,-0.5 1.1,-1.1 1.8,-2.5 0.9,-1.9 0.4,-2 1.4,-5.1 0.2,-0.7 0.5,-1.4 0.1,-1.9 -0.3,-0.4 -0.9,-0.6 -1.4,-0.5 -0.6,0.1 -1,0.5 -1.1,0.7 -1.1,1.1 -5.1,4.7 -7.9,5.9 -0.4,0 -1,0.3 -1.2,0.8 z"
   id="path6"
   inkscape:connector-curvature="0" />
	<g
   id="g14">
		<path
   class="st0"
   d="m 58.2,215.1 c -1.3,0.9 -2.9,1.8 -4.8,2.7 -2.2,1 -4.1,1.6 -5.8,2"
   id="path8"
   inkscape:connector-curvature="0"
   style="fill:none;stroke:#000000;stroke-width:2.26769996;stroke-linecap:round;stroke-miterlimit:10" />
		<path
   class="st0"
   d="m 61.6,218.7 c -2.1,1.1 -4.2,2.2 -6.4,3.3 -2.7,1.4 -5.4,2.7 -8,4"
   id="path10"
   inkscape:connector-curvature="0"
   style="fill:none;stroke:#000000;stroke-width:2.26769996;stroke-linecap:round;stroke-miterlimit:10" />
		<path
   class="st0"
   d="m 62.4,232.5 c 0.4,-2.8 1,-4.9 1.6,-6.4 0.5,-1.4 1.7,-4.6 3.1,-4.5 0.5,0 0.8,0.6 1.9,0.8 0.9,0.2 1.2,-0.1 1.6,0.1 0.5,0.2 1,1.3 0.5,5.2"
   id="path12"
   inkscape:connector-curvature="0"
   style="fill:none;stroke:#000000;stroke-width:2.26769996;stroke-linecap:round;stroke-miterlimit:10" />
	</g>
	<circle
   class="st1"
   cx="170.8"
   cy="184"
   r="144.60001"
   id="circle16"
   style="fill:none;stroke:#000000;stroke-width:2.83459997;stroke-miterlimit:10" />
	<path
   d="M 226.7,114"
   id="path18"
   inkscape:connector-curvature="0" />
</g>
<g
   aria-label="eA
"
   style="font-style:normal;font-variant:normal;font-weight:normal;font-stretch:normal;font-size:17.87345505px;line-height:1.25;font-family:'Viner Hand ITC';-inkscape-font-specification:'Viner Hand ITC';font-variant-ligatures:normal;font-variant-caps:normal;font-variant-numeric:normal;font-feature-settings:normal;text-align:start;letter-spacing:0px;word-spacing:0px;writing-mode:lr-tb;text-anchor:start;fill:#000000;fill-opacity:1;stroke:none;stroke-width:0.27927274"
   id="text839"><path
     d="m 27.766116,17.293055 0.218182,0.03491 h 0.03491 l -0.03491,0.08727 h 0.06982 l 0.122182,0.122182 0.410182,0.03491 h 0.410181 l 0.235637,0.130909 h 0.08727 l 0.13091,0.445091 -0.183273,0.157091 v 0.165818 l 0.288,0.288 -0.03491,0.802909 h -0.122182 l -0.04364,0.157091 h -0.03491 v 0.253091 l 0.165819,0.03491 0.06982,0.08727 -0.104727,0.165818 v 0.122182 l -0.218182,0.104727 -0.157091,0.130909 -0.453818,0.244364 q -0.183273,0.192 -0.314182,0.288 l -0.130909,0.357818 -0.768,0.305455 -0.768,-0.01746 0.03491,0.192 h -0.157091 l -0.03491,0.05236 -0.375273,0.07854 -0.03491,-0.130909 -0.130909,0.05236 v 0.07854 l -0.322909,0.122182 -0.122182,0.357818 0.165818,0.445091 v 0.218182 l 0.08727,0.192 q -0.174546,0.514909 -0.253091,0.541091 l 0.05236,0.157091 -0.08727,0.03491 0.200727,0.08727 v 0.270545 l 0.174546,0.122182 q 0.436363,-0.130909 0.532363,-0.192 l 0.130909,0.122182 0.03491,-0.03491 q 0.357819,-0.03491 0.567273,-0.08727 l 0.06109,-0.104727 h 0.209455 l 0.165818,-0.01746 0.209454,0.104727 -0.05236,-0.06982 h 0.174545 l 0.218182,-0.183273 0.253091,-0.01745 h -0.05236 l 0.244364,-0.104727 0.06982,0.05236 0.130909,-0.122182 h 0.174546 l 0.165818,-0.165818 q 0.192,-0.0087 0.619636,-0.226909 v -0.096 l 0.253091,-0.06982 0.270546,-0.392727 0.288,0.03491 q 0.148363,0.139636 0.34909,0.165818 l 0.13091,0.122182 -0.200728,0.375272 0.03491,0.235637 -0.279272,0.157091 -0.03491,0.08727 -0.41891,0.05236 -0.226909,0.235636 -0.253091,0.01745 -0.06982,0.200727 -0.340363,-0.03491 -0.104728,0.244364 -0.270545,-0.03491 -0.104727,0.122182 q -0.296728,0.113454 -0.305455,0.130909 l -0.122182,-0.06982 -0.200727,0.192 h -0.288 l -0.174546,0.08727 h -0.104727 l -0.130909,0.113455 q -0.226909,0.06109 -0.462545,0.192 l -0.122182,-0.08727 h -0.253091 l -0.104727,0.08727 -0.096,-0.03491 -0.122182,0.03491 -0.03491,-0.03491 -0.08727,0.200727 h -0.235636 l -0.192,0.104727 q -0.096,0.05236 -0.41891,0.08727 l -0.08727,0.08727 h -0.157091 l -0.235637,0.03491 -0.174545,0.218182 -0.235636,-0.08727 -0.122182,0.157091 -0.096,-0.02618 q -0.03491,-0.0087 -0.349091,-0.331636 l 0.03491,-0.209455 -0.03491,-0.113455 0.03491,-0.209454 -0.130909,-0.322909 0.05236,-0.253091 -0.08727,-0.392727 0.08727,-0.322909 -0.122182,-0.497455 -0.03491,-0.03491 0.03491,-0.253091 0.288,-0.104727 v -0.174546 l -0.122182,-0.04364 0.03491,-0.226909 -0.07855,-0.130909 0.04364,-0.209455 0.122182,-0.06982 -0.03491,-0.200727 0.03491,-0.340364 0.06982,-0.03491 0.122182,-0.410182 0.288,-0.514909 0.253091,-0.096 0.03491,-0.279273 -0.03491,-0.07854 0.03491,-0.157091 0.157091,-0.08727 0.096,-0.288 h -0.218182 v -0.104727 l 0.08727,-0.130909 -0.03491,-0.122182 0.03491,-0.122182 h 0.03491 v -0.288 l 0.288,-0.03491 0.122181,-0.253091 0.61091,-0.680727 h 0.122181 q 0.104728,-0.165818 0.270546,-0.279273 l 0.122182,0.03491 q 0.122182,-0.04364 0.288,-0.288 h 0.08727 l 0.165819,-0.104727 h 0.06982 l 0.122182,-0.183273 z m -0.209455,1.483637 -0.305454,0.104727 -0.235637,-0.104727 q -0.209454,0.174545 -0.340363,0.244363 -0.02618,0.226909 -0.183273,0.384 -0.148364,0.157091 -0.209455,0.157091 h -0.15709 l 0.104727,0.192 q -0.096,0.174546 -0.253091,0.541091 l -0.139636,-0.03491 -0.05236,0.226909 0.05236,0.322909 0.174545,0.096 q 0.07854,0.04364 0.436364,0.104727 l 0.279272,-0.183272 0.576,-0.05236 0.305455,-0.445091 0.410182,-0.340363 0.05236,-0.645819 -0.139636,-0.209454 -0.01745,-0.305455 h -0.200727 z"
     style="stroke-width:0.27927274"
     id="path843"
     inkscape:connector-curvature="0" /><path
     d="m 39.949389,12.056691 0.410182,0.05236 0.200727,0.322909 -0.03491,0.392727 q 0.02618,0.113455 0.04364,0.200728 0.02618,0.07855 0.07855,0.532363 l 0.06982,0.209455 v 0.322909 l 0.200727,0.200727 v 0.122182 l 0.288,2.269091 h 0.08727 l 0.122182,0.157091 h -0.279273 q 0.165818,0.48 0.279273,0.986182 l 0.288,0.104727 0.270545,-0.226909 0.288,0.122182 h 0.122182 l 0.03491,0.03491 0.05236,-0.03491 q 0.03491,0.03491 0.357818,0.06982 l 0.445091,-0.322909 0.698182,0.04364 0.03491,-0.130909 0.445091,0.130909 0.776727,-0.200727 0.157091,-0.157091 q 0.08727,-0.096 0.226909,-0.139636 l 0.349091,-0.113455 0.157091,0.253091 h 0.288 l 0.122182,0.357818 q -0.165819,0.340364 -0.322909,0.497455 l -0.08727,-0.05236 -0.698182,0.733091 -0.357818,0.244364 h -0.855273 l -0.48,0.130909 -0.418909,-0.096 -0.837818,0.357818 -0.05236,-0.03491 -0.514909,0.218182 0.122182,1.893818 h 0.03491 v 0.08727 l -0.122182,0.130909 0.122182,0.104727 0.03491,0.410182 0.08727,0.08727 -0.08727,0.165818 0.165818,0.226909 0.08727,0.698182 0.122182,0.165818 0.122182,-0.04364 0.04364,0.113454 -0.01745,0.122182 H 42.50648 l 0.03491,1.021091 q -0.157091,0.261818 -0.322909,0.445091 l -0.314182,0.03491 -0.096,0.253091 -0.226909,-0.03491 0.03491,0.226909 -0.139636,0.174545 q -0.06109,0.07855 -0.471273,0.331637 l -0.305455,-0.253091 q -0.05236,-0.03491 -0.122182,-0.192 l -0.104727,-0.253091 v -0.488727 l -0.165818,-0.768 -0.06982,-0.122182 0.06982,-0.497455 -0.06982,-0.427636 0.165818,-0.340364 -0.200727,-0.715636 q 0.07854,-0.165818 0.104727,-0.445091 l -0.06982,-0.130909 0.06982,-0.375273 q 0,-0.157091 -0.104727,-0.645818 l 0.157091,-0.349091 -0.05236,-0.576 -0.261818,-0.157091 -0.183273,0.06982 v -0.06982 l -0.392727,0.03491 0.03491,0.244364 -0.192,-0.05236 -0.218182,0.05236 -0.05236,0.03491 q -0.401454,0.200727 -0.785454,0.200727 l -0.253091,-0.03491 -0.514909,0.157091 -0.541091,0.096 -0.03491,0.226909 -0.375273,-0.157091 v 0.157091 h -0.06982 l -0.253091,0.253091 h -0.357818 l 0.130909,0.357818 -0.340364,-0.06982 -0.523636,0.314182 -0.122182,0.130909 -0.288,-0.08727 -0.322909,0.244364 H 34.07594 v 0.235636 l -0.322909,0.05236 -0.130909,0.288 -0.157091,0.157091 -0.218182,0.558545 0.06109,0.05236 q -0.02618,0.07855 -0.288,0.322909 l -0.03491,0.48 -0.253091,0.192 0.03491,0.096 h -0.122182 v 0.192 l -0.288,0.218182 v 0.06982 q -0.06109,0.06109 -0.200727,0.322909 h -0.06982 l -0.209455,0.610909 -0.07854,-0.113454 v 0.06982 l -0.209455,0.165818 -0.05236,0.165818 q -0.01745,0.08727 -0.183273,0.244364 l -0.32292,-0.122175 q -0.05236,-0.148364 -0.08727,-0.165818 l 0.03491,-0.122182 v -0.06982 l 0.05236,-0.165818 q -0.096,-0.165819 -0.122182,-0.663273 l 0.122182,0.06109 -0.08727,-0.096 V 24.51051 l 0.03491,-0.03491 -0.06982,-0.218182 0.06982,-0.157091 -0.08727,-0.200727 0.05236,-0.06982 q -0.01745,-0.192 -0.03491,-0.532364 l 0.165818,-0.130909 0.48,0.375273 h 0.288 l 1.012364,-1.265455 -0.157091,-0.104727 0.03491,-0.183273 -0.322909,0.130909 -0.05236,0.08727 -0.06982,-0.03491 -0.200727,0.104727 q -0.08727,0.05236 -0.375273,0.08727 l -0.288,-0.375273 q 0.209455,-0.532364 0.375273,-0.602182 0,-0.096 0.288,-0.392727 l 0.200727,-0.06109 -0.03491,-0.03491 0.322909,-0.445091 h 0.03491 l 0.768,-0.157091 0.08727,0.157091 0.157091,-0.03491 0.03491,0.03491 h 0.096 l 0.06982,-0.157091 0.253091,0.03491 v -0.06982 l 0.192,-0.165818 -0.122182,-0.209455 0.157091,-0.235636 0.410182,-0.157091 -0.03491,-0.096 0.05236,-0.130909 q 0.01745,-0.06109 0.270545,-0.279273 0.165818,-0.663273 0.357818,-0.768 h -0.06982 l 0.410182,-0.514909 0.03491,0.03491 0.610909,-0.968727 h -0.03491 l 0.226909,-0.340364 h 0.05236 l 0.488727,-0.890182 h 0.06982 l 0.410182,-0.680727 0.122182,-0.03491 0.200727,-0.375273 q 0.03491,-0.03491 0.157091,-0.392727 l 0.288,-0.218182 v -0.03491 l 0.157091,-0.410182 0.096,-0.03491 0.03491,-0.322909 h 0.122182 l 0.03491,-0.122182 h 0.03491 l 0.096,-0.200727 0.689455,-0.410182 z m -1.370182,2.609455 -0.288,0.06982 v 0.122182 l -0.288,0.288 h -0.08727 L 37.52321,15.713421 H 37.4883 l -0.288,0.558545 v 0.08727 l -0.104727,0.157091 q -0.05236,0.096 -0.148364,0.148364 l -0.244364,0.139636 -0.113454,0.288 q -0.05236,0.122182 -0.08727,0.610909 l -0.157091,-0.03491 -0.03491,0.226909 -0.322909,0.253091 0.03491,0.03491 v 0.200727 l -0.288,0.122182 -0.226909,0.637091 q -0.06109,0.183273 -0.130909,0.288 l -0.209455,0.288 0.03491,0.05236 v 0.03491 l 0.08727,0.04364 h 0.514909 l 0.218182,0.122182 0.680727,-0.410182 0.567273,-0.03491 0.03491,0.122182 0.05236,-0.218182 h 0.322909 l 0.576,-0.157091 0.157091,0.05236 0.357818,-0.122182 v -0.03491 l 0.541091,-0.183273 v -0.03491 l 0.672,-0.157091 V 18.593412 L 39.757389,18.383957 V 17.70323 l 0.192,-0.445091 -0.192,-0.130909 -0.253091,0.130909 -0.322909,-0.453818 0.453818,-0.03491 v -0.122182 l -0.541091,-0.122182 0.05236,-0.130909 -0.157091,-0.192 0.104727,-0.165818 -0.288,-0.445091 0.05236,-0.08727 0.07854,-0.03491 -0.130909,-0.130909 -0.104727,-0.602182 z"
     style="stroke-width:0.27927274"
     id="path845"
     inkscape:connector-curvature="0" /></g></svg>